<svg width="75" height="75" viewBox="0 0 75 75" fill="none" xmlns="http://www.w3.org/2000/svg">
<path d="M63.2812 42.1875L72.6562 51.5625V72.6562H2.34375V51.5625L11.7188 42.1875H63.2812Z" fill="#F4F4F4"/>
<path d="M2.34375 51.5625H23.4375L28.125 56.25H46.875L51.5625 51.5625H72.6562V72.6562H2.34375V51.5625Z" fill="white"/>
<path d="M2.34375 51.5625H23.4375L28.125 56.25H46.875L51.5625 51.5625H72.6562V72.6562H2.34375V51.5625Z" fill="white"/>
<path d="M51.5625 51.5625L46.875 56.25H28.125L23.4375 51.5625H2.34375V69.1406H58.5938C59.671 69.1406 60.7377 68.9284 61.7329 68.5162C62.7282 68.104 63.6325 67.4997 64.3942 66.738C65.156 65.9763 65.7602 65.0719 66.1724 64.0767C66.5847 63.0815 66.7969 62.0147 66.7969 60.9375V51.5625H51.5625Z" fill="#838383"/>
<path d="M31.6406 57.4219H10.5469C9.25246 57.4219 8.20312 58.4712 8.20312 59.7656V64.4531C8.20312 65.7475 9.25246 66.7969 10.5469 66.7969H31.6406C32.935 66.7969 33.9844 65.7475 33.9844 64.4531V59.7656C33.9844 58.4712 32.935 57.4219 31.6406 57.4219Z" fill="#F4F4F4"/>
<path d="M23.4375 51.5625L28.125 56.25H46.875L51.5625 51.5625H60.9375V2.34375H18.75V51.5625H23.4375Z" fill="#E0E0E0"/>
<path d="M23.4375 51.5625L28.125 56.25H46.875L51.5625 51.5625H56.25V14.0625H49.2188V7.03125H14.0625V51.5625H23.4375Z" fill="#CCCCCC"/>
<path d="M49.2188 14.0625V7.03125H14.0625V48.0469H45.7031C47.5679 48.0469 49.3564 47.3061 50.675 45.9875C51.9936 44.6689 52.7344 42.8804 52.7344 41.0156V14.0625H49.2188Z" fill="#F2F2F2"/>
<path d="M42.1875 60.9375H32.8125C31.5181 60.9375 30.4688 61.9868 30.4688 63.2812C30.4688 64.5757 31.5181 65.625 32.8125 65.625H42.1875C43.4819 65.625 44.5312 64.5757 44.5312 63.2812C44.5312 61.9868 43.4819 60.9375 42.1875 60.9375Z" fill="white"/>
<path d="M56.25 14.0625L49.2188 7.03125V14.0625H56.25Z" fill="white"/>
<path d="M35.1562 44.5312C43.57 44.5312 50.3906 37.7106 50.3906 29.2969C50.3906 20.8832 43.57 14.0625 35.1562 14.0625C26.7425 14.0625 19.9219 20.8832 19.9219 29.2969C19.9219 37.7106 26.7425 44.5312 35.1562 44.5312Z" fill="#939393"/>
<path d="M35.7422 39.8438C34.0334 39.8419 32.395 39.1622 31.1867 37.9539C29.9784 36.7456 29.2987 35.1073 29.2969 33.3984V23.4375H31.6406V33.3984C31.6406 34.4862 32.0728 35.5295 32.8419 36.2987C33.6111 37.0679 34.6544 37.5 35.7422 37.5C36.83 37.5 37.8732 37.0679 38.6424 36.2987C39.4116 35.5295 39.8438 34.4862 39.8438 33.3984V23.4375C39.8438 22.8159 39.5968 22.2198 39.1573 21.7802C38.7177 21.3407 38.1216 21.0938 37.5 21.0938C36.8784 21.0938 36.2823 21.3407 35.8427 21.7802C35.4032 22.2198 35.1562 22.8159 35.1562 23.4375V33.3984C35.1562 33.5538 35.218 33.7029 35.3279 33.8128C35.4378 33.9226 35.5868 33.9844 35.7422 33.9844C35.8976 33.9844 36.0466 33.9226 36.1565 33.8128C36.2664 33.7029 36.3281 33.5538 36.3281 33.3984V22.2656H38.6719V33.3984C38.6719 34.1754 38.3632 34.9206 37.8138 35.47C37.2644 36.0195 36.5192 36.3281 35.7422 36.3281C34.9652 36.3281 34.22 36.0195 33.6706 35.47C33.1212 34.9206 32.8125 34.1754 32.8125 33.3984V23.4375C32.8125 22.1943 33.3064 21.002 34.1854 20.1229C35.0645 19.2439 36.2568 18.75 37.5 18.75C38.7432 18.75 39.9355 19.2439 40.8146 20.1229C41.6936 21.002 42.1875 22.1943 42.1875 23.4375V33.3984C42.1856 35.1073 41.506 36.7456 40.2977 37.9539C39.0893 39.1622 37.451 39.8419 35.7422 39.8438Z" fill="#686868"/>
</svg>
