<svg width="224" height="224" viewBox="0 0 224 224" fill="none" xmlns="http://www.w3.org/2000/svg">
<g clip-path="url(#clip0_622_2915)">
<path d="M71.5146 44.9476C4.19302 77.2459 18.68 143.542 34.3387 172.652C30.1414 214.811 74.1253 198.449 96.6419 184.998C247.435 200.518 224.333 93.8551 193.933 38.5837C154.357 -13.2302 95.8306 21.2372 71.5146 44.9476Z" fill="#F7F7F7"/>
<path d="M126.396 61.0029L148.28 35.1396H206.671V62.1138L126.396 61.0029Z" fill="url(#paint0_linear_622_2915)"/>
<path d="M201.708 66.4297H132.007V168.715H201.708V66.4297Z" fill="url(#paint1_linear_622_2915)"/>
<path d="M204.297 168.715H125.102V176.052H204.297V168.715Z" fill="#D8DEE8"/>
<path d="M204.297 60.1714H125.102V67.5084H204.297V60.1714Z" fill="url(#paint2_linear_622_2915)"/>
<path style="mix-blend-mode:multiply" opacity="0.3" d="M204.297 60.1714H125.102V67.5084H204.297V60.1714Z" fill="url(#paint3_linear_622_2915)"/>
<path d="M168.476 147.999H141.934V152.962H168.476V147.999Z" fill="#BFC8D6"/>
<path d="M165.67 75.709H144.738V149.51H165.67V75.709Z" fill="#F4F7FA"/>
<path d="M168.476 72.4717H141.934V77.4347H168.476V72.4717Z" fill="#BFC8D6"/>
<path d="M166.534 150.157H144.092V74.8452H166.534V150.157ZM145.602 148.648H165.023V76.3546H145.602V148.648Z" fill="#BFC8D6"/>
<path d="M73.2724 96.3489V157.396C73.2724 158.923 71.932 160.161 70.4045 160.161H68.7924C68.4619 160.16 68.1336 160.106 67.8209 159.999C66.7547 159.617 65.9492 158.596 65.9492 157.396V96.3489C65.9492 95.5036 66.3628 94.7302 66.9569 94.2236C67.469 93.7881 68.1177 93.546 68.79 93.5396H70.402C71.932 93.5396 73.2724 94.822 73.2724 96.3489Z" fill="#AABBCC"/>
<g style="mix-blend-mode:multiply" opacity="0.4">
<path d="M69.5984 141.731C66.7076 148.071 66.6852 156.304 67.8209 159.999C66.7547 159.617 65.9492 158.596 65.9492 157.396V96.349C65.9492 95.5038 66.3628 94.7527 66.9569 94.2461C67.138 94.7019 67.3427 95.1976 67.5335 95.732C67.5335 95.732 72.927 102.8 70.047 112.819C67.167 122.838 73.1691 133.899 69.5984 141.731Z" fill="#D8DEE8"/>
</g>
<path d="M96.1065 39.4807L45.2555 36.3314L42.4214 36.1545C39.8034 35.9927 37.6914 37.8257 37.6914 40.2487V109.852C37.6914 112.275 39.8348 114.158 42.4528 114.058L96.1542 111.99C98.4075 111.903 100.055 110.029 100.055 107.8V43.7699C100.055 41.5395 98.3598 39.6201 96.1065 39.4807Z" fill="url(#paint4_linear_622_2915)"/>
<path d="M94.6369 44.5221L48.8643 42.0183C48.5093 41.9997 48.1534 42.0179 47.8022 42.0726C45.8798 42.3908 44.3818 43.9268 44.3818 45.8456V104.875C44.3818 107.117 46.3833 108.877 48.7864 108.8L94.62 107.338C96.7332 107.271 98.5445 105.517 98.5445 103.431V48.5143C98.5452 46.4301 96.7495 44.6381 94.6369 44.5221ZM97.8973 103.45C97.8973 105.186 96.3915 106.64 94.6369 106.695L48.7821 108.118C46.7861 108.178 45.0309 106.719 45.0309 104.857V45.8824C45.0309 44.3126 46.2765 43.0495 47.8409 42.7585C48.1515 42.7044 48.4672 42.6854 48.7821 42.7018L94.6164 45.1652C96.374 45.26 97.8997 46.7476 97.8997 48.4859L97.8973 103.45Z" fill="white"/>
<path d="M80.4265 55.5148C78.3133 53.7928 75.1133 52.8413 70.6267 52.6523C66.1401 52.4633 62.9389 52.5992 60.5654 52.8848V83.9616H67.9025V72.7616C68.7524 72.8668 69.6074 72.9255 70.4637 72.9373C73.0339 72.9759 75.3959 72.6529 77.3769 71.9224C78.7094 71.4297 79.897 70.7522 80.8788 69.8695C82.7432 68.1862 83.7733 65.6763 83.7733 62.6931C83.7733 59.7098 82.4323 57.1335 80.4265 55.5148ZM70.4154 67.5516C69.357 67.5281 68.7653 67.4677 67.9025 67.3101V58.1243C68.5497 58.0036 69.5007 57.9015 70.9908 57.9541C74.6201 58.0814 76.6862 59.8427 76.6862 62.6719C76.6862 64.5545 75.8276 65.9589 74.3224 66.7661C73.3068 67.3113 71.9761 67.5867 70.4154 67.5516Z" fill="white"/>
<path d="M56.9906 97.3447C56.8095 96.7252 56.6815 96.2356 56.0343 96.0568V96.0255C56.6815 95.8051 57.3022 95.2025 57.3022 94.3391C57.3022 93.7166 57.0655 93.2481 56.638 92.9329C56.1266 92.5574 55.5029 92.4125 54.43 92.424C53.56 92.4336 52.7999 92.5025 52.3682 92.587V99.3866L53.8776 99.3546V96.6377L54.3002 96.6304C54.9644 96.6196 55.2457 96.8786 55.4383 97.7172C55.6551 98.5492 55.8103 99.0872 55.928 99.3112L57.6131 99.278C57.4706 98.8324 57.2158 98.1048 56.9906 97.3447ZM54.4488 95.496L53.8758 95.5044V93.6182C53.8758 93.5977 54.1517 93.5651 54.5502 93.5578C55.3001 93.5578 55.7475 93.87 55.7475 94.4931C55.7475 95.0896 55.2639 95.4845 54.4488 95.496Z" fill="white"/>
<path d="M59.9187 97.8873V96.3175L62.7239 96.2698V94.927L59.9187 94.9699V93.6216L62.9376 93.5812V92.4624L58.4062 92.5137V99.2603L63.1537 99.1661V97.8239L59.9187 97.8873Z" fill="white"/>
<path d="M66.8373 95.0553C65.9316 94.7407 65.5343 94.5566 65.5343 94.1309C65.5343 93.7825 65.8688 93.4819 66.5547 93.4734C67.0589 93.4639 67.5589 93.5656 68.0194 93.7711L68.3708 92.5496C67.9567 92.3763 67.3764 92.2248 66.5873 92.2332C64.9287 92.2508 63.9252 93.1389 63.9252 94.2813C63.9252 95.2557 64.689 95.8607 65.8573 96.2284C66.7026 96.5037 67.0335 96.7344 67.0335 97.1504C67.0335 97.5869 66.6483 97.881 65.9207 97.8942C65.3113 97.8964 64.7088 97.7647 64.1559 97.5084L63.8311 98.7679C64.2283 98.9702 65.0229 99.1531 65.8271 99.1374C67.7496 99.0994 68.6522 98.1309 68.6522 97.0139C68.6486 96.0745 68.0683 95.4725 66.8373 95.0553Z" fill="white"/>
<path d="M71.1395 97.6805V96.1318L73.7291 96.0907V94.7678L71.1395 94.8041V93.4758L73.9447 93.4414V92.3389L69.6289 92.3872V99.0396L74.1608 98.9484V97.6255L71.1395 97.6805Z" fill="white"/>
<path d="M79.7905 96.9496C79.6208 96.3459 79.3395 95.8749 78.9078 95.6986V95.6678C79.3395 95.4601 80.0809 94.8714 80.0809 94.034C80.0809 93.4302 79.8497 92.9762 79.4476 92.6707C78.9645 92.3084 78.2841 92.1659 77.274 92.1774C76.4534 92.1858 75.6704 92.2529 75.2393 92.335V98.93L76.7487 98.898V96.2625L77.1858 96.2565C77.8125 96.2462 78.1005 96.498 78.2823 97.3143C78.4858 98.1216 78.6445 98.6426 78.755 98.8606L80.3544 98.8286C80.2246 98.3939 80 97.6905 79.7905 96.9496ZM77.3301 95.1564L76.7499 95.1643V93.3342C76.7499 93.3143 77.0554 93.2835 77.4303 93.2787C78.1356 93.2787 78.5546 93.5806 78.5546 94.1843C78.5546 94.7628 78.0969 95.1456 77.3301 95.1546V95.1564Z" fill="white"/>
<path d="M85.102 92.2197L84.2512 94.9771C84.0906 95.4994 83.9415 96.0114 83.8099 96.5554C83.7495 96.7914 83.6958 97.0221 83.6444 97.2406H83.6155C83.5309 96.8065 83.4301 96.4002 83.3232 95.9902C83.2266 95.6352 83.1264 95.3261 83.0214 94.9638L82.2045 92.2505L80.5332 92.2686L82.6923 98.7821L84.4608 98.747L84.8592 97.5878L86.702 92.2021L85.102 92.2197Z" fill="white"/>
<path d="M88.8345 97.3621V95.849L91.2086 95.8152V94.5231L88.8345 94.5527V93.2564L91.4241 93.2274V92.1509L87.54 92.1913V98.6855L91.6397 98.6058V97.3144L88.8345 97.3621Z" fill="white"/>
<path style="mix-blend-mode:multiply" opacity="0.3" d="M100.045 102.536V107.749C100.045 109.972 98.3006 111.845 96.1372 111.931L44.5238 113.989C42.0114 114.088 39.8486 112.214 39.8486 109.798V40.3805C39.8486 37.965 41.956 36.1353 44.4684 36.2965L47.239 36.4716C47.1837 38.345 47.279 40.2199 47.524 42.0768C47.5543 42.3045 47.5951 42.5346 47.6324 42.7628C48.5368 48.4773 51.2346 54.3531 57.837 57.3767C58.5511 57.704 59.2411 58.0194 59.907 58.323C62.6537 59.5875 65.0082 60.6992 67.0275 61.8581C69.5452 63.2953 71.5535 64.8068 73.1614 66.7725C74.3345 68.2024 75.2985 69.8722 76.0969 71.929C77.5976 75.7992 78.5172 81.0512 79.1274 88.66C79.2148 89.8611 79.4386 91.0472 79.7941 92.1939C80.2668 93.6897 80.9527 94.947 81.8123 96.0074C81.9633 96.197 82.1183 96.377 82.282 96.5509C82.599 96.8946 82.9366 97.2173 83.2926 97.5171C86.4851 100.226 91.0804 101.235 95.7194 101.929C95.9269 101.958 96.1337 101.989 96.3412 102.018C97.5831 102.206 98.8262 102.367 100.045 102.536Z" fill="url(#paint5_linear_622_2915)"/>
<path d="M173.312 119.146C168.496 128.664 145.064 178.362 145.12 173.87C145.12 173.87 140.427 173.459 140.926 163.304C140.977 162.277 141.08 161.151 141.247 159.917C143.064 146.461 152.975 95.9395 156.739 104.268C160.502 112.596 159.12 117.335 161.454 109.293C163.787 101.25 166.351 93.4671 170.189 98.3304C170.408 98.6082 170.627 98.891 170.847 99.1788C174.463 103.937 177.852 110.174 173.312 119.146Z" fill="#CECECE"/>
<path style="mix-blend-mode:multiply" opacity="0.3" d="M173.312 119.146C168.496 128.664 145.064 178.362 145.12 173.87C145.12 173.87 140.427 173.459 140.926 163.304C142.688 156.71 149.141 151.14 151.721 148.603C155.594 144.799 157.178 144.33 156.7 135.501C156.222 126.672 158.387 122.97 166.208 111.804C169.738 106.764 170.772 102.423 170.847 99.1763C174.463 103.937 177.852 110.174 173.312 119.146Z" fill="#ACACAC"/>
<path d="M191.785 151.947C181.525 159.543 154.613 173.015 147.095 173.376C145.408 173.458 144.696 172.878 145.37 171.425C145.37 171.425 165.147 101.448 185.528 102.983C188.256 103.189 191.981 104.033 194.124 105.838C194.479 106.137 194.809 106.466 195.109 106.82C199.671 112.237 194.566 121.331 191.267 126.114C190.04 127.895 188.358 129.234 187.015 130.913C185.873 132.339 185.204 134.389 187.513 134.61C189.63 134.811 191.43 132.605 193.43 132.259C195.698 131.869 197.187 133.21 198.096 136.07C200.012 142.093 196.715 148.298 191.785 151.947Z" fill="#CECECE"/>
<path style="mix-blend-mode:multiply" opacity="0.3" d="M191.785 151.947C181.525 159.542 154.614 173.014 147.096 173.376C148.424 171.329 149.959 169.061 151.724 166.568C162.201 151.77 176.062 157.633 172.666 144.772C169.27 131.912 172.14 120.339 183.841 116.643C190.764 114.454 193.791 110.049 195.11 106.818C199.671 112.236 194.566 121.329 191.267 126.113C190.041 127.894 188.359 129.232 187.015 130.911C185.874 132.338 185.204 134.388 187.513 134.609C189.63 134.809 191.43 132.604 193.43 132.257C195.699 131.867 197.187 133.208 198.096 136.069C200.012 142.093 196.716 148.298 191.785 151.947Z" fill="#717171"/>
<path d="M185.948 174.622H183.179L179.75 165.907C179.75 165.907 186.042 166.348 185.948 174.622Z" fill="#6A6A6A"/>
<path d="M121.332 189.693L139.351 186.355C139.351 186.355 140.987 172.446 132.933 171.124C124.879 169.803 120.555 180.577 121.332 189.693Z" fill="#6A6A6A"/>
<path d="M122.218 173.332H122.212C121.65 173.389 121.134 173.609 120.622 173.924C120.129 174.174 119.535 174.467 119.535 174.845V174.853C117.637 176.827 116.388 180.475 116.381 184.559C116.371 189.999 118.584 194.396 121.503 194.903C121.501 194.905 121.499 194.906 121.497 194.907C121.695 194.935 124.14 195.82 131.848 194.948C132.053 191.638 132.173 172.895 132.173 172.895C132.173 172.895 126.011 172.576 122.218 173.332Z" fill="#868C97"/>
<path d="M137.608 183.516C137.608 189.738 134.727 194.894 131.236 195.024C127.812 195.151 125.09 190.378 125.097 184.369C125.103 178.361 127.831 173.236 131.249 172.898C134.733 172.552 137.608 177.3 137.608 183.516Z" fill="url(#paint6_linear_622_2915)"/>
<path d="M134.877 183.658C134.877 188.074 132.955 191.744 130.616 191.852C128.308 191.958 126.461 188.546 126.465 184.234C126.468 179.921 128.32 176.264 130.626 176.057C132.962 175.846 134.877 179.246 134.877 183.658Z" fill="white"/>
<path d="M172.97 166.708H172.965C172.462 166.771 171.98 166.945 171.553 167.218C171.153 167.433 171.261 167.687 170.549 168.01V168.018C169.362 169.718 168.117 172.86 168.111 176.379C168.104 181.064 169.96 184.851 172.328 185.289L172.354 185.292C172.514 185.316 174.513 186.076 180.766 185.327C180.932 182.476 181.037 166.331 181.037 166.331C181.037 166.331 176.047 166.057 172.97 166.708Z" fill="#868C97"/>
<path d="M185.455 175.479C185.455 180.839 183.118 185.28 180.286 185.392C177.508 185.501 175.3 181.39 175.305 176.215C175.31 171.04 177.523 166.625 180.295 166.333C183.124 166.038 185.455 170.125 185.455 175.479Z" fill="url(#paint7_linear_622_2915)"/>
<path d="M183.24 175.602C183.24 179.406 181.681 182.567 179.784 182.66C177.912 182.751 176.413 179.812 176.416 176.097C176.419 172.383 177.921 169.235 179.791 169.055C181.686 168.875 183.24 171.802 183.24 175.602Z" fill="white"/>
<path d="M54.0909 168.956H54.0837C53.3851 168.956 52.8532 169.308 52.212 169.621C51.5943 169.859 51.197 170.333 50.9597 170.738V170.748C48.3496 172.865 46.8613 177.106 46.8613 181.99C46.8613 188.489 49.6314 193.845 53.2915 194.581L53.2565 194.584C53.498 194.627 56.5048 195.77 65.7383 195.088C65.9762 191.317 66.1006 169.749 66.1006 169.749C66.1006 169.749 58.7472 168.482 54.0909 168.956Z" fill="#868C97"/>
<path d="M65.0095 195.148C69.076 195.148 72.3725 189.472 72.3725 182.471C72.3725 175.469 69.076 169.793 65.0095 169.793C60.943 169.793 57.6465 175.469 57.6465 182.471C57.6465 189.472 60.943 195.148 65.0095 195.148Z" fill="#868C97"/>
<path d="M64.2774 191.486C67.0211 191.486 69.2453 187.428 69.2453 182.421C69.2453 177.415 67.0211 173.356 64.2774 173.356C61.5338 173.356 59.3096 177.415 59.3096 182.421C59.3096 187.428 61.5338 191.486 64.2774 191.486Z" fill="url(#paint8_linear_622_2915)"/>
<path d="M188.331 169.741C188.458 170.315 188.444 170.912 188.29 171.479C188.137 172.047 187.848 172.569 187.449 173.001L185.95 174.625C185.539 169.836 183.061 166.151 180.063 166.151C176.782 166.151 174.116 170.574 174.116 176.028C174.111 177.26 174.253 178.488 174.539 179.686L173.883 179.956L138.468 186.516C138.564 185.786 138.741 185.03 138.741 184.261C138.741 183.566 138.752 182.889 138.752 182.225V182.219C137.566 176.573 134.677 172.273 130.709 172.273C126.273 172.273 122.613 177.647 122.613 184.265C122.613 186.076 122.854 187.786 123.332 189.325L118.037 190.302C118.03 190.344 118.019 190.386 118.004 190.427C117.838 190.608 116.555 191.735 110.3 191.735H41.2325C38.1074 191.735 35.7744 189.009 35.7744 185.884V185.626C35.7744 184.429 36.351 183.336 37.4221 182.799C37.4221 182.799 35.51 177.319 37.026 170.764C37.6334 168.146 38.7492 165.358 40.764 162.679C42.0391 160.992 43.5305 159.48 45.1999 158.182C45.1999 158.182 53.0592 151.662 67.4792 149.967C67.4792 149.967 79.4339 141.278 90.3707 135.518C95.7331 132.69 101.707 131.218 107.769 131.231H147.75C154.693 131.23 161.499 133.164 167.403 136.815L177.817 143.249C177.817 143.249 180.304 144.731 182.839 148.279C185.722 152.312 188.668 159.02 188.087 169.251L188.328 169.74L188.331 169.741Z" fill="#C7C7C7"/>
<path d="M118.023 190.301C118.018 190.344 118.009 190.386 117.997 190.426C117.514 190.728 116.91 192.209 100.887 191.735H41.2346C38.1095 191.735 35.7765 189.008 35.7765 185.884V185.626C35.7765 185.556 35.6799 185.49 35.6847 185.421C35.7542 184.306 36.364 183.307 37.3753 182.798L106.833 183.454C106.833 183.454 113.384 182.261 115.631 183.437C115.946 183.603 116.171 183.812 116.284 184.079C117.225 186.255 118.46 189.283 118.023 190.301Z" fill="url(#paint9_linear_622_2915)"/>
<g opacity="0.8">
<path opacity="0.8" d="M53.0534 170.904V171.809C53.0532 172.157 52.9827 172.501 52.8461 172.821C52.7095 173.14 52.5096 173.429 52.2585 173.67C52.0074 173.91 51.7102 174.097 51.3849 174.22C51.0595 174.342 50.7127 174.398 50.3654 174.383L42.939 174.069C41.155 173.993 39.4644 173.251 38.2018 171.989L36.9785 170.765C37.6505 167.835 38.9326 165.081 40.7412 162.68C40.7672 162.684 40.7938 162.684 40.8197 162.689L44.3856 165.503C46.2739 166.994 48.5126 167.977 50.8883 168.357C51.4928 168.455 52.0426 168.765 52.4393 169.232C52.836 169.699 53.0537 170.291 53.0534 170.904Z" fill="white"/>
</g>
<g style="mix-blend-mode:multiply" opacity="0.4">
<path style="mix-blend-mode:multiply" opacity="0.4" d="M86.0282 169.867C85.5392 170.454 84.7241 170.932 84.2169 170.934L56.4071 170.928C55.9029 170.928 55.1893 170.449 54.8228 169.863C54.4605 169.281 54.6259 168.812 55.1941 168.812H85.8718C86.4376 168.812 86.5179 169.282 86.0282 169.865V169.867Z" fill="url(#paint10_linear_622_2915)"/>
<path style="mix-blend-mode:multiply" opacity="0.4" d="M82.8937 173.665C82.3775 174.281 81.6258 174.785 81.2152 174.785L58.6111 174.777C58.2 174.777 57.5527 174.273 57.1669 173.658C56.7823 173.047 56.865 172.555 57.3378 172.556L82.9492 172.561C83.4256 172.561 83.4051 173.053 82.8937 173.665Z" fill="url(#paint11_linear_622_2915)"/>
</g>
<path opacity="0.8" d="M94.106 174.574C92.4154 174.531 91.0605 173.303 91.0605 171.804V170.889C91.0605 169.464 92.288 168.271 93.8898 168.131L96.9087 167.868L114.886 163.134L114.492 165.4C113.897 168.824 111.281 171.705 107.632 172.957L104.962 173.873C103.187 174.478 101.319 174.762 99.444 174.712L94.106 174.574Z" fill="white"/>
<g style="mix-blend-mode:soft-light" opacity="0.4">
<path d="M115.615 183.509L108.116 185.566H35.582C35.6521 184.38 36.312 183.378 37.3215 182.871L106.807 183.527C106.807 183.527 113.368 182.334 115.615 183.509Z" fill="white"/>
</g>
<path d="M162.85 178.448H162.837C162.596 177.973 162.406 178.12 162.415 177.879C162.42 177.733 162.846 163.133 162.415 157.216C162.042 152.089 161.183 151.159 161.107 151.09C161.014 151.035 160.944 150.948 160.909 150.846C160.873 150.744 160.876 150.632 160.915 150.531C160.958 150.423 161.041 150.336 161.147 150.289C161.254 150.242 161.374 150.239 161.483 150.28C161.799 150.406 162.862 151.268 163.286 157.096C163.72 163.059 163.291 177.76 163.286 177.907C163.279 178.143 163.086 178.448 162.85 178.448Z" fill="#868C97"/>
<path style="mix-blend-mode:multiply" opacity="0.5" d="M188.333 169.742L188.091 169.252C188.672 159.022 185.729 152.314 182.845 148.28C181.027 148.385 178.593 149.289 178.777 153.412C179.065 159.927 177.763 163.293 172.812 166.272C170.461 167.683 167.882 168.899 165.798 170.703C163.937 172.32 163.068 174.802 161.172 176.323C157.964 178.893 153.612 177.752 149.876 177.582C146.471 177.425 138.756 177.263 138.756 182.214V182.223C138.756 182.887 138.745 183.564 138.745 184.259C138.745 185.028 138.564 185.784 138.465 186.514L173.883 179.954L174.54 179.684C174.255 178.486 174.113 177.258 174.118 176.026C174.118 170.572 176.784 166.15 180.065 166.15C183.064 166.15 185.542 169.833 185.952 174.623L187.452 172.999C187.85 172.567 188.138 172.046 188.292 171.478C188.445 170.911 188.459 170.315 188.333 169.742Z" fill="#C4C4C4"/>
<path d="M140.454 134.313C140.454 134.313 135.791 146.246 134.629 147.994C134.519 148.156 134.379 148.396 134.213 148.537C132.6 149.883 128.655 150.212 128.655 150.212H70.5332C83.4992 140.246 94.5682 134.314 94.5682 134.314L140.454 134.313Z" fill="#9C9C9C"/>
<path d="M176.181 144.343C176.181 144.343 169.979 146.878 161.65 149.263C161.312 147.669 160.84 146.106 160.239 144.592C158.945 141.31 156.752 137.467 153.028 134.082C156.372 134.319 159.67 134.994 162.837 136.091C167.202 137.613 171.839 140.16 176.181 144.343Z" fill="#9C9C9C"/>
<path d="M159.517 149.857C155.366 150.98 150.804 152.02 146.276 152.684C143.698 153.06 141.132 153.313 138.663 153.388C137.943 153.41 137.226 153.418 136.522 153.41C136.523 153.406 136.524 153.403 136.527 153.401C136.636 152.938 141.055 134.828 145.153 134.291C146.584 134.106 148.024 134.003 149.466 133.98C153.893 137.254 156.454 141.322 157.919 144.801C158.61 146.432 159.145 148.125 159.517 149.857Z" fill="#9C9C9C"/>
<path style="mix-blend-mode:multiply" opacity="0.3" d="M134.213 148.531C132.601 149.877 128.655 150.211 128.655 150.211H70.5332C83.4992 140.246 94.5682 134.313 94.5682 134.313H95.39C96.6748 134.788 97.9337 135.932 99.0476 137.518C103.547 143.929 128.388 139.07 134.213 148.531Z" fill="#858585"/>
<path opacity="0.3" d="M138.661 153.388C137.941 153.41 137.224 153.419 136.521 153.41C136.521 153.407 136.522 153.404 136.525 153.401C137.106 153.397 137.827 153.393 138.661 153.388Z" fill="url(#paint12_linear_622_2915)"/>
<path style="mix-blend-mode:multiply" opacity="0.3" d="M157.921 144.801C158.611 146.432 159.146 148.125 159.517 149.857C155.366 150.98 150.803 152.02 146.276 152.684C146.914 152.051 147.504 151.251 148.019 150.25C150.269 145.903 154.241 145.155 157.921 144.801Z" fill="url(#paint13_linear_622_2915)"/>
<path style="mix-blend-mode:multiply" opacity="0.3" d="M176.181 144.343C176.181 144.343 169.98 146.878 161.651 149.263C161.313 147.669 160.841 146.107 160.239 144.592C162.459 144.369 164.378 144.024 165.475 142.704C167.395 140.378 165.011 137.775 162.838 136.091C167.203 137.613 171.84 140.16 176.181 144.343Z" fill="#838383"/>
<path d="M136.361 154.264C136.361 154.264 138.201 147.003 140.815 146.712C143.429 146.422 150.885 144.291 151.562 147.874C152.239 151.457 150.884 153.244 147.108 153.464C143.332 153.683 140.814 153.464 140.814 153.464L139.072 155.329C139.072 155.329 136.264 157.262 136.361 154.264Z" fill="#6A6A6A"/>
<path d="M135.49 154.264C135.49 154.264 137.329 147.003 139.944 146.712C142.558 146.422 150.013 144.291 150.691 147.874C151.368 151.457 150.013 153.244 146.237 153.464C142.461 153.683 139.944 153.464 139.944 153.464L138.201 155.329C138.201 155.329 135.393 157.262 135.49 154.264Z" fill="#868C97"/>
</g>
<defs>
<linearGradient id="paint0_linear_622_2915" x1="126.396" y1="48.6267" x2="206.671" y2="48.6267" gradientUnits="userSpaceOnUse">
<stop stop-color="#D7D6D6"/>
<stop offset="1" stop-color="#E9E9E9"/>
</linearGradient>
<linearGradient id="paint1_linear_622_2915" x1="132.007" y1="117.572" x2="201.708" y2="117.572" gradientUnits="userSpaceOnUse">
<stop stop-color="#D8DEE8"/>
<stop offset="1" stop-color="white"/>
</linearGradient>
<linearGradient id="paint2_linear_622_2915" x1="213173" y1="2637.31" x2="213332" y2="8254.18" gradientUnits="userSpaceOnUse">
<stop stop-color="#E4E4E4"/>
<stop offset="1" stop-color="#FB6FBB"/>
</linearGradient>
<linearGradient id="paint3_linear_622_2915" x1="213173" y1="2637.31" x2="213332" y2="8254.18" gradientUnits="userSpaceOnUse">
<stop stop-color="#A3A1A1"/>
<stop offset="1" stop-color="#CDCDCD"/>
</linearGradient>
<linearGradient id="paint4_linear_622_2915" x1="37.6914" y1="75.1027" x2="100.055" y2="75.1027" gradientUnits="userSpaceOnUse">
<stop stop-color="#888888"/>
<stop offset="0.0001" stop-color="#C4C4C4"/>
<stop offset="1" stop-color="#C9C9C9"/>
</linearGradient>
<linearGradient id="paint5_linear_622_2915" x1="39.8486" y1="75.1398" x2="100.045" y2="75.1398" gradientUnits="userSpaceOnUse">
<stop stop-color="#F3F3F3"/>
<stop offset="1" stop-color="#B8B8B8"/>
</linearGradient>
<linearGradient id="paint6_linear_622_2915" x1="141.171" y1="164.71" x2="125.091" y2="196.234" gradientUnits="userSpaceOnUse">
<stop stop-color="#EBEFF2"/>
<stop offset="0.99" stop-color="#B7C0CE"/>
</linearGradient>
<linearGradient id="paint7_linear_622_2915" x1="35811.1" y1="50517.3" x2="30436.4" y2="56123.5" gradientUnits="userSpaceOnUse">
<stop stop-color="#EBEFF2"/>
<stop offset="0.99" stop-color="#B7C0CE"/>
</linearGradient>
<linearGradient id="paint8_linear_622_2915" x1="13611.2" y1="54950.8" x2="15246.3" y2="54950.8" gradientUnits="userSpaceOnUse">
<stop stop-color="#444B8C"/>
<stop offset="1" stop-color="#3E4177"/>
</linearGradient>
<linearGradient id="paint9_linear_622_2915" x1="141533" y1="25262.2" x2="141384" y2="32863.4" gradientUnits="userSpaceOnUse">
<stop stop-color="#ABABAB"/>
<stop offset="0.05" stop-color="#FDBA46"/>
<stop offset="0.14" stop-color="#FFC244"/>
<stop offset="0.32" stop-color="#FFC444"/>
<stop offset="0.48" stop-color="#FDB946"/>
<stop offset="0.78" stop-color="#F99C4D"/>
<stop offset="0.87" stop-color="#F8924F"/>
<stop offset="1" stop-color="#F8924F"/>
</linearGradient>
<linearGradient id="paint10_linear_622_2915" x1="40935.2" y1="6136.51" x2="57599.9" y2="6136.51" gradientUnits="userSpaceOnUse">
<stop stop-color="#747474"/>
<stop offset="0.05" stop-color="#FDBA46"/>
<stop offset="0.14" stop-color="#FFC244"/>
<stop offset="0.32" stop-color="#FFC444"/>
<stop offset="0.48" stop-color="#FDB946"/>
<stop offset="0.78" stop-color="#F99C4D"/>
<stop offset="0.87" stop-color="#F8924F"/>
<stop offset="1" stop-color="#F8924F"/>
</linearGradient>
<linearGradient id="paint11_linear_622_2915" x1="35042.5" y1="6584.46" x2="46558.8" y2="6584.46" gradientUnits="userSpaceOnUse">
<stop stop-color="#5C5C5C"/>
<stop offset="0.05" stop-color="#FDBA46"/>
<stop offset="0.14" stop-color="#FFC244"/>
<stop offset="0.32" stop-color="#FFC444"/>
<stop offset="0.48" stop-color="#FDB946"/>
<stop offset="0.78" stop-color="#F99C4D"/>
<stop offset="0.87" stop-color="#F8924F"/>
<stop offset="1" stop-color="#F8924F"/>
</linearGradient>
<linearGradient id="paint12_linear_622_2915" x1="5794.99" y1="218.475" x2="5795" y2="217.547" gradientUnits="userSpaceOnUse">
<stop stop-color="#444B8C"/>
<stop offset="1" stop-color="#3E4177"/>
</linearGradient>
<linearGradient id="paint13_linear_622_2915" x1="37769.1" y1="20371.3" x2="38906.9" y2="18487" gradientUnits="userSpaceOnUse">
<stop stop-color="#444B8C"/>
<stop offset="1" stop-color="#3E4177"/>
</linearGradient>
<clipPath id="clip0_622_2915">
<rect width="224" height="224" fill="white"/>
</clipPath>
</defs>
</svg>
