<svg width="164" height="164" viewBox="0 0 164 164" fill="none" xmlns="http://www.w3.org/2000/svg">
<g clip-path="url(#clip0_1709_3309)">
<path d="M52.3582 32.9078C3.06916 56.5547 13.6757 105.093 25.1401 126.406C22.0671 157.272 54.2696 145.293 70.7549 135.445C181.157 146.808 164.243 68.7151 141.986 28.2485C113.01 -9.68666 70.161 15.5484 52.3582 32.9078Z" fill="#D5D4FF"/>
<path d="M92.5391 44.6631L108.561 25.7275H151.312V45.4765L92.5391 44.6631Z" fill="#FE898F"/>
<path d="M147.677 48.6362H96.6465V123.524H147.677V48.6362Z" fill="url(#paint0_linear_1709_3309)"/>
<path d="M149.573 123.523H91.5908V128.895H149.573V123.523Z" fill="#D8DEE8"/>
<path d="M149.573 44.0547H91.5908V49.4265H149.573V44.0547Z" fill="url(#paint1_linear_1709_3309)"/>
<g style="mix-blend-mode:multiply" opacity="0.3">
<path d="M149.573 44.0547H91.5908V49.4265H149.573V44.0547Z" fill="#FC659C"/>
</g>
<path d="M123.347 108.356H103.914V111.99H123.347V108.356Z" fill="#BFC8D6"/>
<path d="M121.293 55.4302H105.968V109.463H121.293V55.4302Z" fill="#F4F7FA"/>
<path d="M123.347 53.0601H103.914V56.6937H123.347V53.0601Z" fill="#BFC8D6"/>
<path d="M121.926 109.937H105.495V54.7979H121.926V109.937ZM106.601 108.832H120.82V55.903H106.601V108.832Z" fill="#BFC8D6"/>
<path d="M53.6458 70.5407V115.236C53.6458 116.354 52.6644 117.26 51.5461 117.26H50.3658C50.1238 117.26 49.8835 117.22 49.6545 117.141C48.8739 116.862 48.2842 116.115 48.2842 115.236V70.5407C48.2842 69.9219 48.587 69.3556 49.022 68.9847C49.3969 68.6658 49.8718 68.4886 50.364 68.4839H51.5443C52.6644 68.4839 53.6458 69.4228 53.6458 70.5407Z" fill="#AABBCC"/>
<g style="mix-blend-mode:multiply" opacity="0.4">
<path d="M50.9559 103.767C48.8394 108.409 48.823 114.437 49.6545 117.142C48.8739 116.862 48.2842 116.115 48.2842 115.236V70.5411C48.2842 69.9223 48.587 69.3723 49.022 69.0015C49.1546 69.3352 49.3044 69.6981 49.4441 70.0894C49.4441 70.0894 53.3929 75.264 51.2844 82.5993C49.1758 89.9347 53.5702 98.033 50.9559 103.767Z" fill="#D8DEE8"/>
</g>
<path d="M70.3639 28.9054L33.1337 26.5997L31.0587 26.4702C29.142 26.3517 27.5957 27.6938 27.5957 29.4677V80.4275C27.5957 82.2014 29.165 83.5802 31.0817 83.5063L70.3988 81.9923C72.0486 81.9287 73.2549 80.557 73.2549 78.9249V32.0457C73.2549 30.4128 72.0136 29.0075 70.3639 28.9054Z" fill="#4B43FF"/>
<path d="M69.2871 32.5966L35.7749 30.7635C35.5151 30.7498 35.2545 30.7632 34.9974 30.8033C33.5899 31.0362 32.4932 32.1608 32.4932 33.5656V76.7838C32.4932 78.4251 33.9586 79.7137 35.7179 79.6571L69.2747 78.5865C70.8219 78.5374 72.148 77.2537 72.148 75.7264V35.5195C72.1484 33.9935 70.8338 32.6815 69.2871 32.5966ZM71.6741 75.7406C71.6741 77.011 70.5717 78.0759 69.2871 78.1162L35.7148 79.1576C34.2534 79.2018 32.9684 78.1334 32.9684 76.7706V33.5926C32.9684 32.4433 33.8803 31.5185 35.0257 31.3054C35.2531 31.2658 35.4843 31.2519 35.7148 31.2639L69.272 33.0674C70.5588 33.1368 71.6759 34.226 71.6759 35.4987L71.6741 75.7406Z" fill="white"/>
<path d="M58.883 40.6451C57.3358 39.3844 54.9929 38.6877 51.7081 38.5493C48.4232 38.411 46.0795 38.5104 44.3418 38.7195V61.4722H49.7136V53.2722C50.3358 53.3492 50.9618 53.3922 51.5887 53.4008C53.4705 53.4291 55.1998 53.1926 56.6502 52.6577C57.6258 52.297 58.4953 51.8011 59.2141 51.1548C60.5791 49.9223 61.3332 48.0848 61.3332 45.9006C61.3332 43.7164 60.3514 41.8302 58.883 40.6451ZM51.5534 49.4578C50.7785 49.4405 50.3453 49.3963 49.7136 49.2809V42.5556C50.1874 42.4672 50.8837 42.3925 51.9746 42.431C54.6318 42.5242 56.1445 43.8137 56.1445 45.8851C56.1445 47.2634 55.5159 48.2916 54.4139 48.8827C53.6703 49.2818 52.6961 49.4834 51.5534 49.4578Z" fill="white"/>
<path d="M41.7242 71.2701C41.5915 70.8166 41.4978 70.4581 41.024 70.3272V70.3043C41.4978 70.1429 41.9523 69.7017 41.9523 69.0696C41.9523 68.6139 41.779 68.2708 41.466 68.0401C41.0916 67.7651 40.635 67.6591 39.8494 67.6675C39.2124 67.6745 38.6559 67.7249 38.3398 67.7868V72.7651L39.445 72.7417V70.7525L39.7544 70.7472C40.2406 70.7392 40.4466 70.9289 40.5877 71.5429C40.7464 72.152 40.86 72.5459 40.9462 72.7099L42.1799 72.6855C42.0756 72.3593 41.889 71.8267 41.7242 71.2701ZM39.8631 69.9166L39.4436 69.9228V68.5418C39.4436 68.5268 39.6457 68.5029 39.9374 68.4976C40.4864 68.4976 40.814 68.7262 40.814 69.1823C40.814 69.6191 40.4599 69.9082 39.8631 69.9166Z" fill="white"/>
<path d="M43.8691 71.6676V70.5183L45.9228 70.4834V69.5002L43.8691 69.5316V68.5445L46.0793 68.5149V67.6958L42.7617 67.7334V72.6728L46.2376 72.6039V71.6212L43.8691 71.6676Z" fill="white"/>
<path d="M48.9334 69.5942C48.2703 69.3639 47.9794 69.2291 47.9794 68.9174C47.9794 68.6624 48.2243 68.4422 48.7265 68.4361C49.0956 68.4291 49.4618 68.5035 49.7989 68.654L50.0562 67.7597C49.7529 67.6328 49.3281 67.5219 48.7504 67.5281C47.5361 67.5409 46.8014 68.1912 46.8014 69.0275C46.8014 69.741 47.3606 70.1839 48.2159 70.4531C48.8348 70.6547 49.0771 70.8236 49.0771 71.1281C49.0771 71.4477 48.795 71.663 48.2624 71.6727C47.8162 71.6743 47.3751 71.5779 46.9702 71.3903L46.7324 72.3124C47.0233 72.4605 47.605 72.5944 48.1938 72.5829C49.6013 72.5551 50.2622 71.846 50.2622 71.0282C50.2595 70.3404 49.8347 69.8997 48.9334 69.5942Z" fill="white"/>
<path d="M52.0845 71.5158V70.3819L53.9804 70.3519V69.3833L52.0845 69.4099V68.4374L54.1383 68.4122V67.605L50.9785 67.6403V72.5108L54.2965 72.4441V71.4756L52.0845 71.5158Z" fill="white"/>
<path d="M58.4181 70.9807C58.2939 70.5387 58.0879 70.1939 57.7718 70.0648V70.0423C58.0879 69.8902 58.6307 69.4592 58.6307 68.8461C58.6307 68.404 58.4614 68.0716 58.167 67.848C57.8134 67.5827 57.3152 67.4784 56.5756 67.4868C55.9749 67.493 55.4016 67.5421 55.0859 67.6022V72.4307L56.1911 72.4072V70.4777L56.5111 70.4733C56.9699 70.4658 57.1808 70.6501 57.3139 71.2477C57.4628 71.8388 57.5791 72.2203 57.66 72.3798L58.831 72.3564C58.7359 72.0381 58.5715 71.5231 58.4181 70.9807ZM56.6168 69.6679L56.1919 69.6736V68.3338C56.1919 68.3192 56.4156 68.2966 56.6901 68.2931C57.2064 68.2931 57.5132 68.5141 57.5132 68.9562C57.5132 69.3797 57.1782 69.6599 56.6168 69.6665V69.6679Z" fill="white"/>
<path d="M62.3069 67.5177L61.684 69.5365C61.5665 69.9189 61.4573 70.2938 61.3609 70.6921C61.3167 70.8649 61.2774 71.0338 61.2398 71.1938H61.2186C61.1567 70.8759 61.0829 70.5784 61.0046 70.2783C60.9339 70.0184 60.8605 69.792 60.7836 69.5268L60.1855 67.5402L58.9619 67.5535L60.5427 72.3223L61.8374 72.2967L62.1292 71.448L63.4783 67.5049L62.3069 67.5177Z" fill="white"/>
<path d="M65.0395 71.2831V70.1753L66.7777 70.1506V69.2046L65.0395 69.2262V68.2772L66.9355 68.2559V67.4678L64.0918 67.4974V72.2521L67.0933 72.1937V71.2482L65.0395 71.2831Z" fill="white"/>
<g style="mix-blend-mode:multiply" opacity="0.3">
<path d="M73.247 75.0709V78.8873C73.247 80.5152 71.97 81.8867 70.3861 81.9494L32.5977 83.4558C30.7582 83.5287 29.1748 82.1568 29.1748 80.3874V29.5642C29.1748 27.7957 30.7177 26.4561 32.5571 26.5741L34.5856 26.7024C34.5451 28.0739 34.6149 29.4466 34.7942 30.8062C34.8164 30.9728 34.8463 31.1413 34.8736 31.3084C35.5358 35.4922 37.5109 39.7941 42.3448 42.0078C42.8677 42.2475 43.3729 42.4784 43.8604 42.7007C45.8714 43.6265 47.5952 44.4404 49.0737 45.2889C50.9169 46.3411 52.3873 47.4478 53.5645 48.8869C54.4234 49.9338 55.1292 51.1563 55.7137 52.6622C56.8124 55.4958 57.4857 59.3409 57.9325 64.9117C57.9965 65.791 58.1603 66.6595 58.4206 67.499C58.7666 68.5942 59.2689 69.5147 59.8982 70.291C60.0087 70.4299 60.1222 70.5616 60.2421 70.689C60.4742 70.9406 60.7213 71.1768 60.982 71.3964C63.3194 73.3797 66.6838 74.1185 70.0802 74.6265C70.2321 74.6478 70.3836 74.6707 70.5355 74.6915C71.4447 74.8295 72.3548 74.9471 73.247 75.0709Z" fill="#997AF1"/>
</g>
<path d="M126.889 87.232C123.363 94.2004 106.207 130.587 106.248 127.297C106.248 127.297 102.812 126.996 103.178 119.562C103.215 118.81 103.29 117.986 103.413 117.082C104.743 107.231 112 70.2414 114.755 76.339C117.51 82.4367 116.498 85.9058 118.207 80.0178C119.915 74.1297 121.793 68.4312 124.602 71.9919C124.762 72.1953 124.923 72.4023 125.084 72.613C127.732 76.0968 130.212 80.6632 126.889 87.232Z" fill="#D889E0"/>
<g style="mix-blend-mode:multiply" opacity="0.3">
<path d="M126.889 87.2321C123.363 94.2005 106.207 130.587 106.248 127.298C106.248 127.298 102.812 126.997 103.178 119.562C104.468 114.735 109.193 110.656 111.081 108.799C113.917 106.014 115.077 105.67 114.727 99.2063C114.377 92.7422 115.962 90.0316 121.688 81.8568C124.272 78.167 125.029 74.9887 125.084 72.6113C127.732 76.0969 130.212 80.6632 126.889 87.2321Z" fill="#A76AE6"/>
</g>
<path d="M140.413 111.247C132.901 116.808 113.198 126.671 107.694 126.936C106.458 126.996 105.937 126.571 106.431 125.508C106.431 125.508 120.91 74.2745 135.832 75.3986C137.829 75.5489 140.557 76.1669 142.126 77.4886C142.386 77.7076 142.627 77.9481 142.847 78.2074C146.186 82.1739 142.449 88.8316 140.033 92.3335C139.136 93.6375 137.904 94.6176 136.92 95.8469C136.085 96.8915 135.594 98.3922 137.285 98.554C138.835 98.7008 140.153 97.086 141.617 96.8322C143.278 96.5467 144.368 97.5284 145.033 99.6229C146.436 104.033 144.022 108.576 140.413 111.247Z" fill="#FF8695"/>
<g style="mix-blend-mode:multiply" opacity="0.3">
<path d="M140.413 111.247C132.902 116.808 113.199 126.671 107.694 126.936C108.667 125.438 109.791 123.777 111.083 121.952C118.753 111.117 128.902 115.41 126.416 105.994C123.929 96.5785 126.03 88.1053 134.597 85.3996C139.666 83.7971 141.882 80.5719 142.847 78.2065C146.187 82.173 142.45 88.8307 140.034 92.3326C139.136 93.6367 137.905 94.6167 136.921 95.846C136.085 96.8906 135.595 98.3913 137.286 98.5531C138.836 98.6999 140.154 97.0851 141.618 96.8314C143.279 96.5458 144.368 97.5276 145.034 99.622C146.437 104.033 144.023 108.576 140.413 111.247Z" fill="#FC6A91"/>
</g>
<path d="M136.14 127.849H134.113L131.603 121.468C131.603 121.468 136.209 121.791 136.14 127.849Z" fill="#6A6A6A"/>
<path d="M88.832 138.883L102.025 136.438C102.025 136.438 103.223 126.255 97.326 125.288C91.4295 124.32 88.2631 132.208 88.832 138.883Z" fill="#6A6A6A"/>
<path d="M89.4808 126.904H89.4764C89.0648 126.946 88.6873 127.107 88.312 127.338C87.9513 127.521 87.5163 127.735 87.5163 128.012V128.018C86.127 129.463 85.2124 132.134 85.2071 135.124C85.1995 139.107 86.8201 142.326 88.9574 142.697C88.956 142.698 88.9545 142.699 88.953 142.7C89.0975 142.721 90.8878 143.369 96.5315 142.73C96.6813 140.306 96.7693 126.584 96.7693 126.584C96.7693 126.584 92.2577 126.351 89.4808 126.904Z" fill="#414141"/>
<path d="M100.748 134.36C100.748 138.916 98.639 142.691 96.0831 142.786C93.5762 142.879 91.583 139.384 91.5879 134.985C91.5928 130.586 93.5899 126.834 96.0919 126.586C98.643 126.333 100.748 129.81 100.748 134.36Z" fill="url(#paint2_linear_1709_3309)"/>
<path d="M98.7494 134.464C98.7494 137.697 97.3428 140.384 95.6303 140.463C93.9399 140.541 92.5882 138.042 92.5908 134.885C92.5935 131.728 93.9492 129.05 95.6374 128.899C97.3477 128.744 98.7498 131.234 98.7494 134.464Z" fill="#E1E1E1"/>
<path d="M126.639 122.054H126.635C126.267 122.1 125.913 122.227 125.601 122.427C125.308 122.585 125.387 122.771 124.866 123.008V123.013C123.997 124.258 123.085 126.558 123.081 129.134C123.075 132.565 124.435 135.338 126.168 135.658L126.187 135.66C126.304 135.677 127.768 136.234 132.346 135.686C132.467 133.598 132.545 121.778 132.545 121.778C132.545 121.778 128.891 121.577 126.639 122.054Z" fill="#414141"/>
<path d="M135.779 128.476C135.779 132.4 134.068 135.651 131.995 135.734C129.961 135.814 128.344 132.803 128.348 129.015C128.351 125.226 129.972 121.994 132.002 121.78C134.073 121.563 135.779 124.556 135.779 128.476Z" fill="url(#paint3_linear_1709_3309)"/>
<path d="M134.158 128.566C134.158 131.351 133.017 133.665 131.628 133.733C130.258 133.8 129.16 131.648 129.162 128.928C129.164 126.209 130.264 123.904 131.633 123.772C133.021 123.641 134.159 125.784 134.158 128.566Z" fill="#E1E1E1"/>
<path d="M39.6027 123.7H39.5974C39.0859 123.7 38.6965 123.958 38.227 124.187C37.7748 124.361 37.4839 124.708 37.3102 125.005V125.012C35.3992 126.562 34.3096 129.667 34.3096 133.243C34.3096 138.001 36.3377 141.923 39.0174 142.461L38.9917 142.464C39.1686 142.495 41.37 143.332 48.1302 142.832C48.3044 140.072 48.3954 124.28 48.3954 124.28C48.3954 124.28 43.0117 123.353 39.6027 123.7Z" fill="#414141"/>
<path d="M47.5958 142.877C50.5731 142.877 52.9866 138.721 52.9866 133.595C52.9866 128.469 50.5731 124.313 47.5958 124.313C44.6186 124.313 42.2051 128.469 42.2051 133.595C42.2051 138.721 44.6186 142.877 47.5958 142.877Z" fill="#868C97"/>
<path d="M47.06 140.195C49.0688 140.195 50.6972 137.223 50.6972 133.558C50.6972 129.892 49.0688 126.921 47.06 126.921C45.0513 126.921 43.4229 129.892 43.4229 133.558C43.4229 137.223 45.0513 140.195 47.06 140.195Z" fill="url(#paint4_linear_1709_3309)"/>
<path d="M137.885 124.275C137.977 124.695 137.967 125.132 137.855 125.548C137.742 125.963 137.531 126.346 137.239 126.662L136.141 127.851C135.84 124.344 134.027 121.647 131.831 121.647C129.429 121.647 127.477 124.885 127.477 128.878C127.474 129.78 127.577 130.679 127.787 131.556L127.306 131.754L101.378 136.556C101.448 136.022 101.578 135.468 101.578 134.906C101.578 134.397 101.586 133.901 101.586 133.415V133.411C100.717 129.277 98.6025 126.129 95.6974 126.129C92.4496 126.129 89.7695 130.063 89.7695 134.908C89.7695 136.234 89.9463 137.487 90.2964 138.613L86.4196 139.328C86.4143 139.36 86.406 139.39 86.3949 139.42C86.2733 139.553 85.334 140.378 80.7548 140.378H30.1875C27.8995 140.378 26.1914 138.382 26.1914 136.094V135.905C26.1914 135.029 26.6136 134.228 27.3978 133.835C27.3978 133.835 25.9978 129.823 27.1078 125.024C27.5525 123.107 28.3694 121.066 29.8445 119.105C30.7781 117.87 31.87 116.763 33.0922 115.812C33.0922 115.812 38.8464 111.038 49.4038 109.797C49.4038 109.797 58.1564 103.436 66.1637 99.2187C70.0898 97.1482 74.4631 96.0707 78.9017 96.0801H108.174C113.257 96.0792 118.239 97.495 122.562 100.169L130.187 104.879C130.187 104.879 132.008 105.964 133.863 108.562C135.975 111.515 138.131 116.426 137.706 123.916L137.882 124.274L137.885 124.275Z" fill="#0043A4"/>
<path d="M86.4091 139.328C86.4058 139.359 86.3994 139.389 86.3901 139.419C86.0365 139.64 85.5944 140.725 73.8638 140.377H30.1894C27.9014 140.377 26.1933 138.381 26.1933 136.093V135.905C26.1933 135.853 26.1226 135.805 26.1261 135.754C26.1769 134.938 26.6234 134.207 27.3638 133.834L78.2171 134.315C78.2171 134.315 83.0133 133.441 84.6582 134.302C84.8885 134.423 85.0534 134.577 85.1365 134.772C85.8252 136.365 86.7296 138.582 86.4091 139.328Z" fill="#0043A4"/>
<g opacity="0.8">
<path opacity="0.8" d="M38.8414 125.126V125.789C38.8412 126.043 38.7896 126.295 38.6896 126.529C38.5896 126.763 38.4433 126.975 38.2594 127.151C38.0755 127.327 37.858 127.464 37.6198 127.554C37.3816 127.643 37.1277 127.684 36.8734 127.673L31.4362 127.443C30.1301 127.388 28.8923 126.844 27.9679 125.92L27.0723 125.024C27.5643 122.879 28.503 120.862 29.8271 119.105C29.8461 119.108 29.8656 119.108 29.8846 119.112L32.4953 121.172C33.8778 122.264 35.5168 122.983 37.2562 123.261C37.6988 123.333 38.1013 123.56 38.3918 123.902C38.6822 124.243 38.8416 124.677 38.8414 125.126Z" fill="white"/>
</g>
<g style="mix-blend-mode:multiply" opacity="0.4">
<path style="mix-blend-mode:multiply" opacity="0.4" d="M62.9854 124.367C62.6273 124.797 62.0306 125.147 61.6593 125.148L41.2985 125.144C40.9294 125.144 40.4069 124.793 40.1386 124.364C39.8733 123.938 39.9944 123.595 40.4104 123.595H62.8709C63.2851 123.595 63.3439 123.939 62.9854 124.366V124.367Z" fill="url(#paint5_linear_1709_3309)"/>
<path style="mix-blend-mode:multiply" opacity="0.4" d="M60.6904 127.148C60.3125 127.599 59.7621 127.968 59.4615 127.968L42.9121 127.962C42.6111 127.962 42.1372 127.594 41.8547 127.143C41.5731 126.696 41.6337 126.335 41.9798 126.336L60.7311 126.34C61.0799 126.34 61.0648 126.7 60.6904 127.148Z" fill="url(#paint6_linear_1709_3309)"/>
</g>
<path opacity="0.8" d="M68.8986 127.813C67.6609 127.781 66.6689 126.882 66.6689 125.785V125.115C66.6689 124.072 67.5676 123.198 68.7404 123.096L70.9506 122.903L84.1126 119.437L83.8244 121.096C83.3881 123.603 81.4732 125.712 78.8014 126.629L76.8471 127.299C75.5475 127.742 74.1794 127.951 72.8068 127.914L68.8986 127.813Z" fill="white"/>
<g style="mix-blend-mode:soft-light" opacity="0.4">
<path d="M84.6461 134.355L79.1558 135.861H26.0508C26.1021 134.992 26.5852 134.259 27.3243 133.888L78.1979 134.368C78.1979 134.368 83.0012 133.494 84.6461 134.355Z" fill="white"/>
</g>
<path d="M119.229 130.649H119.219C119.043 130.302 118.904 130.409 118.91 130.233C118.913 130.126 119.226 119.437 118.91 115.105C118.637 111.351 118.008 110.671 117.952 110.62C117.884 110.579 117.833 110.516 117.807 110.441C117.782 110.366 117.783 110.285 117.812 110.211C117.843 110.132 117.904 110.068 117.982 110.033C118.06 109.999 118.148 109.997 118.228 110.027C118.459 110.119 119.238 110.75 119.548 115.017C119.865 119.382 119.552 130.146 119.548 130.253C119.543 130.427 119.401 130.649 119.229 130.649Z" fill="#868C97"/>
<path style="mix-blend-mode:multiply" opacity="0.5" d="M137.887 124.275L137.71 123.917C138.135 116.427 135.98 111.515 133.869 108.562C132.538 108.639 130.756 109.301 130.89 112.319C131.101 117.09 130.148 119.554 126.523 121.735C124.801 122.768 122.914 123.658 121.388 124.979C120.026 126.163 119.389 127.98 118.001 129.094C115.652 130.975 112.466 130.14 109.73 130.015C107.238 129.9 101.589 129.782 101.589 133.406V133.413C101.589 133.899 101.581 134.395 101.581 134.904C101.581 135.467 101.448 136.021 101.376 136.555L127.307 131.752L127.788 131.554C127.579 130.677 127.475 129.778 127.479 128.876C127.479 124.883 129.431 121.645 131.834 121.645C134.029 121.645 135.843 124.342 136.144 127.849L137.242 126.66C137.533 126.344 137.744 125.962 137.856 125.547C137.968 125.131 137.979 124.695 137.887 124.275Z" fill="#C4C4C4"/>
<path d="M102.831 98.3364C102.831 98.3364 99.4175 107.073 98.5666 108.352C98.4866 108.471 98.384 108.647 98.2625 108.75C97.0818 109.736 94.193 109.976 94.193 109.976H51.6396C61.1326 102.68 69.2367 98.3369 69.2367 98.3369L102.831 98.3364Z" fill="#F4F1F1"/>
<path d="M128.989 105.679C128.989 105.679 124.449 107.536 118.351 109.282C118.103 108.115 117.757 106.971 117.317 105.862C116.37 103.459 114.764 100.646 112.038 98.167C114.486 98.3401 116.901 98.8346 119.22 99.6377C122.415 100.752 125.81 102.617 128.989 105.679Z" fill="#F4F1F1"/>
<path d="M116.79 109.716C113.75 110.539 110.41 111.3 107.095 111.787C105.207 112.062 103.329 112.247 101.522 112.302C100.994 112.318 100.469 112.324 99.9541 112.318C99.9543 112.315 99.9554 112.313 99.9572 112.311C100.037 111.972 103.273 98.7134 106.273 98.32C107.32 98.1849 108.375 98.109 109.431 98.0928C112.672 100.489 114.547 103.468 115.619 106.015C116.126 107.209 116.517 108.448 116.79 109.716Z" fill="#F4F1F1"/>
<path style="mix-blend-mode:multiply" opacity="0.3" d="M98.2625 108.746C97.0818 109.731 94.193 109.976 94.193 109.976H51.6396C61.1326 102.68 69.2367 98.3364 69.2367 98.3364H69.8383C70.779 98.6839 71.7007 99.5211 72.5163 100.682C75.8104 105.376 93.9976 101.819 98.2625 108.746Z" fill="#C6C6C6"/>
<path opacity="0.3" d="M101.52 112.302C100.992 112.319 100.467 112.325 99.9521 112.319C99.9523 112.316 99.9534 112.314 99.9552 112.312C100.38 112.309 100.909 112.306 101.52 112.302Z" fill="url(#paint7_linear_1709_3309)"/>
<path style="mix-blend-mode:multiply" opacity="0.3" d="M115.62 106.016C116.126 107.21 116.517 108.449 116.789 109.717C113.749 110.539 110.409 111.301 107.095 111.787C107.562 111.323 107.993 110.738 108.371 110.005C110.018 106.822 112.926 106.275 115.62 106.016Z" fill="url(#paint8_linear_1709_3309)"/>
<path style="mix-blend-mode:multiply" opacity="0.3" d="M128.99 105.679C128.99 105.679 124.45 107.536 118.352 109.282C118.104 108.115 117.759 106.971 117.318 105.862C118.944 105.699 120.349 105.446 121.151 104.479C122.558 102.776 120.812 100.871 119.221 99.6377C122.417 100.752 125.811 102.617 128.99 105.679Z" fill="#A7A6A6"/>
<path d="M99.8358 112.944C99.8358 112.944 101.183 107.627 103.097 107.414C105.011 107.202 110.469 105.642 110.965 108.265C111.461 110.888 110.469 112.196 107.704 112.357C104.94 112.518 103.096 112.357 103.096 112.357L101.821 113.723C101.821 113.723 99.765 115.139 99.8358 112.944Z" fill="#6A6A6A"/>
<path d="M99.1971 112.944C99.1971 112.944 100.544 107.627 102.458 107.414C104.372 107.202 109.831 105.642 110.327 108.265C110.822 110.888 109.831 112.196 107.066 112.357C104.301 112.518 102.458 112.357 102.458 112.357L101.182 113.723C101.182 113.723 99.1264 115.139 99.1971 112.944Z" fill="#868C97"/>
</g>
<defs>
<linearGradient id="paint0_linear_1709_3309" x1="96.6465" y1="86.08" x2="147.677" y2="86.08" gradientUnits="userSpaceOnUse">
<stop stop-color="#D8DEE8"/>
<stop offset="1" stop-color="white"/>
</linearGradient>
<linearGradient id="paint1_linear_1709_3309" x1="156073" y1="1930.89" x2="156190" y2="6043.24" gradientUnits="userSpaceOnUse">
<stop stop-color="#E4E4E4"/>
<stop offset="1" stop-color="#FB6FBB"/>
</linearGradient>
<linearGradient id="paint2_linear_1709_3309" x1="103.357" y1="120.592" x2="91.5839" y2="143.672" gradientUnits="userSpaceOnUse">
<stop stop-color="#D7DADF"/>
<stop offset="0.9999" stop-color="#434446"/>
<stop offset="1" stop-color="#9B9DA1"/>
</linearGradient>
<linearGradient id="paint3_linear_1709_3309" x1="26218.8" y1="36985.9" x2="22283.8" y2="41090.4" gradientUnits="userSpaceOnUse">
<stop stop-color="#A5A7AB"/>
<stop offset="1" stop-color="#5C5E60"/>
</linearGradient>
<linearGradient id="paint4_linear_1709_3309" x1="9965.33" y1="40231.8" x2="11162.5" y2="40231.8" gradientUnits="userSpaceOnUse">
<stop stop-color="#444B8C"/>
<stop offset="1" stop-color="#3E4177"/>
</linearGradient>
<linearGradient id="paint5_linear_1709_3309" x1="29970.4" y1="4492.83" x2="42171.4" y2="4492.83" gradientUnits="userSpaceOnUse">
<stop stop-color="#747474"/>
<stop offset="0.05" stop-color="#FDBA46"/>
<stop offset="0.14" stop-color="#FFC244"/>
<stop offset="0.32" stop-color="#FFC444"/>
<stop offset="0.48" stop-color="#FDB946"/>
<stop offset="0.78" stop-color="#F99C4D"/>
<stop offset="0.87" stop-color="#F8924F"/>
<stop offset="1" stop-color="#F8924F"/>
</linearGradient>
<linearGradient id="paint6_linear_1709_3309" x1="25656.1" y1="4820.77" x2="34087.7" y2="4820.77" gradientUnits="userSpaceOnUse">
<stop stop-color="#5C5C5C"/>
<stop offset="0.05" stop-color="#FDBA46"/>
<stop offset="0.14" stop-color="#FFC244"/>
<stop offset="0.32" stop-color="#FFC444"/>
<stop offset="0.48" stop-color="#FDB946"/>
<stop offset="0.78" stop-color="#F99C4D"/>
<stop offset="0.87" stop-color="#F8924F"/>
<stop offset="1" stop-color="#F8924F"/>
</linearGradient>
<linearGradient id="paint7_linear_1709_3309" x1="4242.74" y1="159.96" x2="4242.75" y2="159.28" gradientUnits="userSpaceOnUse">
<stop stop-color="#444B8C"/>
<stop offset="1" stop-color="#3E4177"/>
</linearGradient>
<linearGradient id="paint8_linear_1709_3309" x1="27652.4" y1="14914.7" x2="28485.4" y2="13535.1" gradientUnits="userSpaceOnUse">
<stop stop-color="#939393"/>
<stop offset="1" stop-color="#3E4177"/>
</linearGradient>
<clipPath id="clip0_1709_3309">
<rect width="164" height="164" fill="white"/>
</clipPath>
</defs>
</svg>
