<svg width="66" height="66" viewBox="0 0 66 66" fill="none" xmlns="http://www.w3.org/2000/svg">
<g clip-path="url(#clip0)">
<path fill-rule="evenodd" clip-rule="evenodd" d="M13.6552 0V66H9.10348C6.58963 66 4.55176 63.9621 4.55176 61.4483V4.55172C4.55176 2.03788 6.58963 0 9.10348 0H13.6552Z" fill="white"/>
<path fill-rule="evenodd" clip-rule="evenodd" d="M56.8964 2.27586V63.7241C56.8927 64.9795 55.8759 65.9962 54.6205 66H13.655V0H54.6205C55.8759 0.00374925 56.8927 1.02049 56.8964 2.27586Z" fill="white"/>
<path fill-rule="evenodd" clip-rule="evenodd" d="M56.8962 5.6897H58.0342C59.9196 5.6897 61.448 7.2181 61.448 9.10349V13.6552C61.448 15.5406 59.9196 17.069 58.0342 17.069H56.8962V5.6897Z" fill="white"/>
<path fill-rule="evenodd" clip-rule="evenodd" d="M56.8962 17.0691H58.0342C59.9196 17.0691 61.448 18.5975 61.448 20.4829V25.0346C61.448 26.92 59.9196 28.4484 58.0342 28.4484H56.8962V17.0691Z" fill="white"/>
<path fill-rule="evenodd" clip-rule="evenodd" d="M56.8962 28.4482H58.0342C59.9196 28.4482 61.448 29.9766 61.448 31.862V36.4138C61.448 38.2991 59.9196 39.8275 58.0342 39.8275H56.8962V28.4482Z" fill="white"/>
<path fill-rule="evenodd" clip-rule="evenodd" d="M56.8962 39.8276H58.0342C59.9196 39.8276 61.448 41.356 61.448 43.2414V47.7932C61.448 49.6785 59.9196 51.2069 58.0342 51.2069H56.8962V39.8276Z" fill="white"/>
<path d="M48.9312 5.6897H21.6208C20.3639 5.6897 19.345 6.70863 19.345 7.96556V35.2759C19.345 36.5328 20.3639 37.5518 21.6208 37.5518H48.9312C50.1881 37.5518 51.207 36.5328 51.207 35.2759V7.96556C51.207 6.70863 50.1881 5.6897 48.9312 5.6897Z" fill="#162647"/>
<path fill-rule="evenodd" clip-rule="evenodd" d="M45.5169 44.3794H25.0342C24.4057 44.3794 23.8962 43.8699 23.8962 43.2414C23.8962 42.613 24.4057 42.1035 25.0342 42.1035H45.5169C46.1454 42.1035 46.6549 42.613 46.6549 43.2414C46.6549 43.8699 46.1454 44.3794 45.5169 44.3794Z" fill="#35495E"/>
<path fill-rule="evenodd" clip-rule="evenodd" d="M40.9657 48.9311H29.5864C28.958 48.9311 28.4485 48.4217 28.4485 47.7932C28.4485 47.1647 28.958 46.6553 29.5864 46.6553H40.9657C41.5942 46.6553 42.1037 47.1647 42.1037 47.7932C42.1037 48.4217 41.5942 48.9311 40.9657 48.9311Z" fill="#35495E"/>
<path fill-rule="evenodd" clip-rule="evenodd" d="M9.10351 7.96554C8.47505 7.96554 7.96558 7.45607 7.96558 6.82761V4.55175C7.96558 3.92329 8.47505 3.41382 9.10351 3.41382C9.73197 3.41382 10.2414 3.92329 10.2414 4.55175V6.82761C10.2414 7.45607 9.73197 7.96554 9.10351 7.96554Z" fill="#E2E5EA"/>
<path fill-rule="evenodd" clip-rule="evenodd" d="M9.10351 55.7587C8.47505 55.7587 7.96558 55.2492 7.96558 54.6208V11.3794C7.96558 10.7509 8.47505 10.2415 9.10351 10.2415C9.73197 10.2415 10.2414 10.7509 10.2414 11.3794V54.6208C10.2414 55.2492 9.73197 55.7587 9.10351 55.7587Z" fill="#E2E5EA"/>
<path fill-rule="evenodd" clip-rule="evenodd" d="M9.10351 62.5864C8.47505 62.5864 7.96558 62.0769 7.96558 61.4485V59.1726C7.96558 58.5441 8.47505 58.0347 9.10351 58.0347C9.73197 58.0347 10.2414 58.5441 10.2414 59.1726V61.4485C10.2414 62.0769 9.73197 62.5864 9.10351 62.5864Z" fill="#E2E5EA"/>
<path fill-rule="evenodd" clip-rule="evenodd" d="M49.8756 37.3469C49.5802 37.4856 49.2573 37.5556 48.9311 37.5517H21.6207C21.3157 37.5507 21.0139 37.4888 20.7332 37.3696C21.0658 36.2378 21.5976 35.1742 22.3035 34.229C24.0306 32.0187 26.6788 30.7261 29.4838 30.7241H41.1363C43.9413 30.7261 46.5895 32.0187 48.3166 34.229C49.0166 35.1679 49.5444 36.2235 49.8756 37.3469Z" fill="#ECF0F1"/>
<path fill-rule="evenodd" clip-rule="evenodd" d="M43.2758 18.207V20.4828C38.724 20.4828 37.5861 15.9311 37.5861 15.9311C37.5861 20.4828 27.3447 19.3449 27.3447 19.3449V18.207C27.3447 13.8077 30.911 10.2415 35.3102 10.2415C39.7095 10.2415 43.2758 13.8077 43.2758 18.207Z" fill="#ECF0F1"/>
<path fill-rule="evenodd" clip-rule="evenodd" d="M43.2758 20.4829V23.8967C43.2758 28.2959 39.7095 31.8622 35.3102 31.8622C30.911 31.8622 27.3447 28.2959 27.3447 23.8967V19.3449C27.3447 19.3449 37.5861 20.4829 37.5861 15.9312C37.5861 15.9312 38.724 20.4829 43.2758 20.4829Z" fill="white"/>
<path fill-rule="evenodd" clip-rule="evenodd" d="M26.7752 19.3447H27.3442V25.0344H26.7752C25.2041 25.0344 23.9304 23.7607 23.9304 22.1896C23.9304 20.6184 25.2041 19.3447 26.7752 19.3447Z" fill="white"/>
<path fill-rule="evenodd" clip-rule="evenodd" d="M43.8444 25.0344H43.2754V19.3448H43.8444C45.4155 19.3448 46.6892 20.6184 46.6892 22.1896C46.6892 23.7608 45.4155 25.0344 43.8444 25.0344Z" fill="white"/>
</g>
<defs>
<clipPath id="clip0">
<rect width="66" height="66" fill="white"/>
</clipPath>
</defs>
</svg>
