<svg width="100" height="100" viewBox="0 0 100 100" fill="none" xmlns="http://www.w3.org/2000/svg">
<path d="M84.375 85.9375H93.75C95.4766 85.9375 96.875 84.5391 96.875 82.8125V71.9406C96.875 68.2563 94.3016 65.0734 90.7 64.3016L75 60.9375L62.1891 44.2844C60.4156 41.9766 57.6688 40.625 54.7594 40.625H35.8656C32.9547 40.625 30.2094 41.9766 28.4344 44.2844L15.625 60.9375L3.125 67.1875V82.8125C3.125 84.5391 4.52344 85.9375 6.25 85.9375H15.625" fill="#3D54BD"/>
<path d="M89.0625 82.8125C89.0625 81.0859 87.6641 79.6875 85.9375 79.6875H15.625C13.8984 79.6875 12.5 81.0859 12.5 82.8125V85.9375H15.625H84.375H89.0625V82.8125Z" fill="#546DED"/>
<path d="M34.375 82.8125H65.625V85.9375H34.375V82.8125Z" fill="#3D54BD"/>
<path d="M87.5 68.75V63.6156L75 60.9375L62.1891 44.2844C60.4156 41.9766 57.6688 40.625 54.7594 40.625H35.8656C34.8125 40.625 33.7828 40.8078 32.8125 41.1422V68.75C32.8125 70.4766 34.2109 71.875 35.9375 71.875H84.375C86.1016 71.875 87.5 70.4766 87.5 68.75Z" fill="#546DED"/>
<path d="M26.5625 96.875C32.6031 96.875 37.5 91.9781 37.5 85.9375C37.5 79.8969 32.6031 75 26.5625 75C20.5219 75 15.625 79.8969 15.625 85.9375C15.625 91.9781 20.5219 96.875 26.5625 96.875Z" fill="#4C506E"/>
<path d="M26.5625 92.1875C30.0143 92.1875 32.8125 89.3893 32.8125 85.9375C32.8125 82.4857 30.0143 79.6875 26.5625 79.6875C23.1107 79.6875 20.3125 82.4857 20.3125 85.9375C20.3125 89.3893 23.1107 92.1875 26.5625 92.1875Z" fill="#363A4F"/>
<path d="M79.6875 62.5V40.625H85.9375V64.0625" fill="#4C506E"/>
<path d="M71.875 40.625H93.75C95.4766 40.625 96.875 39.2266 96.875 37.5V6.25C96.875 4.52344 95.4766 3.125 93.75 3.125H71.875C70.1484 3.125 68.75 4.52344 68.75 6.25V37.5C68.75 39.2266 70.1484 40.625 71.875 40.625Z" fill="#3D54BD"/>
<path d="M77.8672 34.375H96.875V6.25C96.875 4.52344 95.4766 3.125 93.75 3.125H74.7422V31.25C74.7422 32.9766 76.1406 34.375 77.8672 34.375Z" fill="#546DED"/>
<path d="M26.5625 90.625C29.1513 90.625 31.25 88.5263 31.25 85.9375C31.25 83.3487 29.1513 81.25 26.5625 81.25C23.9737 81.25 21.875 83.3487 21.875 85.9375C21.875 88.5263 23.9737 90.625 26.5625 90.625Z" fill="#787FAA"/>
<path d="M23.4375 62.5L32.975 48.875C33.8516 47.6219 35.2859 46.875 36.8156 46.875H53.8094C55.3391 46.875 56.7719 47.6219 57.65 48.875L67.1875 62.5H23.4375Z" fill="#E2E7F6"/>
<path d="M43.75 46.875H46.875V62.5H43.75V46.875Z" fill="#9DA1BF"/>
<path d="M43.75 67.1875H50V70.3125H43.75V67.1875Z" fill="#E2E7F6"/>
<path d="M21.875 67.1875H28.125V70.3125H21.875V67.1875Z" fill="#E2E7F6"/>
<path d="M78.125 31.25H75V12.5C75 11.6375 75.6984 10.9375 76.5625 10.9375H84.375C87.8219 10.9375 90.625 13.7406 90.625 17.1875C90.625 20.6344 87.8219 23.4375 84.375 23.4375H78.125V31.25ZM78.125 20.3125H84.375C86.0984 20.3125 87.5 18.9109 87.5 17.1875C87.5 15.4641 86.0984 14.0625 84.375 14.0625H78.125V20.3125Z" fill="white"/>
<path d="M93.75 15.625C92.8875 15.625 92.1875 14.925 92.1875 14.0625V6.25C92.1875 5.3875 92.8875 4.6875 93.75 4.6875C94.6125 4.6875 95.3125 5.3875 95.3125 6.25V14.0625C95.3125 14.925 94.6125 15.625 93.75 15.625Z" fill="white"/>
<path d="M82.8125 54.6875C82.8125 55.55 83.5125 56.25 84.375 56.25H85.9375V40.625H82.8125V54.6875Z" fill="#787FAA"/>
<path d="M57.65 48.875C56.7719 47.6219 55.3391 46.875 53.8094 46.875H50V56.25C50 57.1125 50.7 57.8125 51.5625 57.8125H63.9063L57.65 48.875Z" fill="white"/>
<path d="M39.0625 57.8125C39.925 57.8125 40.625 57.1125 40.625 56.25V46.875H36.8156C35.2859 46.875 33.8531 47.6219 32.975 48.875L26.7188 57.8125H39.0625Z" fill="white"/>
<path d="M26.5625 89.0625C28.2884 89.0625 29.6875 87.6634 29.6875 85.9375C29.6875 84.2116 28.2884 82.8125 26.5625 82.8125C24.8366 82.8125 23.4375 84.2116 23.4375 85.9375C23.4375 87.6634 24.8366 89.0625 26.5625 89.0625Z" fill="#E2E7F6"/>
<path d="M73.4375 96.875C79.4781 96.875 84.375 91.9781 84.375 85.9375C84.375 79.8969 79.4781 75 73.4375 75C67.3969 75 62.5 79.8969 62.5 85.9375C62.5 91.9781 67.3969 96.875 73.4375 96.875Z" fill="#4C506E"/>
<path d="M73.4375 92.1875C76.8893 92.1875 79.6875 89.3893 79.6875 85.9375C79.6875 82.4857 76.8893 79.6875 73.4375 79.6875C69.9857 79.6875 67.1875 82.4857 67.1875 85.9375C67.1875 89.3893 69.9857 92.1875 73.4375 92.1875Z" fill="#363A4F"/>
<path d="M73.4375 90.625C76.0263 90.625 78.125 88.5263 78.125 85.9375C78.125 83.3487 76.0263 81.25 73.4375 81.25C70.8487 81.25 68.75 83.3487 68.75 85.9375C68.75 88.5263 70.8487 90.625 73.4375 90.625Z" fill="#787FAA"/>
<path d="M73.4375 89.0625C75.1634 89.0625 76.5625 87.6634 76.5625 85.9375C76.5625 84.2116 75.1634 82.8125 73.4375 82.8125C71.7116 82.8125 70.3125 84.2116 70.3125 85.9375C70.3125 87.6634 71.7116 89.0625 73.4375 89.0625Z" fill="#E2E7F6"/>
<path d="M9.375 78.125V64.0625L3.125 67.1875V79.6875H7.8125C8.675 79.6875 9.375 78.9875 9.375 78.125Z" fill="#E1656E"/>
<path d="M3.125 67.1875V76.5625H6.25C7.1125 76.5625 7.8125 75.8625 7.8125 75V64.8438L3.125 67.1875Z" fill="#F29B99"/>
<path d="M92.1875 76.5625H96.875V71.9406C96.875 71.3812 96.7984 70.8422 96.6844 70.3125H92.1875C91.325 70.3125 90.625 71.0125 90.625 71.875V75C90.625 75.8625 91.325 76.5625 92.1875 76.5625Z" fill="#C8CDED"/>
<path d="M93.75 73.4375C93.75 74.3 94.45 75 95.3125 75H96.875V71.9406C96.875 71.3812 96.7984 70.8422 96.6844 70.3125H93.75V73.4375Z" fill="white"/>
<path d="M4.6875 73.4375C5.55 73.4375 6.25 72.7375 6.25 71.875V70.3125C6.25 69.45 5.55 68.75 4.6875 68.75H3.125V73.4375H4.6875Z" fill="#E1656E"/>
</svg>
