<svg width="83" height="83" viewBox="0 0 83 83" fill="none" xmlns="http://www.w3.org/2000/svg">
<g clip-path="url(#clip0)">
<path d="M41.4999 0C25.0515 0 11.6697 13.3818 11.6697 29.8302C11.6697 35.0454 13.2087 41.0826 16.2439 47.7738C18.6433 53.0634 21.9828 58.7854 26.17 64.7804C33.2782 74.9579 40.4906 82.5302 40.5626 82.6054C41.0661 83.1316 41.9336 83.1316 42.4372 82.6054C42.5092 82.5302 49.7218 74.9581 56.8298 64.7804C61.0169 58.7852 64.3565 53.0634 66.7559 47.7738C69.7911 41.0826 71.3301 35.0454 71.3301 29.8302C71.3301 13.3818 57.9483 0 41.4999 0Z" fill="#EE2D24"/>
<path d="M31.3579 63.4891C27.1707 57.494 23.8311 51.7722 21.4317 46.4825C18.3966 39.7913 16.8575 33.7542 16.8575 28.539C16.8575 15.507 25.2583 4.40202 36.9283 0.350098C22.6422 2.55657 11.6697 14.9359 11.6697 29.8302C11.6697 35.0454 13.2087 41.0825 16.2439 47.7737C18.6433 53.0634 21.9828 58.7853 26.17 64.7803C33.2782 74.9579 40.4906 82.5301 40.5626 82.6054C41.0661 83.1316 41.9336 83.1316 42.4372 82.6054C42.4616 82.5799 43.3006 81.6989 44.6744 80.1523C42.3969 77.6526 36.8467 71.3482 31.3579 63.4891Z" fill="#D02018"/>
<path d="M41.5002 7.78174C29.3428 7.78174 19.4517 17.6725 19.4517 29.8302C19.4517 41.9879 29.3426 51.8787 41.5002 51.8787C53.6577 51.8787 63.5487 41.9879 63.5487 29.8302C63.5487 17.6725 53.6576 7.78174 41.5002 7.78174Z" fill="white"/>
<path d="M27.8732 31.9441L31.9712 28.8706C32.2293 28.6771 32.5906 28.7027 32.8187 28.9309L37.1502 33.2625C37.4035 33.5157 37.8141 33.5157 38.0673 33.2625L51.3466 19.9831C51.6256 19.7042 52.0872 19.7369 52.3238 20.0525L55.4158 24.1753C55.6148 24.4408 55.5814 24.8137 55.3383 25.0395L38.0368 41.105C37.7935 41.331 37.4185 41.3365 37.1686 41.1178L27.8348 32.9508C27.5252 32.6794 27.5435 32.1914 27.8732 31.9441Z" fill="#48484A"/>
</g>
<defs>
<clipPath id="clip0">
<rect width="83" height="83" fill="white"/>
</clipPath>
</defs>
</svg>
