<svg width="157" height="157" viewBox="0 0 157 157" fill="none" xmlns="http://www.w3.org/2000/svg">
<g clip-path="url(#clip0)">
<path d="M78.6091 156.683C121.782 156.683 156.781 121.684 156.781 78.5109C156.781 35.338 121.782 0.339355 78.6091 0.339355C35.4361 0.339355 0.4375 35.338 0.4375 78.5109C0.4375 121.684 35.4361 156.683 78.6091 156.683Z" fill="#71BF45"/>
<path d="M156.78 78.5111C156.78 121.506 121.603 156.683 78.6086 156.683C53.6916 156.683 31.7059 145.446 17.5371 127.369C30.7285 138.117 47.8286 144.469 66.3942 144.469C109.389 144.469 144.566 109.291 144.566 66.297C144.566 47.7315 138.214 30.6314 127.466 17.4399C145.543 31.608 156.78 53.5937 156.78 78.5111Z" fill="#5FB82D"/>
<path d="M121.115 56.0361L70.3035 111.733C66.8834 115.642 61.0207 115.642 57.6006 111.733L36.1034 87.7934C33.172 84.3733 33.172 78.9991 36.5918 75.579C40.012 72.6477 45.3861 72.6476 48.8063 76.0675L63.952 93.1675L108.412 44.799C111.832 41.3788 117.206 40.8903 120.626 44.3105C124.046 47.2418 124.046 53.1048 121.115 56.0361Z" fill="white"/>
</g>
<defs>
<clipPath id="clip0">
<rect width="156.343" height="156.343" fill="white" transform="translate(0.4375 0.339355)"/>
</clipPath>
</defs>
</svg>
