<svg width="50" height="50" viewBox="0 0 50 50" fill="none" xmlns="http://www.w3.org/2000/svg">
<path d="M47.0239 33.8899L49.9551 15.1742C50.2599 13.275 48.9676 11.488 47.0683 11.1823L7.51649 4.83408C5.61728 4.52929 3.83037 5.82157 3.52558 7.72079L2.12012 16.4734V33.781L47.0239 33.8899Z" fill="#146AA8"/>
<path d="M47.0689 11.1824L35.8353 9.37988C28.2905 20.9243 16.0937 28.9202 6.74023 33.7924L47.0244 33.89L49.9556 15.1743C50.2604 13.275 48.9681 11.4881 47.0689 11.1824Z" fill="#126099"/>
<path d="M3.48329 15.6025H43.541C45.4647 15.6025 47.0243 17.1622 47.0243 19.0858V41.7272C47.0243 43.6508 45.4647 45.2105 43.541 45.2105H3.48329C1.55967 45.2104 0 43.6508 0 41.7272V19.0858C0 17.1622 1.55967 15.6025 3.48329 15.6025Z" fill="#4398D1"/>
<path d="M43.5413 15.6025H42.8447C34.6241 30.1967 19.2638 40.2076 9.88672 45.2104H43.5413C45.465 45.2104 47.0246 43.6507 47.0246 41.7271V19.0858C47.0246 17.1622 45.465 15.6025 43.5413 15.6025Z" fill="#3E8CC7"/>
<path d="M13.0617 19.957H4.35352V26.9236H13.0617V19.957Z" fill="#FDB62F"/>
<path d="M6.96601 22.5693H4.35352V24.3109H6.96601V22.5693Z" fill="#FD7B2F"/>
<path d="M13.0617 22.5693H10.4492V24.3109H13.0617V22.5693Z" fill="#FD7B2F"/>
<path d="M38.316 40.8566C40.7207 40.8566 42.6701 38.9072 42.6701 36.5025C42.6701 34.0978 40.7207 32.1484 38.316 32.1484C35.9113 32.1484 33.9619 34.0978 33.9619 36.5025C33.9619 38.9072 35.9113 40.8566 38.316 40.8566Z" fill="#FDB62F"/>
<path d="M33.0914 40.8566C35.4961 40.8566 37.4455 38.9072 37.4455 36.5025C37.4455 34.0978 35.4961 32.1484 33.0914 32.1484C30.6867 32.1484 28.7373 34.0978 28.7373 36.5025C28.7373 38.9072 30.6867 40.8566 33.0914 40.8566Z" fill="#DE4C3C"/>
<path d="M8.70732 33.0195H3.48242V34.7611H8.70732V33.0195Z" fill="#87CED9"/>
<path d="M17.4153 33.0195H12.1904V34.7611H17.4153V33.0195Z" fill="#87CED9"/>
<path d="M26.1243 33.0195H20.8994V34.7611H26.1243V33.0195Z" fill="#87CED9"/>
<path d="M26.1238 38.2441H3.48242V39.9857H26.1238V38.2441Z" fill="#87CED9"/>
<path d="M32.2201 19.957H30.4785V23.4403H32.2201V19.957Z" fill="#87CED9"/>
<path d="M35.7025 19.957H33.9609V23.4403H35.7025V19.957Z" fill="#87CED9"/>
<path d="M39.1859 19.957H37.4443V23.4403H39.1859V19.957Z" fill="#87CED9"/>
<path d="M42.6693 19.957H40.9277V23.4403H42.6693V19.957Z" fill="#87CED9"/>
</svg>
