<svg width="73" height="73" viewBox="0 0 73 73" fill="none" xmlns="http://www.w3.org/2000/svg">
<g clip-path="url(#clip0)">
<path d="M70.2217 41.4248C70.1932 41.4248 70.1701 41.4016 70.1701 41.3732V40.4563L69.0495 39.0551V33.9026L70.1701 31.7181V30.443C70.1701 29.3846 69.8885 28.3454 69.352 27.4315L64.7249 19.5452C63.6562 17.7248 61.7031 16.606 59.5907 16.606H33.4305C32.465 16.606 31.5305 16.9553 30.8023 17.5892L14.5566 31.7225V51.5398H71.7164C72.4255 51.5398 73.0003 50.9649 73.0003 50.2559V44.2034C73.0003 42.6687 71.7563 41.4248 70.2217 41.4248Z" fill="white"/>
<path d="M14.5564 31.7227H6.65981C4.2848 31.7227 2.20136 32.9678 1.02241 34.8397L1.67807 35.4966L1.29482 38.5628L0 39.2979V50.2634C0 50.968 0.570462 51.54 1.27654 51.54H14.5564L22.8975 48.4891V37.0683L14.5564 31.7227Z" fill="white"/>
<path d="M14.5566 40.6602V51.5398L21.8714 48.8643C21.4362 44.8247 18.4473 41.5406 14.5566 40.6602Z" fill="#F9F9F9"/>
<path d="M12.4685 40.426C12.4008 40.426 12.3333 40.4267 12.2661 40.4282C11.2508 40.45 10.5851 39.3885 11.0205 38.4709C12.0889 36.2193 14.3829 34.6616 17.0403 34.6616H19.1422L14.5564 31.7227H6.65981C4.28436 31.7227 2.20078 32.9674 1.02182 34.8391L1.67807 35.4966L1.29482 38.5628L0 39.2979V50.2634C0 50.968 0.570462 51.54 1.27654 51.54H10.3805V48.4891H21.8217C21.145 43.9332 17.2097 40.426 12.4685 40.426Z" fill="#FAF9F9"/>
<path d="M17.0406 34.6615H29.3811C31.438 34.6615 33.4049 33.818 34.8226 32.3279L48.9953 17.4326C49.44 17.0455 49.9621 16.7662 50.5207 16.606H33.4305C32.465 16.606 31.5305 16.9553 30.8023 17.5892L14.5566 31.7225V35.1423C15.3245 34.8332 16.1622 34.6615 17.0406 34.6615Z" fill="#F9F9F9"/>
<path d="M40.2168 50.9903C40.0567 50.9903 39.8942 50.9553 39.7401 50.8815C39.1894 50.6178 38.9568 49.9575 39.2205 49.407L40.5483 46.6343L42.6221 42.0088C42.6456 41.9562 42.6576 41.9003 42.6576 41.8425V26.6324C42.6576 26.0218 43.1526 25.5269 43.7631 25.5269C44.3737 25.5269 44.8687 26.0218 44.8687 26.6324V41.8425C44.8687 42.2141 44.7916 42.5744 44.6396 42.9134L42.5602 47.5516C42.5563 47.56 42.5525 47.5684 42.5484 47.5768L41.2145 50.3622C41.0248 50.7587 40.6291 50.9903 40.2168 50.9903Z" fill="#F9F9F9"/>
<path d="M73 47.0986V50.2561C73 50.9651 72.4251 51.54 71.7161 51.54H14.5564H1.27654C0.570462 51.54 0 50.968 0 50.2634V47.0986H73Z" fill="#FAF9F9"/>
<path d="M12.4685 47.0986H0V50.2634C0 50.968 0.570462 51.54 1.27654 51.54H12.4685V47.0986Z" fill="#E2E2E2"/>
<path d="M21.5077 47.0986H16.1306V51.54H21.7788C21.8741 51.002 21.9268 50.4493 21.9268 49.8843C21.9269 48.9151 21.7798 47.9797 21.5077 47.0986Z" fill="#E2E2E2"/>
<path d="M12.4686 56.3947C16.0642 56.3947 18.9789 53.4799 18.9789 49.8844C18.9789 46.2888 16.0642 43.374 12.4686 43.374C8.87303 43.374 5.95825 46.2888 5.95825 49.8844C5.95825 53.4799 8.87303 56.3947 12.4686 56.3947Z" fill="#736572"/>
<path d="M60.9109 40.4258C55.6955 40.4258 51.4524 44.6689 51.4524 49.8843C51.4524 50.4493 51.505 51.0019 51.6004 51.5399H70.2213C70.3167 51.0019 70.3693 50.4493 70.3693 49.8843C70.3693 44.6689 66.1264 40.4258 60.9109 40.4258Z" fill="#F9F9F9"/>
<path d="M51.4526 49.8843C51.4526 50.4493 51.5053 51.002 51.6006 51.54H70.2214C70.3168 51.002 70.3694 50.4493 70.3694 49.8843C70.3694 48.9151 70.2223 47.9797 69.9502 47.0986H51.8717C51.5997 47.9797 51.4526 48.9151 51.4526 49.8843Z" fill="#E2E2E2"/>
<path d="M60.9107 56.3947C64.5063 56.3947 67.4211 53.4799 67.4211 49.8844C67.4211 46.2888 64.5063 43.374 60.9107 43.374C57.3152 43.374 54.4004 46.2888 54.4004 49.8844C54.4004 53.4799 57.3152 56.3947 60.9107 56.3947Z" fill="#736572"/>
<path d="M12.4686 49.4136C12.4686 47.1755 13.5994 45.2014 15.3193 44.0297C14.4586 43.6099 13.4907 43.374 12.4686 43.374C8.87306 43.374 5.95825 46.2888 5.95825 49.8844C5.95825 53.4799 8.87306 56.3947 12.4686 56.3947C13.8261 56.3947 15.0876 55.9786 16.1308 55.2678C13.9636 54.2108 12.4686 51.987 12.4686 49.4136Z" fill="#615260"/>
<path d="M60.9107 49.4136C60.9107 47.1755 62.0415 45.2014 63.7614 44.0297C62.9007 43.6099 61.9329 43.374 60.9107 43.374C57.3152 43.374 54.4004 46.2888 54.4004 49.8844C54.4004 53.4799 57.3152 56.3947 60.9107 56.3947C62.2682 56.3947 63.5297 55.9786 64.5729 55.2678C62.4057 54.2108 60.9107 51.987 60.9107 49.4136Z" fill="#615260"/>
<path d="M41.5506 21.0283H33.8648C33.685 21.0283 33.5111 21.0932 33.3755 21.2111L21.7588 31.3177C21.5996 31.4563 21.6975 31.7182 21.9087 31.7182H41.5506L44.0435 30.6604V23.4807L41.5506 21.0283Z" fill="#162647"/>
<path d="M43.6286 23.0724L41.5506 21.0283H33.8648C33.685 21.0283 33.5111 21.0932 33.3755 21.2111L21.7588 31.3177C21.5996 31.4563 21.6975 31.7182 21.9087 31.7182H35.4023L43.6286 23.0724Z" fill="#162647"/>
<path d="M59.5988 21.0283H59.59H45.9741L44.5312 22.8881V30.6606L45.9741 31.7184H59.2008C59.817 31.7184 60.3152 31.2201 60.3152 30.604V21.7478C60.3152 21.3511 59.9954 21.0283 59.5988 21.0283Z" fill="#162647"/>
<path d="M41.5505 21.0283H45.9742V31.7182H41.5505V21.0283Z" fill="#F9F9F9"/>
<path d="M41.5505 21.0283V25.2564L45.5735 21.0283H41.5505Z" fill="#FAF9F9"/>
<path d="M5.68841 35.4919C6.0923 35.8958 6.34142 36.453 6.34142 37.0691C6.34142 38.3 5.34348 39.2979 4.11116 39.2979H0V38.384C0 37.0809 0.374412 35.8648 1.02153 34.8389H4.11116C4.72732 34.8389 5.28451 35.088 5.68841 35.4919Z" fill="#2F2F2F"/>
<path d="M39.8063 36.7653H37.6817C37.0712 36.7653 36.5762 36.2703 36.5762 35.6597C36.5762 35.0492 37.0712 34.5542 37.6817 34.5542H39.8063C40.4168 34.5542 40.9118 35.0492 40.9118 35.6597C40.9118 36.2703 40.4168 36.7653 39.8063 36.7653Z" fill="#F9F9F9"/>
<path d="M69.3821 34.3188H66.5343L65.6309 36.0874V39.2434C65.6309 39.9126 66.1748 40.4565 66.8455 40.4565H70.1695V36.0874L69.3821 34.3188Z" fill="#E2E2E2"/>
<path d="M12.4685 51.9722C11.3171 51.9722 10.3804 51.0356 10.3804 49.8841C10.3804 48.7325 11.317 47.7959 12.4685 47.7959C13.6201 47.7959 14.5567 48.7327 14.5567 49.8841C14.5567 51.0354 13.6199 51.9722 12.4685 51.9722Z" fill="#F9F7F8"/>
<path d="M12.9652 51.91C12.6454 51.1411 12.4688 50.298 12.4688 49.4132C12.4688 48.8586 12.5386 48.3201 12.6692 47.8061C12.6032 47.7997 12.5364 47.7959 12.4688 47.7959C11.3174 47.7959 10.3806 48.7327 10.3806 49.8841C10.3806 51.0354 11.3172 51.9722 12.4688 51.9722C12.6401 51.9722 12.8057 51.9492 12.9652 51.91Z" fill="#D7D0D6"/>
<path d="M60.9112 51.9722C59.7598 51.9722 58.823 51.0356 58.823 49.8841C58.823 48.7325 59.7596 47.7959 60.9112 47.7959C62.0627 47.7959 62.9993 48.7327 62.9993 49.8841C62.9993 51.0354 62.0625 51.9722 60.9112 51.9722Z" fill="#F9F7F8"/>
<path d="M61.4088 51.9127C61.0889 51.1438 60.9112 50.2983 60.9112 49.4137C60.9112 48.859 60.9797 48.3206 61.1105 47.8064C61.0444 47.8001 60.9788 47.7964 60.9112 47.7964C59.7598 47.7964 58.823 48.7332 58.823 49.8845C58.823 51.0359 59.7596 51.9727 60.9112 51.9727C61.0826 51.9726 61.2495 51.9518 61.4088 51.9127Z" fill="#D7D0D6"/>
<path d="M70.1695 31.7183V36.0874H65.6309V32.9329C65.6309 32.2622 66.1748 31.7183 66.8455 31.7183H70.1695Z" fill="#2F2F2F"/>
</g>
<defs>
<clipPath id="clip0">
<rect width="73" height="73" fill="white"/>
</clipPath>
</defs>
</svg>
