<svg width="204" height="219" viewBox="0 0 204 219" fill="none" xmlns="http://www.w3.org/2000/svg">
<g clip-path="url(#clip0)">
<path d="M191.366 116.464C191.366 171.783 148.959 216.389 96.9338 216.389C44.9068 216.389 2.5 171.783 2.5 116.464C2.5 61.1451 44.9068 16.5371 96.9338 16.5371C148.959 16.5371 191.366 61.145 191.366 116.464Z" fill="#B3E8FF" stroke="#98DBF8" stroke-width="5"/>
<path d="M144.688 193.914V205.616C130.595 214.065 114.299 218.89 96.9341 218.89C86.6988 218.89 76.8392 217.214 67.5771 214.107C61.1283 211.946 54.9679 209.087 49.1787 205.616V193.914C49.1787 173.944 63.7345 157.56 82.2556 155.98C83.2289 155.895 84.2095 155.854 85.202 155.854H108.66C111.434 155.854 114.132 156.18 116.724 156.808C132.74 160.679 144.688 175.825 144.688 193.914Z" fill="#BFD5DE"/>
<path d="M144.689 193.914V205.616C133.037 212.602 119.882 217.11 105.86 218.455C102.921 218.744 99.9407 218.89 96.9337 218.89C93.9237 218.89 90.9448 218.744 88.0044 218.46C80.9506 217.779 74.1128 216.298 67.5767 214.107V193.914C67.5767 172.895 83.7076 155.854 103.604 155.854H108.661C128.563 155.854 144.689 172.895 144.689 193.914Z" fill="#DDE8ED"/>
<path d="M61.6765 113.876C61.6765 120.163 57.331 125.376 51.6394 126.343C51.0167 126.449 50.3778 126.506 49.724 126.506C43.1228 126.506 37.7729 120.853 37.7729 113.876C37.7729 106.899 43.1228 101.248 49.724 101.248C50.3778 101.248 51.0167 101.302 51.6394 101.409C57.331 102.376 61.6765 107.59 61.6765 113.876Z" fill="#FAD5C0"/>
<path d="M106.603 169.587L96.934 185.976L87.2637 169.587" fill="#F74F4F"/>
<path d="M105.86 218.455C102.921 218.744 99.9407 218.889 96.9337 218.889C93.9237 218.889 90.9448 218.744 88.0044 218.46L96.9337 181.711L105.86 218.455Z" fill="#F74F4F"/>
<path d="M61.6764 113.876C61.6764 120.164 57.3309 125.376 51.6393 126.343C50.6054 122.372 50.0522 118.191 50.0522 113.876C50.0522 109.562 50.6054 105.382 51.6393 101.409C57.3309 102.376 61.6764 107.59 61.6764 113.876Z" fill="#FBC8AE"/>
<path d="M53.9974 113.876C53.9974 116.369 52.0834 118.39 49.7243 118.39C47.3651 118.39 45.4526 116.369 45.4526 113.876C45.4526 111.383 47.3651 109.362 49.7243 109.362C52.0834 109.362 53.9974 111.383 53.9974 113.876Z" fill="#FBC8AE"/>
<path d="M96.9308 171.435L80.7126 180.959L75.7798 156.711L85.8568 150.44" fill="#BFD5DE"/>
<path d="M96.9307 171.435L113.147 180.959L118.08 156.711L108.005 150.44" fill="#BFD5DE"/>
<path d="M132.187 113.876C132.187 120.163 136.534 125.376 142.225 126.343C142.846 126.449 143.487 126.506 144.139 126.506C150.742 126.506 156.092 120.853 156.092 113.876C156.092 106.899 150.742 101.248 144.139 101.248C143.487 101.248 142.846 101.302 142.225 101.409C136.534 102.376 132.187 107.59 132.187 113.876Z" fill="#FAD5C0"/>
<path d="M132.187 113.876C132.187 120.164 136.534 125.376 142.226 126.343C143.258 122.372 143.811 118.191 143.811 113.876C143.811 109.562 143.26 105.382 142.226 101.409C136.534 102.376 132.187 107.59 132.187 113.876Z" fill="#FBC8AE"/>
<path d="M148.411 113.876C148.411 116.369 146.498 118.39 144.139 118.39C141.78 118.39 139.868 116.369 139.868 113.876C139.868 111.383 141.78 109.362 144.139 109.362C146.498 109.362 148.411 111.383 148.411 113.876Z" fill="#FBC8AE"/>
<path d="M141.402 107.163C141.402 130.548 125.235 149.945 104.069 153.546C101.747 153.949 99.3644 154.154 96.9328 154.154C72.371 154.154 52.4639 133.117 52.4639 107.163C52.4639 94.8852 57.9853 76.4507 65.2832 68.0797C73.4093 58.7586 83.9922 60.1745 96.9328 60.1745C99.3644 60.1745 101.747 60.3777 104.069 60.781C125.235 64.3819 141.402 83.7807 141.402 107.163Z" fill="#FBC8AE"/>
<path d="M109.786 141.191V157.856C109.786 163.958 105.978 169.115 100.734 170.828C99.5331 171.222 98.2537 171.435 96.9314 171.435C89.8332 171.435 84.0811 165.357 84.0811 157.856V141.191H109.786Z" fill="#FBC8AE"/>
<path d="M109.786 156.801V157.858C109.786 163.959 105.977 169.115 100.734 170.828C96.002 169.292 92.4448 164.946 91.7866 159.625C92.646 159.682 93.5083 159.708 94.3765 159.708C96.8081 159.708 99.191 159.505 101.513 159.102C104.374 158.616 107.138 157.839 109.786 156.801Z" fill="#FAD5C0"/>
<path d="M141.401 107.163C141.401 130.547 125.234 149.945 104.069 153.546C82.9028 149.945 66.7363 130.547 66.7363 107.163C66.7363 92.7657 72.8657 79.8779 82.5227 71.2569C88.5426 65.8774 95.938 62.1639 104.069 60.7808C123.803 64.1363 139.194 81.2283 141.182 102.478C141.327 104.02 141.401 105.585 141.401 107.163Z" fill="#FAD5C0"/>
<path d="M96.9324 125.517C100.657 125.517 104.38 126.503 107.774 128.475C108.731 129.03 109.08 130.302 108.555 131.313C108.029 132.325 106.825 132.693 105.868 132.139C100.274 128.888 93.5926 128.888 87.9972 132.139C87.0402 132.693 85.8377 132.326 85.3112 131.313C84.7846 130.302 85.1337 129.03 86.0921 128.475C89.4852 126.503 93.2095 125.517 96.9324 125.517Z" fill="#FCBE9F"/>
<path d="M87.4615 104.43C87.4615 107.373 85.2029 109.759 82.4177 109.759C79.6311 109.759 77.3726 107.373 77.3726 104.43C77.3726 101.485 79.6311 99.0986 82.4177 99.0986C85.2029 99.0986 87.4615 101.485 87.4615 104.43Z" fill="#3D4159"/>
<path d="M116.492 104.43C116.492 107.373 114.234 109.759 111.449 109.759C108.662 109.759 106.403 107.373 106.403 104.43C106.403 101.485 108.662 99.0986 111.449 99.0986C114.234 99.0986 116.492 101.485 116.492 104.43Z" fill="#3D4159"/>
<path d="M86.4337 103.489C86.4337 104.75 85.4649 105.772 84.2713 105.772C83.0777 105.772 82.1104 104.75 82.1104 103.489C82.1104 102.228 83.0777 101.204 84.2713 101.204C85.4649 101.204 86.4337 102.228 86.4337 103.489Z" fill="white"/>
<path d="M115.711 103.489C115.711 104.75 114.743 105.772 113.55 105.772C112.356 105.772 111.387 104.75 111.387 103.489C111.387 102.228 112.356 101.204 113.55 101.204C114.743 101.204 115.711 102.228 115.711 103.489Z" fill="white"/>
<path d="M101.978 117.851H91.8886C90.6861 117.851 89.7114 116.821 89.7114 115.55C89.7114 114.281 90.6861 113.251 91.8886 113.251H101.978C103.179 113.251 104.153 114.281 104.153 115.55C104.153 116.821 103.179 117.851 101.978 117.851Z" fill="#FCBE9F"/>
<path d="M111.574 192.664H130.96V198.936H111.574V192.664Z" fill="#BFD5DE"/>
<path d="M94.3306 46.7505C107.801 47.768 118.617 59.2663 119.304 73.7419L119.431 76.4583H127.178L131.354 105.786L141.463 102.479L140.106 73.7419C139.388 58.5364 127.487 46.6208 113.084 46.6755L94.3306 46.7505Z" fill="#2A2F4F"/>
<path d="M139.248 35.4082C149.976 46.744 149.976 65.1222 139.248 76.4565C128.521 87.7922 111.129 87.7922 100.401 76.4565L139.248 35.4082Z" fill="#3D4159"/>
<path d="M100.402 76.4567H66.6879L62.5139 105.786L52.4058 102.479L53.7606 73.7404C54.478 58.538 66.3787 46.6192 80.7836 46.6755L129.472 46.8693L135.911 59.1131" fill="#3D4159"/>
<path d="M99.5341 46.7505C86.064 47.768 75.2474 59.2663 74.5626 73.7419L74.4339 76.4583H66.6864L62.5109 105.786L52.4028 102.479L53.7606 73.7419C54.4765 58.5364 66.3788 46.6208 80.7807 46.6755L99.5341 46.7505Z" fill="#2A2F4F"/>
<path d="M204 45.8002C204 69.256 186.006 88.2699 163.808 88.2699C141.61 88.2699 123.616 69.256 123.616 45.8002C123.616 22.3444 141.61 3.33057 163.808 3.33057C186.006 3.33057 204 22.3444 204 45.8002Z" fill="#0C387F"/>
<g clip-path="url(#clip1)">
<path d="M184.138 71.1284H143.477C137.257 71.1284 133.212 64.2118 135.993 58.3334L156.324 15.3678C159.407 8.85136 168.208 8.85136 171.291 15.3678L191.622 58.3333C194.404 64.2118 190.358 71.1284 184.138 71.1284Z" fill="url(#paint0_linear)"/>
<path d="M184.138 71.1284H143.477C137.257 71.1284 133.212 64.2118 135.993 58.3334L156.324 15.3678C159.407 8.85136 168.208 8.85136 171.291 15.3678L191.622 58.3333C194.404 64.2118 190.358 71.1284 184.138 71.1284Z" fill="url(#paint1_linear)"/>
<path d="M189.608 59.3965L169.277 16.431C168.219 14.1942 166.174 12.8589 163.808 12.8589C161.441 12.8589 159.396 14.1942 158.338 16.431L138.007 59.3965C137.052 61.4143 137.152 63.7647 138.275 65.6836C139.397 67.6027 141.342 68.7485 143.477 68.7485H184.138C186.273 68.7485 188.218 67.6027 189.34 65.6836C190.463 63.7647 190.563 61.4144 189.608 59.3965ZM187.425 64.4328C186.716 65.6452 185.487 66.3691 184.138 66.3691H143.477C142.128 66.3691 140.899 65.6452 140.19 64.4328C139.481 63.2204 139.418 61.7354 140.021 60.4605L160.352 17.4951C161.03 16.0608 162.29 15.2382 163.807 15.2382C165.325 15.2382 166.585 16.0608 167.263 17.4951L187.594 60.4606C188.197 61.7354 188.134 63.2204 187.425 64.4328Z" fill="url(#paint2_linear)"/>
<path d="M184.138 71.127H180.936L162.428 51.5708C161.881 51.2877 161.606 50.7988 161.606 50.1005C161.606 47.4619 161.504 45.5799 161.299 39.608C161.094 33.6372 160.992 32.4108 160.992 29.7722C160.992 28.9299 161.263 28.2804 161.806 27.8224C162.347 27.3632 163.05 27.1348 163.912 27.1348C164.774 27.1348 165.408 27.3727 165.811 27.8498C165.889 27.9402 182.761 45.7619 188.584 51.9134L191.622 58.3326C194.404 64.2105 190.358 71.127 184.138 71.127Z" fill="url(#paint3_linear)"/>
<path d="M179.616 71.1273H171.242L161.643 60.9834C161.004 60.3885 160.685 59.6951 160.685 58.9015C160.685 58.0748 161.004 57.3717 161.643 56.7936C162.281 56.2154 163.057 55.9263 163.969 55.9263C164.771 55.9263 165.466 56.2154 166.051 56.7936L179.616 71.1273Z" fill="url(#paint4_linear)"/>
<path d="M160.685 58.901C160.685 58.0742 161.004 57.372 161.642 56.794C162.281 56.2157 163.057 55.9258 163.968 55.9258C164.771 55.9258 165.466 56.2157 166.051 56.794C166.636 57.372 166.93 58.0742 166.93 58.901C166.93 59.6944 166.637 60.3885 166.051 60.9833C165.466 61.5784 164.771 61.8759 163.968 61.8759C163.056 61.8759 162.281 61.5783 161.642 60.9833C161.004 60.3885 160.685 59.6946 160.685 58.901ZM160.992 29.7725C160.992 28.9306 161.263 28.2803 161.806 27.8222C162.348 27.3641 163.05 27.1348 163.912 27.1348C164.775 27.1348 165.408 27.3733 165.812 27.8499C166.216 28.3265 166.418 28.9672 166.418 29.7725C166.418 32.4114 166.375 33.6371 166.29 39.6088C166.205 45.5807 166.163 47.4625 166.163 50.1003C166.163 50.6507 165.919 51.0815 165.432 51.3925C164.944 51.7035 164.437 51.8592 163.913 51.8592C162.375 51.8592 161.607 51.2734 161.607 50.1003C161.607 47.4625 161.504 45.5807 161.299 39.6088C161.094 33.637 160.992 32.4112 160.992 29.7725Z" fill="white"/>
</g>
</g>
<defs>
<linearGradient id="paint0_linear" x1="149.499" y1="36.4197" x2="218.603" y2="101.817" gradientUnits="userSpaceOnUse">
<stop stop-color="#FFB92D"/>
<stop offset="1" stop-color="#F59500"/>
</linearGradient>
<linearGradient id="paint1_linear" x1="158.194" y1="45.6069" x2="179.025" y2="65.319" gradientUnits="userSpaceOnUse">
<stop stop-color="#FFB92D"/>
<stop offset="1" stop-color="#F59500"/>
</linearGradient>
<linearGradient id="paint2_linear" x1="137.356" y1="40.8043" x2="190.258" y2="40.8043" gradientUnits="userSpaceOnUse">
<stop stop-color="#FFF465"/>
<stop offset="1" stop-color="#FFE600"/>
</linearGradient>
<linearGradient id="paint3_linear" x1="182.554" y1="59.2537" x2="148.81" y2="27.3193" gradientUnits="userSpaceOnUse">
<stop stop-color="#BE3F45" stop-opacity="0"/>
<stop offset="1" stop-color="#BE3F45"/>
</linearGradient>
<linearGradient id="paint4_linear" x1="172.198" y1="67.7188" x2="161.19" y2="57.3007" gradientUnits="userSpaceOnUse">
<stop stop-color="#BE3F45" stop-opacity="0"/>
<stop offset="1" stop-color="#BE3F45"/>
</linearGradient>
<clipPath id="clip0">
<rect width="204" height="218.415" fill="white" transform="translate(0 0.475586)"/>
</clipPath>
<clipPath id="clip1">
<rect width="57.4172" height="60.671" fill="white" transform="translate(135.099 10.4683)"/>
</clipPath>
</defs>
</svg>
