<svg width="37" height="37" viewBox="0 0 37 37" fill="none" xmlns="http://www.w3.org/2000/svg">
<path d="M32.375 30.0625H4.625V17.7292L18.5 4.625L32.375 17.7292V30.0625Z" fill="#E8EAF6"/>
<path d="M30.0622 16.1875L26.208 12.3333V6.9375H30.0622V16.1875Z" fill="#C5CAE9"/>
<path d="M4.625 30.0625H32.375V33.9167H4.625V30.0625Z" fill="#C5CAE9"/>
<path d="M18.4997 3.31445L3.08301 17.652L4.62467 19.3478L18.4997 6.47487L32.3747 19.3478L33.9163 17.652L18.4997 3.31445Z" fill="#B71C1C"/>
<path d="M13.875 21.5835H23.125V33.9168H13.875V21.5835Z" fill="#D84315"/>
<path d="M16.1875 13.104H20.8125V17.729H16.1875V13.104Z" fill="#01579B"/>
<path d="M21.1979 27.3647C20.9667 27.3647 20.8125 27.5189 20.8125 27.7502V29.2918C20.8125 29.5231 20.9667 29.6772 21.1979 29.6772C21.4292 29.6772 21.5833 29.5231 21.5833 29.2918V27.7502C21.5833 27.5189 21.4292 27.3647 21.1979 27.3647Z" fill="#FF8A65"/>
</svg>
