<svg width="58" height="58" viewBox="0 0 58 58" fill="none" xmlns="http://www.w3.org/2000/svg">
<path d="M50.2598 46.6701H7.17993V27.5235L28.7199 7.18018L50.2598 27.5235V46.6701Z" fill="white"/>
<path d="M46.6698 25.13L40.6865 19.1467V10.77H46.6698V25.13Z" fill="#E5E6E9"/>
<path d="M7.17993 46.6699H50.2598V52.6532H7.17993V46.6699Z" fill="#E5E6E9"/>
<path d="M28.7199 5.14551L4.78662 27.4034L7.17995 30.0361L28.7199 10.0518L50.2598 30.0361L52.6532 27.4034L28.7199 5.14551Z" fill="#101829"/>
<path d="M21.5398 33.5063H35.8998V52.653H21.5398V33.5063Z" fill="#162647"/>
<path d="M25.1299 20.3433H32.3099V27.5232H25.1299V20.3433Z" fill="#162647"/>
<path d="M32.9081 42.4814C32.5491 42.4814 32.3098 42.7208 32.3098 43.0798V45.4731C32.3098 45.8321 32.5491 46.0714 32.9081 46.0714C33.2671 46.0714 33.5065 45.8321 33.5065 45.4731V43.0798C33.5065 42.7208 33.2671 42.4814 32.9081 42.4814Z" fill="white"/>
</svg>
