<svg width="32" height="32" viewBox="0 0 32 32" fill="none" xmlns="http://www.w3.org/2000/svg">
<path d="M24 0H8C3.58172 0 0 3.58172 0 8V24C0 28.4183 3.58172 32 8 32H24C28.4183 32 32 28.4183 32 24V8C32 3.58172 28.4183 0 24 0Z" fill="#00C200"/>
<path d="M27.6143 15.4201C27.668 15.1368 27.6947 14.8984 27.7069 14.7114C27.7271 14.4028 27.7041 13.9447 27.6958 13.8012C27.4116 8.85739 22.2824 4.91858 15.9966 4.91858C9.52836 4.91858 4.28491 9.08925 4.28491 14.234C4.28491 18.9629 8.71475 22.8686 14.4538 23.4694C14.8047 23.5061 15.0577 23.8229 15.0188 24.1735L14.7744 26.3728C14.7189 26.872 15.2352 27.2353 15.6876 27.0169C20.5363 24.6768 23.4357 22.2694 25.1671 20.1838C25.4822 19.8043 26.5095 18.3649 26.719 17.9869C27.1636 17.1843 27.4701 16.3224 27.6143 15.4201Z" fill="white"/>
<path d="M9.55658 16.1212V12.1974C9.55658 11.8665 9.28835 11.5983 8.95749 11.5983C8.62663 11.5983 8.3584 11.8665 8.3584 12.1974V16.7203C8.3584 17.0512 8.62663 17.3194 8.95749 17.3194H11.3538C11.6846 17.3194 11.9529 17.0512 11.9529 16.7203C11.9529 16.3895 11.6846 16.1212 11.3538 16.1212H9.55658Z" fill="#00C500"/>
<path d="M13.252 17.3194H12.9901C12.7316 17.3194 12.522 17.1098 12.522 16.8513V12.0664C12.522 11.8079 12.7316 11.5983 12.9901 11.5983H13.252C13.5106 11.5983 13.7202 11.8079 13.7202 12.0664V16.8513C13.7202 17.1098 13.5106 17.3194 13.252 17.3194Z" fill="#00C500"/>
<path d="M18.0932 12.1971V14.9602C18.0932 14.9602 15.7007 11.8396 15.6642 11.7986C15.5499 11.6703 15.3814 11.5914 15.1944 11.5985C14.8686 11.6108 14.6187 11.8956 14.6187 12.2217V16.72C14.6187 17.0509 14.8869 17.3191 15.2177 17.3191C15.5486 17.3191 15.8168 17.0509 15.8168 16.72V13.9737C15.8168 13.9737 18.2457 17.1215 18.2814 17.1554C18.3873 17.2556 18.5297 17.3177 18.6867 17.3191C19.0194 17.3221 19.2914 17.0279 19.2914 16.6952V12.1971C19.2914 11.8663 19.0231 11.598 18.6923 11.598C18.3614 11.5981 18.0932 11.8663 18.0932 12.1971Z" fill="#00C500"/>
<path d="M23.7844 12.1974C23.7844 11.8665 23.5162 11.5983 23.1853 11.5983H20.789C20.4582 11.5983 20.1899 11.8665 20.1899 12.1974V16.7203C20.1899 17.0512 20.4582 17.3194 20.789 17.3194H23.1853C23.5162 17.3194 23.7844 17.0512 23.7844 16.7203C23.7844 16.3895 23.5162 16.1212 23.1853 16.1212H21.3881V15.0579H23.1853C23.5162 15.0579 23.7844 14.7896 23.7844 14.4588C23.7844 14.1279 23.5162 13.8597 23.1853 13.8597H21.3881V12.7963H23.1853C23.5162 12.7964 23.7844 12.5282 23.7844 12.1974Z" fill="#00C500"/>
</svg>
