<svg id="Layer_1" data-name="Layer 1" xmlns="http://www.w3.org/2000/svg" viewBox="0 0 512 512"><defs><style>.cls-1{fill:red;}.cls-2{fill:blue;}.cls-3,.cls-4{fill:none;stroke-linecap:square;stroke-linejoin:round;}.cls-3{stroke:red;}.cls-4{stroke:blue;}</style></defs><polygon class="cls-1" points="260.91 313.57 330.21 313.57 499.89 212.85 331.08 112.61 261.89 112.61 429.85 212.85 260.91 313.57 260.91 313.57"/><polygon class="cls-2" points="351.79 112.61 183.84 212.85 352.78 313.57 382.62 313.57 213.8 212.85 381.75 112.61 351.79 112.61 351.79 112.61"/><line class="cls-3" x1="369.92" y1="343.78" x2="369.92" y2="343.78"/><polygon class="cls-1" points="162.26 112.61 330.33 212.85 161.39 313.57 131.43 313.57 300.37 212.85 132.29 112.61 162.26 112.61 162.26 112.61"/><polyline class="cls-2" points="339.58 364.86 426.52 364.74 423.56 369.42 350.06 369.42 345.63 376.45 419.12 376.45 417.64 378.8 324.17 378.92 329.72 370.29 329.72 370.41 330.95 368.81 332.31 367.45 333.91 366.47 335.76 365.6 337.61 365.11 339.58 364.99"/><polygon class="cls-2" points="326.14 385.94 324.17 386.07 322.32 386.56 320.47 387.42 318.87 388.41 317.51 389.77 316.27 391.37 310.73 400 404.2 399.88 405.68 397.53 332.18 397.53 336.62 390.5 410.12 390.5 413.08 385.82 326.14 385.94"/><polyline class="cls-2" points="343.28 349.08 337.86 357.71 431.08 357.71 432.56 355.37 359.06 355.37 363.63 348.34 437.12 348.34 440.08 343.66 353.27 343.66 351.3 343.78 349.45 344.27 347.6 345.14 345.99 346.12 344.64 347.48 343.4 349.08"/><polyline class="cls-2" points="105.29 358.57 102.82 362.52 102.82 362.64 102.58 363.38 102.7 364.12 103.32 364.62 104.05 364.86 146.72 364.86 146.72 364.99 147.46 365.23 148.08 365.73 148.2 366.47 147.96 367.21 148.08 367.21 127.11 400 78.78 400 83.71 392.48 85.06 390.63 86.79 389.03 88.76 387.8 90.86 386.81 93.08 386.32 95.42 386.07 95.42 385.94 107.26 385.94 115.77 385.94 116.51 385.82 117 385.21 119.59 381.26 119.47 381.26 119.72 380.52 119.59 379.78 118.98 379.29 118.23 379.04 118.23 378.92 72.86 378.92 87.04 356.73 87.04 356.85 88.89 354.26 90.98 351.92 93.2 349.94 95.79 348.1 98.51 346.61 101.47 345.51 104.43 344.64 107.51 344.03 110.59 343.9 110.59 343.78 163 343.78 154 357.83 106.64 357.83 106.64 357.96 105.91 358.08 105.41 358.7"/><line class="cls-4" x1="171.51" y1="357.83" x2="171.51" y2="357.83"/><polyline class="cls-2" points="182.6 371.76 200.36 343.78 185.56 343.78 183.22 343.9 180.88 344.15 178.66 344.64 176.56 345.63 174.59 346.86 172.87 348.46 171.51 350.31 171.38 350.31 166.58 357.83 171.51 357.83 144.63 400 164.48 400 190 380.77 190.13 380.77 190.87 380.52 191.61 380.64 192.22 381.26 192.47 382 192.47 400 212.32 400 257.33 329.85 245 329.85 242.66 330.1 240.44 330.59 238.34 331.58 236.37 332.81 234.64 334.41 233.29 336.26 208.75 374.48 208.26 375.1 207.51 375.22 206.77 374.97 206.28 374.48 206.03 373.74 205.91 373.74 205.91 357.83 184.82 373.86 184.7 373.86 184.09 374.11 183.47 374.11 182.85 373.74 182.48 373.12 182.36 372.5 182.6 371.89"/><line class="cls-3" x1="260.91" y1="313.57" x2="260.91" y2="313.57"/><line class="cls-4" x1="253.14" y1="313.57" x2="253.14" y2="313.57"/><polygon class="cls-2" points="253.14 313.57 183.96 313.57 14.16 212.85 182.98 112.61 252.28 112.61 84.33 212.85 253.14 313.57 253.14 313.57"/><polyline class="cls-2" points="285.2 385.33 285.94 385.45 286.68 385.21 287.3 384.59 287.3 384.71 309.37 350.31 310.73 348.46 312.45 346.86 314.43 345.63 316.52 344.64 318.74 344.15 321.08 343.9 321.08 343.78 333.29 343.78 297.41 400 277.8 400 277.19 399.88 255.48 393.34 254.62 393.47 253.88 393.71 253.26 394.33 249.56 400 229.71 400 237.36 388.04 231.07 388.04 236.99 378.67 238.22 377.07 239.82 375.84 241.67 374.85 243.52 374.23 245.62 373.99 246.23 373.99 256.59 357.83 250.3 357.83 255.24 350.31 256.59 348.46 258.32 346.86 260.29 345.63 262.39 344.64 264.61 344.15 266.95 343.9 266.95 343.78 285.45 343.78 264.36 376.7 264.49 376.82 264.24 377.56 264.36 378.42 264.85 379.16 265.6 379.54 265.47 379.66 285.08 385.58"/></svg>