<svg id="Layer_1" data-name="Layer 1" xmlns="http://www.w3.org/2000/svg" viewBox="0 0 512 512"><defs><style>.cls-1{fill:red;}.cls-2{fill:blue;}.cls-3,.cls-4{fill:none;stroke-linecap:square;stroke-linejoin:round;}.cls-3{stroke:blue;}.cls-4{stroke:red;}.cls-5{fill:#fff;}</style></defs><polygon class="cls-1" points="260.33 320.12 330.6 320.12 502.65 217.98 331.48 116.34 261.33 116.34 431.63 217.98 260.33 320.12 260.33 320.12"/><polygon class="cls-2" points="352.48 116.34 182.18 217.98 353.48 320.12 383.87 320.12 212.56 217.98 382.87 116.34 352.48 116.34 352.48 116.34"/><polyline class="cls-2" points="347.35 387 341.85 395.75 436.51 395.63 438.01 393.25 363.48 393.25 368.11 386.13 442.63 386.13 445.64 381.37 357.48 381.5 355.48 381.63 353.61 382.12 351.73 383 350.11 384 348.73 385.38 347.48 387"/><polygon class="cls-2" points="384.87 338.62 382.87 338.75 380.99 339.25 379.11 340.12 377.49 341.12 376.11 342.5 374.86 344.12 369.24 352.87 463.89 352.87 465.39 350.49 390.87 350.49 395.37 343.37 469.89 343.37 473.02 338.62 384.87 338.62"/><line class="cls-3" x1="388.37" y1="338.75" x2="388.37" y2="338.75"/><polyline class="cls-2" points="371.11 360.12 459.27 360 456.26 364.75 381.74 364.75 377.11 371.87 451.64 371.87 450.14 374.25 355.48 374.37 361.11 365.62 361.11 365.75 362.36 364.12 363.74 362.75 365.36 361.75 367.24 360.87 369.11 360.37 371.11 360.25"/><line class="cls-4" x1="260.33" y1="320.12" x2="260.33" y2="320.12"/><polygon class="cls-1" points="160.29 116.34 330.72 217.98 159.42 320.12 129.03 320.12 300.34 217.98 130.04 116.34 160.29 116.34 160.29 116.34"/><polygon class="cls-2" points="296.84 338.75 240.32 338.75 229.32 355.87 248.7 355.87 223.19 395.75 243.32 395.75 268.83 355.87 285.96 355.87 296.84 338.75 296.84 338.75"/><polyline class="cls-2" points="325.97 338.75 364.74 338.75 328.35 395.75 311.34 395.75 319.47 382.87 302.34 382.87 294.21 395.75 273.96 395.75 301.96 351.87 302.09 351.99 303.97 349.37 306.09 347 308.34 345 310.97 343.12 313.72 341.62 316.72 340.49 319.72 339.62 322.85 339 325.97 338.87"/><polygon class="cls-2" points="201.68 395.75 202.93 393.63 203.68 391.88 204.18 390 204.31 388 204.18 386.13 203.68 384.25 202.93 382.5 201.93 380.75 201.93 380.62 204.56 379.75 207.06 378.62 209.44 377.12 211.56 375.25 213.44 373.25 215.06 371 215.19 371 218.94 365.12 218.94 365 220.06 362.87 220.94 360.62 221.44 358.25 221.56 355.87 221.44 353.37 220.81 351.12 220.06 348.75 218.81 346.62 217.44 344.75 215.69 343 213.69 341.62 211.56 340.37 209.31 339.49 206.94 339 204.56 338.87 204.56 338.75 181.3 338.75 144.91 395.75 165.17 395.75 173.42 382.87 184.18 382.87 184.18 383 185.05 383.13 185.8 383.63 186.43 384.25 186.68 385.13 186.68 386 186.3 386.88 180.68 395.75 201.68 395.75"/><polyline class="cls-2" points="91.9 338.75 167.8 338.75 131.41 395.75 114.53 395.63 139.91 355.87 129.29 355.87 127.41 356 125.53 356.5 123.78 357.25 122.28 358.37 120.91 359.62 119.66 361.12 97.28 396 77.02 396 102.78 355.87 91.9 355.87 90.02 356 88.15 356.5 86.4 357.25 84.9 358.37 83.52 359.62 82.27 361.12 60.01 396 39.88 395.75 67.89 351.87 68.02 351.99 69.89 349.37 72.02 347 74.27 345 76.89 343.12 79.64 341.62 82.64 340.49 85.65 339.62 88.77 339 91.9 338.87"/><line class="cls-3" x1="252.57" y1="320.12" x2="252.57" y2="320.12"/><polygon class="cls-2" points="252.57 320.12 182.3 320.12 10.12 217.98 181.43 116.34 251.57 116.34 81.27 217.98 252.57 320.12 252.57 320.12"/><line class="cls-3" x1="184.43" y1="395.75" x2="184.43" y2="395.75"/><polyline class="cls-5" points="198.56 367.5 200.68 364.25 201.18 363 201.56 361.62 201.56 360.25 201.18 358.87 200.43 357.75 199.56 356.62 198.43 355.87 197.06 355.37 195.68 355.25 195.68 355.12 191.18 355.12 178.55 374.37 186.05 374.37 188.56 374.12 190.93 373.62 193.18 372.62 195.18 371.25 196.93 369.5 198.43 367.62"/><polyline class="cls-5" points="332.1 356 332.98 356.12 333.73 356.62 334.35 357.25 334.6 358.12 334.6 359 334.23 359.87 324.97 374.37 307.84 374.37 316.34 361.12 317.6 359.62 318.97 358.37 320.47 357.25 322.22 356.5 324.1 356 325.97 355.87 332.1 355.87"/></svg>