<svg id="Layer_1" data-name="Layer 1" xmlns="http://www.w3.org/2000/svg" viewBox="0 0 512 512"><defs><style>.cls-1{fill:#fff;}.cls-2,.cls-3{fill:none;stroke-linecap:square;stroke-linejoin:round;}.cls-2{stroke:blue;}.cls-3{stroke:red;}</style></defs><polygon class="cls-1" points="259.96 337.86 330.23 337.86 502.29 235.72 331.11 134.09 260.96 134.09 431.26 235.72 259.96 337.86 259.96 337.86"/><polygon class="cls-1" points="352.11 134.09 181.81 235.72 353.12 337.86 383.5 337.86 212.19 235.72 382.5 134.09 352.11 134.09 352.11 134.09"/><polyline class="cls-1" points="346.99 404.75 341.49 413.5 436.14 413.37 437.64 411 363.12 411 367.74 403.87 442.27 403.87 445.27 399.12 357.12 399.25 355.11 399.37 353.24 399.87 351.36 400.75 349.74 401.75 348.36 403.12 347.11 404.75"/><polygon class="cls-1" points="384.5 356.37 382.5 356.49 380.62 356.99 378.75 357.87 377.12 358.87 375.75 360.24 374.5 361.86 368.87 370.62 463.52 370.62 465.02 368.24 390.5 368.24 395 361.12 469.53 361.12 472.65 356.37 384.5 356.37"/><line class="cls-2" x1="388" y1="356.49" x2="388" y2="356.49"/><polyline class="cls-1" points="370.75 377.87 458.9 377.74 455.89 382.49 381.37 382.49 376.75 389.62 451.27 389.62 449.77 391.99 355.11 392.12 360.74 383.37 360.74 383.49 361.99 381.87 363.37 380.49 364.99 379.49 366.87 378.62 368.75 378.12 370.75 377.99"/><line class="cls-3" x1="259.96" y1="337.86" x2="259.96" y2="337.86"/><polygon class="cls-1" points="159.93 134.09 330.36 235.72 159.05 337.86 128.67 337.86 299.97 235.72 129.67 134.09 159.93 134.09 159.93 134.09"/><polygon class="cls-1" points="296.47 356.49 239.95 356.49 228.95 373.62 248.33 373.62 222.82 413.5 242.95 413.5 268.46 373.62 285.59 373.62 296.47 356.49 296.47 356.49"/><polyline class="cls-1" points="325.61 356.49 364.37 356.49 327.98 413.5 310.98 413.5 319.1 400.62 301.97 400.62 293.85 413.5 273.59 413.5 301.6 369.62 301.72 369.74 303.6 367.12 305.72 364.74 307.98 362.74 310.6 360.87 313.35 359.37 316.35 358.24 319.35 357.36 322.48 356.74 325.61 356.61"/><polygon class="cls-1" points="201.32 413.5 202.57 411.37 203.32 409.62 203.82 407.75 203.94 405.75 203.82 403.87 203.32 402 202.57 400.25 201.57 398.5 201.57 398.37 204.19 397.49 206.69 396.37 209.07 394.87 211.19 392.99 213.07 391 214.69 388.75 214.82 388.75 218.57 382.87 218.57 382.74 219.7 380.62 220.57 378.37 221.07 375.99 221.2 373.62 221.07 371.12 220.45 368.87 219.7 366.49 218.45 364.37 217.07 362.49 215.32 360.74 213.32 359.37 211.19 358.11 208.94 357.24 206.57 356.74 204.19 356.61 204.19 356.49 180.94 356.49 144.55 413.5 164.81 413.5 173.06 400.62 183.81 400.62 183.81 400.75 184.69 400.87 185.44 401.37 186.06 402 186.31 402.87 186.31 403.74 185.94 404.62 180.31 413.5 201.32 413.5"/><polyline class="cls-1" points="91.53 356.49 167.43 356.49 131.04 413.5 114.16 413.37 139.55 373.62 128.92 373.62 127.04 373.74 125.17 374.24 123.42 374.99 121.92 376.12 120.54 377.37 119.29 378.87 96.91 413.75 76.65 413.75 102.41 373.62 91.53 373.62 89.66 373.74 87.78 374.24 86.03 374.99 84.53 376.12 83.15 377.37 81.9 378.87 59.65 413.75 39.52 413.5 67.52 369.62 67.65 369.74 69.53 367.12 71.65 364.74 73.9 362.74 76.53 360.87 79.28 359.37 82.28 358.24 85.28 357.36 88.41 356.74 91.53 356.61"/><line class="cls-2" x1="252.21" y1="337.86" x2="252.21" y2="337.86"/><polygon class="cls-1" points="252.21 337.86 181.94 337.86 9.76 235.72 181.06 134.09 251.21 134.09 80.9 235.72 252.21 337.86 252.21 337.86"/><line class="cls-2" x1="184.06" y1="413.5" x2="184.06" y2="413.5"/><polyline class="cls-1" points="198.19 385.24 200.32 381.99 200.82 380.74 201.19 379.37 201.19 377.99 200.82 376.62 200.07 375.49 199.19 374.37 198.06 373.62 196.69 373.12 195.31 372.99 195.31 372.87 190.81 372.87 178.18 392.12 185.69 392.12 188.19 391.87 190.56 391.37 192.81 390.37 194.81 388.99 196.56 387.25 198.06 385.37"/><polyline class="cls-1" points="331.73 373.74 332.61 373.87 333.36 374.37 333.98 374.99 334.23 375.87 334.23 376.74 333.86 377.62 324.61 392.12 307.47 392.12 315.98 378.87 317.23 377.37 318.6 376.12 320.1 374.99 321.85 374.24 323.73 373.74 325.61 373.62 331.73 373.62"/></svg>