<svg id="Layer_1" data-name="Layer 1" xmlns="http://www.w3.org/2000/svg" viewBox="0 0 512 512"><defs><style>.cls-1{fill:#fff;}.cls-2,.cls-3{fill:none;stroke-linecap:square;stroke-linejoin:round;}.cls-2{stroke:red;}.cls-3{stroke:blue;}</style></defs><polygon class="cls-1" points="259.91 335.23 329.21 335.23 498.88 234.5 330.07 134.26 260.89 134.26 428.84 234.5 259.91 335.23 259.91 335.23"/><polygon class="cls-1" points="350.79 134.26 182.84 234.5 351.78 335.23 381.61 335.23 212.8 234.5 380.75 134.26 350.79 134.26 350.79 134.26"/><line class="cls-2" x1="368.91" y1="365.43" x2="368.91" y2="365.43"/><polygon class="cls-1" points="161.25 134.26 329.33 234.5 160.39 335.23 130.43 335.23 299.37 234.5 131.29 134.26 161.25 134.26 161.25 134.26"/><polyline class="cls-1" points="338.58 386.51 425.52 386.39 422.56 391.07 349.06 391.07 344.62 398.1 418.12 398.1 416.63 400.44 323.17 400.57 328.71 391.94 328.71 392.06 329.95 390.46 331.3 389.1 332.91 388.12 334.76 387.25 336.61 386.76 338.58 386.64"/><polygon class="cls-1" points="325.14 407.6 323.17 407.72 321.31 408.21 319.46 409.07 317.87 410.06 316.51 411.42 315.27 413.02 309.73 421.65 403.2 421.52 404.68 419.18 331.18 419.18 335.62 412.16 409.11 412.16 412.07 407.47 325.14 407.6"/><polyline class="cls-1" points="342.28 370.73 336.85 379.36 430.08 379.36 431.56 377.02 358.06 377.02 362.63 369.99 436.12 369.99 439.08 365.31 352.27 365.31 350.3 365.43 348.44 365.92 346.59 366.79 344.99 367.77 343.63 369.13 342.4 370.73"/><polyline class="cls-1" points="104.29 380.23 101.82 384.17 101.82 384.29 101.57 385.04 101.7 385.77 102.31 386.27 103.05 386.51 145.72 386.51 145.72 386.64 146.46 386.88 147.07 387.38 147.2 388.12 146.95 388.86 147.07 388.86 126.11 421.65 77.77 421.65 82.71 414.13 84.06 412.28 85.79 410.68 87.76 409.45 89.86 408.46 92.08 407.97 94.42 407.72 94.42 407.6 106.26 407.6 114.77 407.6 115.51 407.47 116 406.86 118.59 402.91 118.47 402.91 118.71 402.17 118.59 401.43 117.97 400.94 117.23 400.69 117.23 400.57 71.86 400.57 86.03 378.38 86.03 378.5 87.89 375.91 89.98 373.57 92.2 371.6 94.79 369.75 97.5 368.26 100.46 367.16 103.42 366.29 106.51 365.68 109.59 365.56 109.59 365.43 162 365.43 152.99 379.49 105.64 379.49 105.64 379.61 104.9 379.73 104.41 380.35"/><line class="cls-3" x1="170.5" y1="379.48" x2="170.5" y2="379.48"/><polyline class="cls-1" points="181.6 393.42 199.36 365.43 184.56 365.43 182.22 365.56 179.88 365.8 177.66 366.29 175.56 367.28 173.59 368.51 171.86 370.12 170.5 371.96 170.38 371.96 165.57 379.49 170.5 379.49 143.62 421.65 163.48 421.65 189 402.42 189.12 402.42 189.86 402.17 190.6 402.29 191.22 402.91 191.47 403.65 191.47 421.65 211.32 421.65 256.33 351.5 244 351.5 241.66 351.75 239.44 352.24 237.34 353.23 235.37 354.46 233.64 356.06 232.28 357.91 207.75 396.13 207.25 396.75 206.51 396.87 205.77 396.62 205.28 396.13 205.03 395.39 204.91 395.39 204.91 379.49 183.82 395.51 183.7 395.51 183.08 395.76 182.47 395.76 181.85 395.39 181.48 394.77 181.36 394.16 181.6 393.54"/><line class="cls-2" x1="259.91" y1="335.22" x2="259.91" y2="335.22"/><line class="cls-3" x1="252.14" y1="335.22" x2="252.14" y2="335.22"/><polygon class="cls-1" points="252.14 335.23 182.96 335.23 13.16 234.5 181.97 134.26 251.27 134.26 83.32 234.5 252.14 335.23 252.14 335.23"/><polyline class="cls-1" points="284.2 406.98 284.94 407.1 285.68 406.86 286.3 406.24 286.3 406.36 308.37 371.96 309.73 370.12 311.45 368.51 313.43 367.28 315.52 366.29 317.74 365.8 320.08 365.56 320.08 365.43 332.29 365.43 296.41 421.65 276.8 421.65 276.18 421.52 254.48 414.99 253.62 415.12 252.88 415.36 252.26 415.98 248.56 421.65 228.71 421.65 236.35 409.69 230.06 409.69 235.98 400.32 237.22 398.72 238.82 397.49 240.67 396.5 242.52 395.88 244.61 395.63 245.23 395.63 255.59 379.49 249.3 379.49 254.24 371.96 255.59 370.12 257.31 368.51 259.29 367.28 261.39 366.29 263.6 365.8 265.95 365.56 265.95 365.43 284.44 365.43 263.36 398.35 263.48 398.47 263.24 399.21 263.36 400.07 263.85 400.81 264.59 401.19 264.47 401.31 284.07 407.23"/></svg>