<svg width="101" height="101" viewBox="0 0 101 101" fill="none" xmlns="http://www.w3.org/2000/svg">
<path d="M84.3535 68.1658L15.4422 68.1631L2.16992 91.5312H98.8301L84.3535 68.1658Z" fill="#4CA987"/>
<path d="M91.8386 80.23L98.8297 91.486H68.4469V91.4445L67.2554 80.2734L91.7479 80.2872L91.8386 80.23Z" fill="#C79A83"/>
<path d="M64.4348 32.3516H36.5652C35.9199 32.3645 35.3048 32.6277 34.8499 33.0856C34.395 33.5435 34.1358 34.1602 34.127 34.8055V41.4258H66.873V34.8055C66.8642 34.1602 66.605 33.5435 66.1501 33.0856C65.6952 32.6277 65.0802 32.3645 64.4348 32.3516Z" fill="#E87187"/>
<path d="M61.8706 25.7156L64.3048 32.4168H36.6956L39.1298 25.7156C39.3062 25.2294 39.628 24.8094 40.0516 24.5125C40.4751 24.2157 40.9798 24.0565 41.497 24.0566H59.5034C60.0206 24.0565 60.5253 24.2157 60.9488 24.5125C61.3724 24.8094 61.6942 25.2294 61.8706 25.7156Z" fill="#ADF0E5"/>
<path d="M50.5434 85.4632L50.5612 91.4857H2.16992L5.61221 85.4316L5.65166 85.4533L50.5434 85.4632Z" fill="#CCD3DF"/>
<path d="M32.1486 68.1357V68.1634L29.7518 77.3401L10.26 77.3145L10.2344 77.3007L15.4284 68.1634L32.1486 68.1357Z" fill="#C79A83"/>
<path d="M64.5569 68.1593C60.2356 72.3983 55.5296 76.2266 50.4998 79.5948C45.4489 76.2119 40.7244 72.3657 36.3874 68.106C28.6092 60.4659 20.5134 49.7386 20.5134 38.1789C20.5134 22.3503 33.9689 9.51221 50.4998 9.51221C67.0306 9.51221 80.4861 22.3503 80.4861 38.1789C80.4861 49.7662 72.3529 60.5172 64.5569 68.1593ZM73.3826 38.9679C73.3826 34.4421 72.0405 30.018 69.5261 26.2549C67.0117 22.4918 63.4379 19.5589 59.2566 17.8269C55.0754 16.095 50.4744 15.6418 46.0356 16.5248C41.5967 17.4077 37.5194 19.5871 34.3192 22.7873C31.119 25.9875 28.9396 30.0649 28.0567 34.5037C27.1737 38.9425 27.6269 43.5435 29.3588 47.7248C31.0908 51.9061 34.0237 55.4799 37.7868 57.9943C41.5498 60.5087 45.974 61.8507 50.4998 61.8507C53.5048 61.8507 56.4804 61.2588 59.2566 60.1089C62.0329 58.9589 64.5555 57.2734 66.6804 55.1485C68.8052 53.0236 70.4908 50.5011 71.6407 47.7248C72.7907 44.9485 73.3826 41.9729 73.3826 38.9679Z" fill="#5FA8ED"/>
<path d="M61.9964 35.1807C62.4563 35.1807 62.8973 35.3634 63.2225 35.6885C63.5477 36.0137 63.7304 36.4548 63.7304 36.9146C63.7304 37.3745 63.5477 37.8155 63.2225 38.1407C62.8973 38.4659 62.4563 38.6486 61.9964 38.6486H58.2898L58.9605 35.1807H61.9964Z" fill="#F3CE7D"/>
<path d="M56.2359 41.4951H44.1475L45.8065 38.6387H54.5769L56.2359 41.4951Z" fill="#F3CE7D"/>
<path d="M41.5082 35.1807L42.1769 38.6486H38.4703C38.0104 38.6486 37.5694 38.4659 37.2442 38.1407C36.919 37.8155 36.7363 37.3745 36.7363 36.9146C36.7363 36.4548 36.919 36.0137 37.2442 35.6885C37.5694 35.3634 38.0104 35.1807 38.4703 35.1807H41.5082Z" fill="#F3CE7D"/>
<path d="M66.5003 48.5492C66.5025 48.8608 66.381 49.1607 66.1625 49.3829C65.9439 49.6051 65.6462 49.7316 65.3345 49.7347L62.1506 49.7544C61.9963 49.7558 61.8432 49.7267 61.7002 49.6689C61.5571 49.611 61.4269 49.5254 61.3169 49.4171C61.207 49.3088 61.1195 49.1799 61.0594 49.0377C60.9994 48.8956 60.968 48.7429 60.9671 48.5886L60.9414 44.7656V44.7183H66.4747V44.7281L66.5003 48.5492Z" fill="#6D7486"/>
<path d="M40.0589 48.5492C40.0615 48.8609 39.9401 49.161 39.7215 49.3833C39.5028 49.6056 39.2049 49.732 38.8931 49.7347L35.7092 49.7544C35.5549 49.7558 35.4018 49.7267 35.2588 49.6689C35.1157 49.611 34.9855 49.5254 34.8755 49.4171C34.7656 49.3088 34.6781 49.1799 34.618 49.0377C34.558 48.8956 34.5266 48.7429 34.5256 48.5886L34.5 44.7656V44.7183H40.0333V44.7281L40.0589 48.5492Z" fill="#6D7486"/>
<path d="M67.3481 41.2285H33.6511C33.4775 41.2285 33.3375 41.4396 33.3375 41.6112V44.6018C33.3355 44.6916 33.3663 44.7791 33.4239 44.8481C33.4816 44.917 33.5623 44.9626 33.6511 44.9766H67.3481C67.4368 44.9626 67.5176 44.917 67.5753 44.8481C67.6329 44.7791 67.6637 44.6916 67.6617 44.6018V41.6112C67.6617 41.4396 67.5217 41.2285 67.3481 41.2285Z" fill="#7E7EA3"/>
<path d="M42.3054 68.106C34.5272 60.4659 26.4314 49.7386 26.4314 38.1789C26.4314 23.3062 38.3109 11.0746 53.4588 9.65167C52.4856 9.55962 51.4993 9.51313 50.4998 9.51221C33.9689 9.51221 20.5134 22.3503 20.5134 38.1789C20.5134 49.7386 28.6092 60.4659 36.3874 68.106C40.7244 72.3657 45.449 76.2119 50.4998 79.5948C50.4998 79.5948 51.6331 78.8702 53.4588 77.5395C49.5201 74.6658 45.7927 71.5132 42.3054 68.106Z" fill="#4E88B7"/>
<path d="M47.0425 73.6233C46.7789 73.6235 46.5228 73.5353 46.3152 73.3728C43.295 71.0162 38.8163 67.2427 34.6317 62.6478C34.525 62.5333 34.442 62.3987 34.3876 62.2519C34.3333 62.105 34.3086 61.9489 34.315 61.7924C34.3214 61.636 34.3587 61.4824 34.4249 61.3405C34.4911 61.1986 34.5848 61.0712 34.7006 60.9658C34.8163 60.8604 34.9518 60.7789 35.0993 60.7262C35.2467 60.6736 35.4032 60.6507 35.5595 60.6588C35.7159 60.667 35.8691 60.7062 36.0102 60.774C36.1513 60.8418 36.2776 60.937 36.3817 61.0539C40.4546 65.5261 44.8235 69.2065 47.7712 71.5064C47.9656 71.6581 48.1078 71.8667 48.178 72.103C48.2481 72.3394 48.2426 72.5918 48.1624 72.8249C48.0821 73.0581 47.9311 73.2603 47.7303 73.4035C47.5295 73.5466 47.2891 73.6234 47.0425 73.6233Z" fill="#F4F8FC"/>
<path d="M33.3627 60.5704C33.1886 60.5707 33.0167 60.5325 32.8592 60.4586C32.7017 60.3847 32.5624 60.2768 32.4515 60.1428C32.2106 59.8534 31.9721 59.561 31.736 59.2655C31.6344 59.1447 31.5579 59.0049 31.5112 58.8541C31.4644 58.7034 31.4482 58.5448 31.4637 58.3877C31.4791 58.2306 31.5258 58.0782 31.601 57.9394C31.6762 57.8007 31.7784 57.6783 31.9016 57.5797C32.0248 57.481 32.1665 57.4079 32.3184 57.3648C32.4702 57.3217 32.6291 57.3094 32.7858 57.3286C32.9425 57.3479 33.0937 57.3982 33.2306 57.4768C33.3675 57.5553 33.4873 57.6605 33.583 57.786C33.8109 58.0702 34.041 58.3521 34.2734 58.6317C34.417 58.8046 34.5084 59.0148 34.5369 59.2377C34.5654 59.4606 34.5298 59.6871 34.4344 59.8905C34.3389 60.094 34.1875 60.2661 33.9979 60.3866C33.8082 60.5072 33.5882 60.5713 33.3634 60.5714L33.3627 60.5704Z" fill="#F4F8FC"/>
</svg>
