<svg width="52" height="52" viewBox="0 0 52 52" fill="none" xmlns="http://www.w3.org/2000/svg">
<g clip-path="url(#clip0)">
<path d="M49.6363 33.0906H2.36366C1.06366 33.0906 0 32.0269 0 30.7269V4.72694C0 3.42695 1.06366 2.36328 2.36366 2.36328H49.6364C50.9364 2.36328 52.0001 3.42695 52.0001 4.72694V30.7269C52 32.0269 50.9363 33.0906 49.6363 33.0906Z" fill="#0E9347"/>
<path d="M43.7274 23.6367C41.0092 23.6367 38.5274 24.9367 37.1092 27.0639C35.9274 26.4732 34.6274 26.0004 33.0911 26.0004C28.9547 26.0004 25.5274 29.0732 24.9365 33.0913H49.6365C50.8183 33.0913 51.7638 32.264 52.0002 31.0822C51.5274 26.9458 47.982 23.6367 43.7274 23.6367Z" fill="#0D8944"/>
<path d="M44.9087 30.7274H7.09051C7.09051 28.1274 4.96328 26.0002 2.36328 26.0002V9.45476C4.96328 9.45476 7.09051 7.32754 7.09051 4.72754H44.9087C44.9087 7.32754 47.036 9.45476 49.636 9.45476V26.0002C47.036 26.0002 44.9087 28.1274 44.9087 30.7274Z" fill="#3BB54A"/>
<path d="M43.7273 23.6367C41.0091 23.6367 38.5273 24.9367 37.1091 27.0639C35.9273 26.4732 34.6273 26.0004 33.091 26.0004C29.7818 26.0004 26.9455 27.8913 25.6455 30.7276H44.9092C44.9092 28.1276 46.9183 26.1185 49.5183 26.0004C47.9818 24.5822 45.9728 23.6367 43.7273 23.6367Z" fill="#0E9347"/>
<path d="M25.9995 28.3635C31.2211 28.3635 35.454 23.6014 35.454 17.7272C35.454 11.8529 31.2211 7.09082 25.9995 7.09082C20.7779 7.09082 16.5449 11.8529 16.5449 17.7272C16.5449 23.6014 20.7779 28.3635 25.9995 28.3635Z" fill="#0E9347"/>
<path d="M11.8178 20.0906C13.1232 20.0906 14.1814 19.0324 14.1814 17.7269C14.1814 16.4215 13.1232 15.3633 11.8178 15.3633C10.5123 15.3633 9.4541 16.4215 9.4541 17.7269C9.4541 19.0324 10.5123 20.0906 11.8178 20.0906Z" fill="#0E9347"/>
<path d="M40.181 20.0906C41.4865 20.0906 42.5447 19.0324 42.5447 17.7269C42.5447 16.4215 41.4865 15.3633 40.181 15.3633C38.8756 15.3633 37.8174 16.4215 37.8174 17.7269C37.8174 19.0324 38.8756 20.0906 40.181 20.0906Z" fill="#0E9347"/>
<path d="M27.1815 16.5456H24.8178C24.1087 16.5456 23.636 16.0729 23.636 15.3638C23.636 14.6547 24.1088 14.1821 24.8178 14.1821H28.3632C29.0724 14.1821 29.545 13.7093 29.545 13.0003C29.545 12.2912 29.0723 11.8185 28.3632 11.8185H27.1815C27.1815 11.1094 26.7087 10.6367 25.9997 10.6367C25.2906 10.6367 24.8179 11.1095 24.8179 11.8185C22.8088 11.8185 21.2725 13.3548 21.2725 15.3639C21.2725 17.3731 22.8088 18.9094 24.8179 18.9094H27.1816C27.8907 18.9094 28.3633 19.3822 28.3633 20.0912C28.3633 20.8003 27.8906 21.273 27.1816 21.273H23.6361C22.927 21.273 22.4543 21.7457 22.4543 22.4547C22.4543 23.1638 22.9271 23.6365 23.6361 23.6365H24.8179C24.8179 24.3456 25.2907 24.8183 25.9997 24.8183C26.7088 24.8183 27.1815 24.3455 27.1815 23.6365C29.1906 23.6365 30.7269 22.1002 30.7269 20.0911C30.7269 18.082 29.1906 16.5456 27.1815 16.5456Z" fill="#89C763"/>
<path d="M30.7279 42.5455C35.2968 42.5455 39.0006 38.8417 39.0006 34.2728C39.0006 29.7038 35.2968 26 30.7279 26C26.1589 26 22.4551 29.7038 22.4551 34.2728C22.4551 38.8417 26.1589 42.5455 30.7279 42.5455Z" fill="#FFCA5D"/>
<path d="M41.3636 40.1823C45.9325 40.1823 49.6364 36.4784 49.6364 31.9095C49.6364 27.3406 45.9325 23.6367 41.3636 23.6367C36.7947 23.6367 33.0908 27.3406 33.0908 31.9095C33.0908 36.4784 36.7947 40.1823 41.3636 40.1823Z" fill="#F6B545"/>
<path d="M41.3636 23.6367C36.7545 23.6367 33.0908 27.3004 33.0908 31.9095C33.0908 36.5186 36.7545 40.1823 41.3636 40.1823C45.9727 40.1823 49.6364 36.5186 49.6364 31.9095C49.6364 27.3004 45.9727 23.6367 41.3636 23.6367ZM41.3636 37.8186C38.0545 37.8186 35.4545 35.2186 35.4545 31.9095C35.4545 28.6004 38.0545 26.0004 41.3636 26.0004C44.6727 26.0004 47.2727 28.6004 47.2727 31.9095C47.2727 35.2186 44.6727 37.8186 41.3636 37.8186Z" fill="#FFCB5B"/>
<path d="M41.3633 40.0637C45.9724 40.182 49.6361 36.4001 49.6361 31.9092H49.5178C48.9269 31.9092 48.4542 32.382 48.3361 32.9728C48.0997 34.6274 47.2724 36.1637 46.0906 37.2274C45.1452 38.1728 43.8452 38.7637 42.4269 39.0001C41.836 39.0001 41.3633 39.4728 41.3633 40.0637Z" fill="#F6B545"/>
<path d="M41.3636 23.7547C36.7545 23.6364 33.0908 27.4183 33.0908 31.9092H33.209C33.7999 31.9092 34.2727 31.4364 34.3908 30.8455C34.6272 29.191 35.4545 27.6547 36.6363 26.591C37.5817 25.6455 38.8817 25.0547 40.2999 24.8182C40.8908 24.8183 41.3636 24.3455 41.3636 23.7547Z" fill="#FFE27A"/>
<path d="M36.2813 32.7363C36.2813 29.4272 38.8813 26.8272 42.1904 26.8272C43.6087 26.8272 44.9087 27.3 45.9722 28.2454C44.7904 26.8272 43.2541 26 41.3632 26C38.0541 26 35.4541 28.6 35.4541 31.9091C35.4541 33.8 36.2813 35.3363 37.5813 36.4C36.7541 35.4546 36.2813 34.1546 36.2813 32.7363Z" fill="#F19920"/>
<path d="M44.9088 35.5729C44.7905 35.5729 44.6724 35.5729 44.5542 35.4547C44.3179 35.2184 44.3179 34.8638 44.5542 34.6275C45.2633 33.9184 45.6179 32.8547 45.6179 31.9092C45.6179 31.5547 45.8542 31.3184 46.2088 31.3184C46.5633 31.3184 46.7997 31.5547 46.7997 31.9092C46.7997 33.2092 46.3269 34.5092 45.4997 35.4547C45.2633 35.5729 45.0269 35.5729 44.9088 35.5729Z" fill="#FFCB5B"/>
<path d="M41.3634 35.4541C40.6543 35.4541 40.1816 34.9813 40.1816 34.2723V29.5451C40.1816 28.836 40.6544 28.3633 41.3634 28.3633C42.0724 28.3633 42.5452 28.8361 42.5452 29.5451V34.2723C42.5452 34.9813 42.0725 35.4541 41.3634 35.4541Z" fill="#F19920"/>
<path d="M45.7363 38.8818C44.9091 35.9272 42.7818 33.5636 40.0635 32.5C39.5908 29.7818 37.8181 27.4182 35.5727 26C34.1544 27.5363 33.209 29.5454 33.209 31.7909C33.209 36.4 36.8727 40.0637 41.4818 40.0637C43.0182 40.1818 44.4363 39.7091 45.7363 38.8818Z" fill="#F19920"/>
<path d="M37.5824 36.3997C36.7552 35.336 36.1642 34.036 36.1642 32.6179C36.1642 30.9634 36.8733 29.427 38.0551 28.3634C37.8187 28.0088 37.5823 27.7725 37.346 27.5361C36.1642 28.5998 35.4551 30.1361 35.4551 31.9089C35.4552 33.7997 36.2824 35.336 37.5824 36.3997Z" fill="#E78825"/>
<path d="M40.1826 32.6182V34.2727C40.1826 34.9818 40.6554 35.4545 41.3644 35.4545C42.0734 35.4545 42.5462 34.9817 42.5462 34.2727V34.0364C41.8372 33.4454 41.0099 32.9727 40.1826 32.6182Z" fill="#E78825"/>
<path d="M45.7363 38.8819C45.4999 38.0547 45.2635 37.3456 44.7908 36.6365C43.8454 37.3456 42.6636 37.8183 41.3636 37.8183C38.0545 37.8183 35.4545 35.2183 35.4545 31.9092C35.4545 30.1364 36.1636 28.6 37.3454 27.5364C36.7545 26.9455 36.1636 26.4727 35.4545 26.1182C34.0363 27.6545 33.0908 29.6636 33.0908 31.9091C33.0908 36.5182 36.7545 40.1818 41.3636 40.1818C43.0181 40.1819 44.4363 39.7093 45.7363 38.8819Z" fill="#F6B545"/>
<path d="M45.3815 37.8184C44.5543 38.4092 43.4906 38.7638 42.4269 39.0001C41.8361 39.1184 41.3633 39.591 41.3633 40.1819C43.0178 40.1819 44.4361 39.7091 45.7361 38.8819C45.6179 38.5274 45.4997 38.1729 45.3815 37.8184Z" fill="#F19920"/>
<path d="M35.4545 26.1182C34.0363 27.6545 33.0908 29.6636 33.0908 31.9091H33.209C33.7999 31.9091 34.2727 31.4363 34.3908 30.8454C34.6272 29.1908 35.4545 27.7726 36.518 26.7091C36.1636 26.5908 35.809 26.3545 35.4545 26.1182Z" fill="#FFCB5B"/>
<path d="M30.7279 42.5455C35.2968 42.5455 39.0006 38.8417 39.0006 34.2728C39.0006 29.7038 35.2968 26 30.7279 26C26.1589 26 22.4551 29.7038 22.4551 34.2728C22.4551 38.8417 26.1589 42.5455 30.7279 42.5455Z" fill="#F6B545"/>
<path d="M29.5459 40.182C29.5459 41.0092 29.6641 41.7183 29.9005 42.5456C30.1368 42.5456 30.4913 42.5456 30.7277 42.5456C35.3368 42.5456 39.0005 38.882 39.0005 34.2728C39.0005 33.4456 38.8822 32.7365 38.6459 31.9092C38.4096 31.9092 38.055 31.9092 37.8187 31.9092C33.2096 31.9093 29.5459 35.5729 29.5459 40.182Z" fill="#F19920"/>
<path d="M30.7279 26C26.1187 26 22.4551 29.6637 22.4551 34.2728C22.4551 38.8819 26.1187 42.5455 30.7279 42.5455C35.337 42.5455 39.0006 38.8818 39.0006 34.2728C39.0006 29.6638 35.337 26 30.7279 26ZM30.7279 40.1818C27.4187 40.1818 24.8187 37.5818 24.8187 34.2727C24.8187 30.9636 27.4187 28.3636 30.7279 28.3636C34.037 28.3636 36.637 30.9636 36.637 34.2727C36.637 37.5818 34.037 40.1818 30.7279 40.1818Z" fill="#FFCB5B"/>
<path d="M30.7275 42.4269C35.3366 42.5451 39.0003 38.7634 39.0003 34.2725H38.8821C38.2912 34.2725 37.8184 34.7452 37.7003 35.3361C37.464 36.9907 36.6366 38.527 35.4549 39.5907C34.5094 40.5361 33.2094 41.127 31.7912 41.3635C31.2003 41.3633 30.7275 41.836 30.7275 42.4269Z" fill="#F6B545"/>
<path d="M30.7279 26.1179C26.1187 25.9997 22.4551 29.7816 22.4551 34.2725H22.5733C23.1642 34.2725 23.637 33.7997 23.7551 33.2088C23.9914 31.5543 24.8187 30.0179 26.0005 28.9543C26.946 28.0088 28.246 27.4179 29.6642 27.1815C30.2552 27.1815 30.7279 26.7088 30.7279 26.1179Z" fill="#FFE27A"/>
<path d="M25.6447 35.0996C25.6447 31.7905 28.2447 29.1905 31.5538 29.1905C32.972 29.1905 34.272 29.6633 35.3356 30.6087C34.1538 29.1905 32.6174 28.3633 30.7265 28.3633C27.4174 28.3633 24.8174 30.9633 24.8174 34.2724C24.8174 36.1633 25.6446 37.6996 26.9446 38.7633C26.1175 37.8178 25.6447 36.5178 25.6447 35.0996Z" fill="#F19920"/>
<path d="M34.273 37.9362C34.1548 37.9362 34.0367 37.9362 33.9185 37.818C33.6821 37.5817 33.6821 37.2271 33.9185 36.9908C34.6276 36.2816 34.9821 35.218 34.9821 34.2725C34.9821 33.918 35.2185 33.6816 35.573 33.6816C35.9276 33.6816 36.1639 33.918 36.1639 34.2725C36.1639 35.5725 35.6911 36.8725 34.8639 37.818C34.6275 37.9362 34.3911 37.9362 34.273 37.9362Z" fill="#FFCB5B"/>
<path d="M30.7277 37.8183C30.0186 37.8183 29.5459 37.3456 29.5459 36.6365V31.9093C29.5459 31.2002 30.0187 30.7275 30.7277 30.7275C31.4368 30.7275 31.9095 31.2003 31.9095 31.9093V36.6365C31.9096 37.3456 31.4368 37.8183 30.7277 37.8183Z" fill="#F19920"/>
<path d="M36.163 32.0274C36.3994 32.7365 36.6358 33.4456 36.6358 34.2728C36.6358 37.582 34.0358 40.182 30.7267 40.182C30.3721 40.182 29.8995 40.182 29.5449 40.0637V40.182C29.5449 41.0092 29.6631 41.7183 29.8995 42.5456C30.1358 42.5456 30.4904 42.5456 30.7267 42.5456C35.3358 42.5456 38.9995 38.882 38.9995 34.2728C38.9995 33.4456 38.8813 32.7365 38.6449 31.9092C38.4086 31.9092 38.054 31.9092 37.8177 31.9092C37.2266 31.9093 36.7539 31.9093 36.163 32.0274Z" fill="#F6B545"/>
<path d="M36.6361 49.6364C41.205 49.6364 44.9088 45.9325 44.9088 41.3636C44.9088 36.7947 41.205 33.0908 36.6361 33.0908C32.0671 33.0908 28.3633 36.7947 28.3633 41.3636C28.3633 45.9325 32.0671 49.6364 36.6361 49.6364Z" fill="#F6B545"/>
<path d="M36.6361 33.0908C32.0269 33.0908 28.3633 36.7545 28.3633 41.3636C28.3633 45.9727 32.0269 49.6364 36.6361 49.6364C41.2452 49.6364 44.9088 45.9727 44.9088 41.3636C44.9088 36.7545 41.2452 33.0908 36.6361 33.0908ZM36.6361 47.2727C33.3269 47.2727 30.7269 44.6727 30.7269 41.3636C30.7269 38.0545 33.3269 35.4545 36.6361 35.4545C39.9452 35.4545 42.5452 38.0545 42.5452 41.3636C42.5452 44.6727 39.9452 47.2727 36.6361 47.2727Z" fill="#FFCB5B"/>
<path d="M36.6367 49.5178C41.2458 49.636 44.9095 45.8542 44.9095 41.3633H44.7913C44.2004 41.3633 43.7276 41.8361 43.6095 42.4269C43.3732 44.0815 42.5458 45.6178 41.3641 46.6815C40.4186 47.6269 39.1186 48.2178 37.7004 48.4543C37.1095 48.4542 36.6367 48.9268 36.6367 49.5178Z" fill="#F6B545"/>
<path d="M36.6361 33.2088C32.0269 33.0905 28.3633 36.8724 28.3633 41.3633H28.4815C29.0724 41.3633 29.5452 40.8905 29.6633 40.2996C29.8996 38.6451 30.7269 37.1088 31.9087 36.0451C32.8542 35.0996 34.1542 34.5088 35.5724 34.2723C36.1634 34.2724 36.6361 33.7996 36.6361 33.2088Z" fill="#FFE27A"/>
<path d="M31.5549 42.1904C31.5549 38.8813 34.1549 36.2813 37.464 36.2813C38.8822 36.2813 40.1822 36.7541 41.2458 37.6995C40.064 36.2813 38.5275 35.4541 36.6366 35.4541C33.3275 35.4541 30.7275 38.0541 30.7275 41.3632C30.7275 43.2541 31.5548 44.7904 32.8548 45.8541C32.0275 44.9087 31.5549 43.6087 31.5549 42.1904Z" fill="#F19920"/>
<path d="M40.1812 45.027C40.063 45.027 39.9449 45.027 39.8267 44.9088C39.5903 44.6725 39.5903 44.3179 39.8267 44.0816C40.5358 43.3725 40.8903 42.3088 40.8903 41.3634C40.8903 41.0088 41.1267 40.7725 41.4812 40.7725C41.8358 40.7725 42.0721 41.0088 42.0721 41.3634C42.0721 42.6634 41.5993 43.9634 40.7721 44.9088C40.5358 45.027 40.2994 45.027 40.1812 45.027Z" fill="#FFCB5B"/>
<path d="M36.6359 44.9092C35.9268 44.9092 35.4541 44.4365 35.4541 43.7275V39.0001C35.4541 38.291 35.9269 37.8184 36.6359 37.8184C37.345 37.8184 37.8177 38.2911 37.8177 39.0001V43.7274C37.8178 44.4365 37.345 44.9092 36.6359 44.9092Z" fill="#F19920"/>
</g>
<defs>
<clipPath id="clip0">
<rect width="52" height="52" fill="white"/>
</clipPath>
</defs>
</svg>
