<svg xmlns="http://www.w3.org/2000/svg" xmlns:xlink="http://www.w3.org/1999/xlink" viewBox="0 0 1001.55 511.83"><defs><style>.cls-1{fill:none;}.cls-2{clip-path:url(#clip-path);}.cls-3{fill:#081542;}.cls-4{fill:#081541;}.cls-5{fill:#091644;}</style><clipPath id="clip-path" transform="translate(-11.22 -11.87)"><path class="cls-1" d="M1012.78,253.82,713.84,46.57l42.31-31.46-66.07,2.44L681.35,24,663.8,11.87l-144.36,4,88,63.05L509,152.18l-92.78-69L504.56,20l-144.36-4L342.36,28.28,325.73,15.91l-66.07-2.44L309.87,50.8,11.22,257.86l295.16,222.8-46.72,34.13,66.07-2.44L337,503.77l26.4,19.93,144.7-6.2-94.44-72,93.17-70.8,95.69,72.72-86.62,66,144.7,6.2,18.54-14L690.08,514l66.07,2.44-46.38-33.88ZM384.71,423.44,169.84,259.64,384.25,106.1l93.37,69.42L359.8,263.12,391,286.64l88.72,67.43ZM509,198.86l90.75,67.48-93,67.92L416.05,268ZM533.94,354.1,624.86,285,656,261.49l-115.61-86,99.07-73.66L854.16,255.6,631.48,425.36Z"/></clipPath></defs><g id="Layer_1" data-name="Layer 1"><g class="cls-2"><rect class="cls-3" x="522.72" y="89.99" width="113.29" height="323.5"/><rect class="cls-4" x="636.01" y="89.99" width="206.93" height="323.5"/><rect class="cls-3" x="404.83" y="186.99" width="183.71" height="135.4"/><rect class="cls-5" x="158.61" y="94.23" width="159.39" height="317.34"/><rect class="cls-3" x="318" y="94.23" width="150.44" height="317.34"/><path class="cls-5" d="M11.22,11.87v0Z" transform="translate(-11.22 -11.87)"/><rect class="cls-5" width="318" height="511.83"/><rect class="cls-3" x="318" width="318" height="511.83"/><rect class="cls-4" x="636.01" width="318" height="511.83"/><rect class="cls-4" x="954.01" width="47.54" height="511.83"/></g></g></svg>