<?xml version="1.0" encoding="utf-8"?>
<!-- Generator: Adobe Illustrator 25.0.0, SVG Export Plug-In . SVG Version: 6.00 Build 0)  -->
<svg version="1.1" id="Layer_1" xmlns="http://www.w3.org/2000/svg" xmlns:xlink="http://www.w3.org/1999/xlink" x="0px" y="0px"
	 viewBox="0 0 64 64" style="enable-background:new 0 0 64 64;" xml:space="preserve">
<style type="text/css">
	.st0{clip-path:url(#SVGID_2_);}
	.st1{fill:#FFFFFF;}
	.st2{fill:none;stroke:#142647;stroke-miterlimit:10;}
	.st3{fill:#7383BF;}
	.st4{fill:#162647;}
</style>
<g>
	<defs>
		<rect id="SVGID_1_" width="64" height="64"/>
	</defs>
	<clipPath id="SVGID_2_">
		<use xlink:href="#SVGID_1_"  style="overflow:visible;"/>
	</clipPath>
	<g class="st0">
		<path class="st1" d="M55.5,25.3C55.5,38.9,32,62.4,32,62.4S8.5,38.9,8.5,25.3C8.5,11.6,19,0.5,32,0.5S55.5,11.6,55.5,25.3z"/>
		<path class="st2" d="M32,42.1c10,0,18.1-8.1,18.1-18.1S42,5.9,32,5.9S13.9,14,13.9,24S22,42.1,32,42.1z"/>
		<path class="st3" d="M62.9,63.5h-4.3c-0.6,0-1.1-0.5-1.1-1.1c0-0.6,0.5-1.1,1.1-1.1h4.3c0.6,0,1.1,0.5,1.1,1.1
			C64,63,63.5,63.5,62.9,63.5z"/>
		<path class="st3" d="M25.6,63.5H1.1C0.5,63.5,0,63,0,62.4c0-0.6,0.5-1.1,1.1-1.1h24.5c0.6,0,1.1,0.5,1.1,1.1
			C26.7,63,26.2,63.5,25.6,63.5z"/>
		<path class="st3" d="M51.2,63.5H38.4c-0.6,0-1.1-0.5-1.1-1.1c0-0.6,0.5-1.1,1.1-1.1h12.8c0.6,0,1.1,0.5,1.1,1.1
			C52.3,63,51.8,63.5,51.2,63.5z"/>
		<path class="st4" d="M34.1,13.3h-6.4h-2.1v21.3h4.3v-8.5h4.3c3.5,0,6.4-2.9,6.4-6.4S37.7,13.3,34.1,13.3z M34.1,21.9h-4.3v-4.3
			h4.3c1.2,0,2.1,1,2.1,2.1C36.3,20.9,35.3,21.9,34.1,21.9z"/>
		<path class="st4" d="M32,62.4c0,0,0.4-0.4,1.1-1.1v-8.5c0-0.6-0.5-1.1-1.1-1.1c-0.6,0-1.1,0.5-1.1,1.1v8.5
			C31.6,62,32,62.4,32,62.4z"/>
	</g>
</g>
</svg>
