<svg width="43" height="43" viewBox="0 0 43 43" fill="none" xmlns="http://www.w3.org/2000/svg">
<g clip-path="url(#clip0)">
<path d="M40.481 10.666V4.64778C40.481 3.47427 39.5263 2.51953 38.3528 2.51953H32.3345C30.669 2.51953 30.6666 0 32.3345 0H38.3528C40.9156 0 43.0005 2.085 43.0005 4.64778V10.666C43.0005 12.3316 40.481 12.3339 40.481 10.666Z" fill="#001737"/>
<path d="M0 10.666V4.64778C0 2.085 2.085 0 4.64778 0H10.666C12.3316 0 12.3339 2.51953 10.666 2.51953H4.64778C3.47427 2.51953 2.51953 3.47427 2.51953 4.64778V10.666C2.51953 12.3316 0 12.3339 0 10.666H0Z" fill="#00357B"/>
<path d="M10.666 43.0001H4.64778C2.085 43.0001 0 40.9151 0 38.3523V32.334C0 30.6685 2.51953 30.6661 2.51953 32.334V38.3523C2.51953 39.5258 3.47427 40.4805 4.64778 40.4805H10.666C12.3316 40.4805 12.3339 43.0001 10.666 43.0001Z" fill="#00357B"/>
<path d="M38.3528 43.0001H32.3345C30.669 43.0001 30.6666 40.4805 32.3345 40.4805H38.3528C39.5263 40.4805 40.481 39.5258 40.481 38.3523V32.334C40.481 30.6685 43.0005 30.6661 43.0005 32.334V38.3523C43.0005 40.9151 40.9156 43.0001 38.3528 43.0001Z" fill="#001737"/>
<path d="M37.541 22.8438V36.2812C37.541 36.9766 36.9766 37.541 36.2812 37.541H22.8438C22.1484 37.541 21.584 36.9766 21.584 36.2812V22.8438C21.584 22.1484 22.1484 21.584 22.8438 21.584H36.2812C36.9766 21.584 37.541 22.1484 37.541 22.8438Z" fill="#00357B"/>
<path d="M37.541 22.8438V36.2812C37.541 36.9766 36.9766 37.541 36.2812 37.541H29.5625V21.584H36.2812C36.9766 21.584 37.541 22.1484 37.541 22.8438Z" fill="#001737"/>
<path d="M30.9059 30.8223H28.2184C26.5518 30.8223 26.5513 28.3027 28.2184 28.3027H30.9059C32.5725 28.3027 32.573 30.8223 30.9059 30.8223Z" fill="#ECF9FD"/>
<path d="M30.9062 30.8223H29.5625V28.3027H30.9062C32.5728 28.3027 32.5733 30.8223 30.9062 30.8223Z" fill="#D9F3FC"/>
<path d="M36.8691 8.0625V17.4688C36.8691 18.1641 36.3048 18.7285 35.6094 18.7285H26.2031C25.5077 18.7285 24.9434 18.1641 24.9434 17.4688V8.0625C24.9434 7.36711 25.5077 6.80273 26.2031 6.80273H35.6094C36.3048 6.80273 36.8691 7.36711 36.8691 8.0625Z" fill="#FF2828"/>
<path d="M36.8691 8.0625V17.4688C36.8691 18.1641 36.3048 18.7285 35.6094 18.7285H30.9062V6.80273H35.6094C36.3048 6.80273 36.8691 7.36711 36.8691 8.0625Z" fill="#CC0000"/>
<path d="M20.0723 6.71875V18.8125C20.0723 19.5079 19.5079 20.0723 18.8125 20.0723H6.71875C6.02336 20.0723 5.45898 19.5079 5.45898 18.8125V6.71875C5.45898 6.02336 6.02336 5.45898 6.71875 5.45898H18.8125C19.5079 5.45898 20.0723 6.02336 20.0723 6.71875Z" fill="#00357B"/>
<path d="M20.0723 6.71875V18.8125C20.0723 19.5079 19.5079 20.0723 18.8125 20.0723H12.7656V5.45898H18.8125C19.5079 5.45898 20.0723 6.02336 20.0723 6.71875Z" fill="#001737"/>
<path d="M14.0254 12.0939V13.4376C14.0254 15.1042 11.5059 15.1046 11.5059 13.4376V12.0939C11.5059 10.4273 14.0254 10.4268 14.0254 12.0939Z" fill="#ECF9FD"/>
<path d="M14.0254 12.0938V13.4375C14.0254 14.1329 13.461 14.6973 12.7656 14.6973V10.834C13.461 10.834 14.0254 11.3984 14.0254 12.0938Z" fill="#D9F3FC"/>
<path d="M17.4688 37.5411H6.71875C6.02302 37.5411 5.45898 36.977 5.45898 36.2813V24.1876C5.45898 22.522 7.97852 22.5196 7.97852 24.1876V35.0215H17.4688C19.1343 35.0215 19.1367 37.5411 17.4688 37.5411Z" fill="#FF2828"/>
<path d="M10.834 30.9063V24.1876C10.834 22.522 13.3535 22.5196 13.3535 24.1876V30.9063C13.3535 32.5719 10.834 32.5742 10.834 30.9063Z" fill="#FF2828"/>
<path d="M16.209 30.9063V24.1876C16.209 22.522 18.7285 22.5196 18.7285 24.1876V30.9063C18.7285 32.5719 16.209 32.5742 16.209 30.9063Z" fill="#FF2828"/>
</g>
<defs>
<clipPath id="clip0">
<rect width="43" height="43" fill="white"/>
</clipPath>
</defs>
</svg>
