<svg width="81" height="81" viewBox="0 0 81 81" fill="none" xmlns="http://www.w3.org/2000/svg">
<path d="M75.8756 73.4062V1.26562C75.8756 0.566684 75.3089 0 74.61 0H13.8787C13.1797 0 12.613 0.566684 12.613 1.26562V81H68.2819C72.4758 81 75.8756 77.6002 75.8756 73.4062Z" fill="#FBE4A5"/>
<path d="M21.4537 0H13.8787C13.1797 0 12.613 0.566684 12.613 1.26562V81H20.1881V1.26562C20.1881 0.566684 20.7548 0 21.4537 0Z" fill="#F8C94A"/>
<path d="M59.5131 73.4062H6.39311C5.60083 73.4062 4.99317 74.1281 5.14869 74.9049C5.84446 78.3811 8.9136 81 12.5945 81H68.282C64.4529 81 61.2858 78.1659 60.7637 74.4809C60.6761 73.8619 60.1384 73.4062 59.5131 73.4062Z" fill="#FAD677"/>
<path d="M67.0166 7.59375H21.4541C20.7552 7.59375 20.1885 8.16043 20.1885 8.85938V18.9844C20.1885 19.6833 20.7552 20.25 21.4541 20.25H67.0166C67.7155 20.25 68.2822 19.6833 68.2822 18.9844V8.85938C68.2822 8.16043 67.7155 7.59375 67.0166 7.59375Z" fill="#FAD677"/>
<path d="M29.0479 29.1094H21.4541C20.7552 29.1094 20.1885 28.5427 20.1885 27.8438C20.1885 27.1448 20.7552 26.5781 21.4541 26.5781H29.0479C29.7468 26.5781 30.3135 27.1448 30.3135 27.8438C30.3135 28.5427 29.7468 29.1094 29.0479 29.1094Z" fill="#FDF1D2"/>
<path d="M67.0166 29.1094H35.376C34.677 29.1094 34.1104 28.5427 34.1104 27.8438C34.1104 27.1448 34.677 26.5781 35.376 26.5781H67.0166C67.7155 26.5781 68.2822 27.1448 68.2822 27.8438C68.2822 28.5427 67.7155 29.1094 67.0166 29.1094Z" fill="#FDF1D2"/>
<path d="M35.376 34.1719H21.4541C20.7552 34.1719 20.1885 33.6052 20.1885 32.9062C20.1885 32.2073 20.7552 31.6406 21.4541 31.6406H35.376C36.0749 31.6406 36.6416 32.2073 36.6416 32.9062C36.6416 33.6052 36.0749 34.1719 35.376 34.1719Z" fill="#FDF1D2"/>
<path d="M67.0166 34.1719H40.4385C39.7395 34.1719 39.1729 33.6052 39.1729 32.9062C39.1729 32.2073 39.7395 31.6406 40.4385 31.6406H67.0166C67.7155 31.6406 68.2822 32.2073 68.2822 32.9062C68.2822 33.6052 67.7155 34.1719 67.0166 34.1719Z" fill="#FDF1D2"/>
<path d="M30.3135 67.0781H21.4541C20.7552 67.0781 20.1885 66.5114 20.1885 65.8125C20.1885 65.1136 20.7552 64.5469 21.4541 64.5469H30.3135C31.0124 64.5469 31.5791 65.1136 31.5791 65.8125C31.5791 66.5114 31.0124 67.0781 30.3135 67.0781Z" fill="#FDF1D2"/>
<path d="M67.0166 67.0781H35.376C34.677 67.0781 34.1104 66.5114 34.1104 65.8125C34.1104 65.1136 34.677 64.5469 35.376 64.5469H67.0166C67.7155 64.5469 68.2822 65.1136 68.2822 65.8125C68.2822 66.5114 67.7155 67.0781 67.0166 67.0781Z" fill="#FDF1D2"/>
<path d="M30.3135 48.0938H27.7822C26.3866 48.0938 25.251 46.9582 25.251 45.5625C25.251 44.1668 26.3866 43.0312 27.7822 43.0312H34.1104C34.8093 43.0312 35.376 42.4646 35.376 41.7656C35.376 41.0667 34.8093 40.5 34.1104 40.5H30.3135V39.2344C30.3135 38.5354 29.7468 37.9688 29.0479 37.9688C28.3489 37.9688 27.7822 38.5354 27.7822 39.2344V40.5C24.9907 40.5 22.7197 42.771 22.7197 45.5625C22.7197 48.354 24.9907 50.625 27.7822 50.625H30.3135C31.7091 50.625 32.8447 51.7606 32.8447 53.1562C32.8447 54.5519 31.7091 55.6875 30.3135 55.6875H23.9854C23.2864 55.6875 22.7197 56.2542 22.7197 56.9531C22.7197 57.6521 23.2864 58.2188 23.9854 58.2188H27.7822V59.4844C27.7822 60.1833 28.3489 60.75 29.0479 60.75C29.7468 60.75 30.3135 60.1833 30.3135 59.4844V58.2188C33.105 58.2188 35.376 55.9477 35.376 53.1562C35.376 50.3648 33.1048 48.0938 30.3135 48.0938Z" fill="#EE9F54"/>
<path d="M45.501 48.0938H42.9697C41.5741 48.0938 40.4385 46.9582 40.4385 45.5625C40.4385 44.1668 41.5741 43.0312 42.9697 43.0312H49.2978C49.9968 43.0312 50.5635 42.4646 50.5635 41.7656C50.5635 41.0667 49.9968 40.5 49.2978 40.5H45.501V39.2344C45.501 38.5354 44.9343 37.9688 44.2353 37.9688C43.5364 37.9688 42.9697 38.5354 42.9697 39.2344V40.5C40.1782 40.5 37.9072 42.771 37.9072 45.5625C37.9072 48.354 40.1782 50.625 42.9697 50.625H45.501C46.8966 50.625 48.0322 51.7606 48.0322 53.1562C48.0322 54.5519 46.8966 55.6875 45.501 55.6875H39.1728C38.4739 55.6875 37.9072 56.2542 37.9072 56.9531C37.9072 57.6521 38.4739 58.2188 39.1728 58.2188H42.9697V59.4844C42.9697 60.1833 43.5364 60.75 44.2353 60.75C44.9343 60.75 45.501 60.1833 45.501 59.4844V58.2188C48.2925 58.2188 50.5635 55.9477 50.5635 53.1562C50.5635 50.3648 48.2923 48.0938 45.501 48.0938Z" fill="#EE9F54"/>
<path d="M60.6882 48.0938H58.157C56.7613 48.0938 55.6257 46.9582 55.6257 45.5625C55.6257 44.1668 56.7613 43.0312 58.157 43.0312H64.4851C65.184 43.0312 65.7507 42.4646 65.7507 41.7656C65.7507 41.0667 65.184 40.5 64.4851 40.5H60.6882V39.2344C60.6882 38.5354 60.1215 37.9688 59.4226 37.9688C58.7237 37.9688 58.157 38.5354 58.157 39.2344V40.5C55.3655 40.5 53.0945 42.771 53.0945 45.5625C53.0945 48.354 55.3655 50.625 58.157 50.625H60.6882C62.0839 50.625 63.2195 51.7606 63.2195 53.1562C63.2195 54.5519 62.0839 55.6875 60.6882 55.6875H54.3601C53.6612 55.6875 53.0945 56.2542 53.0945 56.9531C53.0945 57.6521 53.6612 58.2188 54.3601 58.2188H58.157V59.4844C58.157 60.1833 58.7237 60.75 59.4226 60.75C60.1215 60.75 60.6882 60.1833 60.6882 59.4844V58.2188C63.4797 58.2188 65.7507 55.9477 65.7507 53.1562C65.7507 50.3648 63.4796 48.0938 60.6882 48.0938Z" fill="#EE9F54"/>
</svg>
