<?xml version="1.0" encoding="utf-8"?>
<!-- Generator: Adobe Illustrator 25.0.0, SVG Export Plug-In . SVG Version: 6.00 Build 0)  -->
<svg version="1.1" id="Layer_1" xmlns="http://www.w3.org/2000/svg" xmlns:xlink="http://www.w3.org/1999/xlink" x="0px" y="0px"
	 viewBox="0 0 69 69" style="enable-background:new 0 0 69 69;" xml:space="preserve">
<style type="text/css">
	.st0{clip-path:url(#SVGID_2_);}
</style>
<g>
	<g>
		<defs>
			<rect id="SVGID_1_" width="69" height="69"/>
		</defs>
		<clipPath id="SVGID_2_">
			<use xlink:href="#SVGID_1_"  style="overflow:visible;"/>
		</clipPath>
		<g class="st0">
			<path d="M45.3,5.4C44.6,5.4,44,6,44,6.7S44.6,8,45.3,8s1.3-0.6,1.3-1.3S46,5.4,45.3,5.4z"/>
			<path d="M23.7,5.4c-0.7,0-1.3,0.6-1.3,1.3S23,8,23.7,8S25,7.4,25,6.7S24.5,5.4,23.7,5.4z"/>
			<path d="M62.5,66.7l-8.9-9.3c3.6-0.1,6.5-3.1,6.5-6.7v-40c0-2.2-0.8-4.3-2.1-6c-1.4-1.7-3.3-2.8-5.5-3.3C47.7,0.5,42.8,0,38,0
				h-7.1c-4.6,0-9.5,0.4-14.4,1.4c-4.4,0.9-7.6,4.8-7.6,9.3v40c0,3.7,2.9,6.7,6.6,6.7l-9,9.3c-0.4,0.4-0.5,1-0.3,1.5
				C6.4,68.7,6.9,69,7.4,69H17c0.4,0,0.8-0.2,1.1-0.6l4.1-5.6h24.6l4.1,5.6c0.3,0.3,0.7,0.6,1.1,0.6h9.5c0.5,0,1-0.3,1.2-0.8
				C63,67.7,62.9,67.1,62.5,66.7z M11.6,50.7v-40c0-3.2,2.3-6,5.4-6.6c4.4-0.9,9-1.4,13.8-1.4H38c4.7,0,9.4,0.5,14,1.4
				c1.5,0.3,2.9,1.1,3.9,2.3s1.5,2.7,1.5,4.3v40c0,2.2-1.8,4-4,4H15.6C13.4,54.7,11.6,52.9,11.6,50.7z M16.4,66.3h-5.8l8.6-8.9h3.6
				L16.4,66.3z M24.2,60.1l2-2.7H43l2,2.7H24.2z M52.7,66.3l-6.4-8.9h3.6l8.5,8.9H52.7z"/>
			<path d="M53.4,10.8H15.6c-0.7,0-1.3,0.6-1.3,1.3v22.4c0,0.7,0.6,1.3,1.3,1.3h37.7c0.7,0,1.3-0.6,1.3-1.3V12.1
				C54.7,11.4,54.1,10.8,53.4,10.8z M33.2,33.2H17V13.5h16.2V33.2z M52,33.2H35.9V13.5H52V33.2z"/>
			<path d="M39.9,5.4H29.1c-0.7,0-1.3,0.6-1.3,1.3S28.4,8,29.1,8h10.8c0.7,0,1.3-0.6,1.3-1.3S40.6,5.4,39.9,5.4z"/>
			<path d="M49.3,39.9c-3,0-5.4,2.4-5.4,5.4s2.4,5.4,5.4,5.4s5.4-2.4,5.4-5.4C54.7,42.3,52.3,39.9,49.3,39.9z M49.3,48
				c-1.5,0-2.7-1.2-2.7-2.7s1.2-2.7,2.7-2.7s2.7,1.2,2.7,2.7S50.8,48,49.3,48z"/>
			<path d="M19.7,39.9c-3,0-5.4,2.4-5.4,5.4s2.4,5.4,5.4,5.4s5.4-2.4,5.4-5.4C25.1,42.3,22.7,39.9,19.7,39.9z M19.7,48
				c-1.5,0-2.7-1.2-2.7-2.7s1.2-2.7,2.7-2.7s2.7,1.2,2.7,2.7C22.4,46.8,21.2,48,19.7,48z"/>
			<path d="M39.9,41.2H29.1c-0.7,0-1.3,0.6-1.3,1.3s0.6,1.3,1.3,1.3h10.8c0.7,0,1.3-0.6,1.3-1.3S40.6,41.2,39.9,41.2z"/>
			<path d="M39.9,46.6H29.1c-0.7,0-1.3,0.6-1.3,1.3s0.6,1.3,1.3,1.3h10.8c0.7,0,1.3-0.6,1.3-1.3C41.2,47.2,40.6,46.6,39.9,46.6z"/>
		</g>
	</g>
</g>
</svg>
