<svg width="58" height="58" viewBox="0 0 58 58" fill="none" xmlns="http://www.w3.org/2000/svg">
<g clip-path="url(#clip0)">
<path d="M29.0007 57.9995C45.0168 57.9995 58.0005 45.0159 58.0005 28.9997C58.0005 12.9836 45.0168 0 29.0007 0C12.9846 0 0.000976562 12.9836 0.000976562 28.9997C0.000976562 45.0159 12.9846 57.9995 29.0007 57.9995Z" fill="#55ACEE"/>
<path d="M46.7632 20.8413C45.5205 21.3924 44.1837 21.7651 42.7817 21.9316C44.2131 21.074 45.3117 19.717 45.8302 18.0974C44.4907 18.8919 43.0066 19.4683 41.4283 19.779C40.1639 18.4324 38.3623 17.5908 36.3674 17.5908C32.5399 17.5908 29.4357 20.695 29.4357 24.5225C29.4357 25.0658 29.4972 25.5947 29.6161 26.1023C23.8552 25.8133 18.7473 23.0539 15.3282 18.8588C14.7316 19.8824 14.3894 21.074 14.3894 22.3441C14.3894 24.7484 15.614 26.871 17.473 28.1138C16.3372 28.0781 15.2677 27.7664 14.3336 27.2458C14.333 27.2753 14.333 27.3047 14.333 27.3337C14.333 30.6923 16.7234 33.4936 19.8938 34.13C19.3128 34.2892 18.6992 34.3735 18.068 34.3735C17.6203 34.3735 17.1866 34.3306 16.7637 34.2499C17.6456 37.0032 20.205 39.0074 23.239 39.0637C20.8662 40.9232 17.8777 42.031 14.6292 42.031C14.0709 42.031 13.5178 41.9985 12.9766 41.9338C16.0426 43.9013 19.6871 45.0484 23.6014 45.0484C36.3514 45.0484 43.324 34.4862 43.324 25.3253C43.324 25.025 43.3173 24.7257 43.3038 24.4289C44.6593 23.4519 45.8343 22.2314 46.7632 20.8413Z" fill="#F1F2F2"/>
</g>
<defs>
<clipPath id="clip0">
<rect width="58" height="58" fill="white"/>
</clipPath>
</defs>
</svg>
