<svg width="49" height="49" viewBox="0 0 49 49" fill="none" xmlns="http://www.w3.org/2000/svg">
<g clip-path="url(#clip0)">
<path d="M42.6965 33.9848L42.6968 33.9841C43.6839 31.5621 44.2285 28.9086 44.2285 26.1225C44.2285 14.5994 34.8874 5.2583 23.3642 5.2583C11.8411 5.2583 2.5 14.5994 2.5 26.1225C2.5 31.2113 4.31815 35.8689 7.3443 39.4895L7.34464 39.4899C8.8802 41.3279 10.7234 42.8965 12.7947 44.1154L12.7991 44.118C13.2775 44.4009 13.771 44.6646 14.2795 44.9109L14.2803 44.9112C15.0401 45.2795 15.8256 45.6028 16.6332 45.8773L16.6377 45.8788C16.9445 45.9838 17.2574 46.0819 17.577 46.1742L17.5853 46.1761L17.646 46.1935C17.9222 46.2726 18.2029 46.346 18.4882 46.4141L18.4931 46.4153C18.8573 46.5031 19.2289 46.5812 19.607 46.6503L42.6965 33.9848ZM42.6965 33.9848C40.5073 39.3612 36.1363 43.6227 30.6879 45.6649L30.6862 45.6655M42.6965 33.9848L30.6862 45.6655M30.6862 45.6655C29.7889 46.0026 28.8603 46.279 27.9052 46.4911L30.6862 45.6655ZM20.3703 46.7743L20.3725 46.7746C21.348 46.9143 22.3472 46.9868 23.3642 46.9868C24.9267 46.9868 26.4451 46.8152 27.905 46.4911L20.3703 46.7743ZM20.3703 46.7743C20.1157 46.738 19.8613 46.6966 19.6072 46.6503L20.3703 46.7743ZM17.6156 46.1854L17.6155 46.1854C17.6195 46.1865 17.6224 46.1873 17.6224 46.1873L17.6215 46.1871L17.6193 46.1864L17.6156 46.1854Z" fill="#E5D9FF" stroke="#B292D2" stroke-width="5"/>
<path d="M28.447 39.5548V48.9317C26.8106 49.295 25.1104 49.4868 23.3642 49.4868C16.1567 49.4868 9.71202 46.2233 5.42606 41.0928V39.5548C5.42606 35.538 8.15371 32.1583 11.8586 31.1672C11.994 31.1312 12.1302 31.0976 12.2686 31.068C12.6368 30.9882 13.0144 30.9326 13.3987 30.9012C13.6333 30.8823 13.8696 30.8727 14.1092 30.8727H19.7631C20.3956 30.8727 21.0116 30.9393 21.6048 31.068C21.6391 31.0748 21.6733 31.0823 21.7068 31.0902C21.807 31.113 21.9072 31.1379 22.0052 31.1643C22.008 31.1654 22.0102 31.1654 22.013 31.1664C22.9902 31.4278 23.9 31.8559 24.709 32.4174C26.9682 33.9854 28.447 36.5975 28.447 39.5548Z" fill="#3D4159"/>
<path d="M22.0337 31.0681L22.0131 31.1665L19.0041 45.1609C18.3232 45.2211 17.633 45.2518 16.9367 45.2518C16.2387 45.2518 15.5492 45.2211 14.8672 45.1609L11.8586 31.1672L11.8376 31.0681H22.0337Z" fill="#DDE8ED"/>
<path d="M19.2672 34.0053L16.9364 37.7437L14.6055 34.0053" fill="#F74F4F"/>
<path d="M19.0882 45.1523C18.6972 45.1887 18.3032 47.1206 17.9075 48.8457C17.5881 48.7695 17.2715 48.6867 16.9577 48.5969C16.9424 48.5933 16.926 48.5883 16.91 48.5837C16.5456 48.4789 16.1852 48.3662 15.8287 48.2443C15.4775 46.7013 15.1296 45.1847 14.7845 45.1534L16.9367 36.7708L19.0882 45.1523Z" fill="#F74F4F"/>
<path d="M16.9356 34.427L13.0269 36.5993L11.8376 31.0684L14.2665 29.6377" fill="#BFD5DE"/>
<path d="M16.9357 34.427L20.8448 36.5993L22.0338 31.0684L19.6049 29.6377" fill="#BFD5DE"/>
<path d="M20.0341 27.5283V31.3297C20.0341 32.7215 19.1164 33.898 17.8522 34.2888C17.5631 34.3786 17.2544 34.4271 16.9356 34.4271C15.2248 34.4271 13.8383 33.0406 13.8383 31.3297V27.5283H20.0341Z" fill="#EBAA88"/>
<path d="M20.0341 31.0891V31.3297C20.0341 32.7215 19.1164 33.898 17.8522 34.2887C16.7117 33.9383 15.8543 32.9465 15.696 31.7333C15.9028 31.7457 16.111 31.7522 16.3199 31.7522C16.906 31.7522 17.4804 31.7058 18.0401 31.6138C18.7299 31.503 19.3963 31.3254 20.0341 31.0891Z" fill="#FFC49F"/>
<path d="M8.43825 21.2975C8.43825 22.7314 7.39083 23.9207 6.01898 24.1414C5.86924 24.1656 5.71487 24.1785 5.55765 24.1785C3.96619 24.1785 2.6767 22.889 2.6767 21.2975C2.6767 19.7061 3.96619 18.4166 5.55765 18.4166C5.71487 18.4166 5.86924 18.4294 6.01898 18.4536C7.39083 18.6743 8.43825 19.8633 8.43825 21.2975Z" fill="#FFC49F"/>
<path d="M8.4383 21.2975C8.4383 22.7314 7.39087 23.9207 6.01902 24.1414C5.76982 23.2351 5.63684 22.2815 5.63684 21.2975C5.63684 20.3132 5.76982 19.3595 6.01902 18.4536C7.39087 18.6743 8.4383 19.8633 8.4383 21.2975Z" fill="#EBAA88"/>
<path d="M6.58722 21.2975C6.58722 21.8661 6.12625 22.3271 5.55762 22.3271C4.98898 22.3271 4.52802 21.8661 4.52802 21.2975C4.52802 20.7289 4.98898 20.2679 5.55762 20.2679C6.12625 20.2679 6.58722 20.7289 6.58722 21.2975Z" fill="#EBAA88"/>
<path d="M25.4338 21.2975C25.4338 22.7314 26.4813 23.9207 27.8531 24.1414C28.0032 24.1656 28.1572 24.1785 28.3148 24.1785C29.9063 24.1785 31.1954 22.889 31.1954 21.2975C31.1954 19.7061 29.9063 18.4166 28.3148 18.4166C28.1572 18.4166 28.0032 18.4294 27.8531 18.4536C26.4813 18.6743 25.4338 19.8633 25.4338 21.2975Z" fill="#FFC49F"/>
<path d="M25.4338 21.2975C25.4338 22.7314 26.4813 23.9207 27.8531 24.1414C28.1023 23.2351 28.2357 22.2815 28.2357 21.2975C28.2357 20.3132 28.1023 19.3595 27.8531 18.4536C26.4813 18.6743 25.4338 19.8633 25.4338 21.2975Z" fill="#EBAA88"/>
<path d="M27.6549 15.685V19.7666C27.6549 25.1004 23.7582 29.5254 18.6562 30.3464C18.6391 30.3493 18.6209 30.3521 18.6038 30.355C18.0612 30.4416 17.5043 30.4848 16.9357 30.4848C11.0166 30.4848 6.21793 25.6858 6.21793 19.7666V15.685C6.21793 14.4386 6.43041 13.2407 6.82328 12.1281C8.28925 7.95689 12.264 4.96613 16.9357 4.96613H16.9368C17.5043 4.96613 18.0619 5.00998 18.6056 5.0959C23.7325 5.89697 27.6549 10.3334 27.6549 15.685Z" fill="#EBAA88"/>
<path d="M29.3443 21.2975C29.3443 21.8661 28.8833 22.3271 28.3147 22.3271C27.7461 22.3271 27.2847 21.8661 27.2847 21.2975C27.2847 20.7289 27.7461 20.2679 28.3147 20.2679C28.8833 20.2679 29.3443 20.7289 29.3443 21.2975Z" fill="#EBAA88"/>
<path d="M27.6548 15.6849V19.7666C27.6548 25.1004 23.7582 29.5254 18.6561 30.3464C18.639 30.3493 18.6208 30.3521 18.6037 30.355C13.4768 29.5539 9.55551 25.1175 9.55551 19.7666V15.6849C9.55551 10.3334 13.4778 5.89696 18.6055 5.09589C23.7325 5.89696 27.6548 10.3334 27.6548 15.6849Z" fill="#FFC49F"/>
<path d="M14.6536 19.1424C14.6536 19.8141 14.1092 20.3585 13.4375 20.3585C12.7659 20.3585 12.2215 19.8141 12.2215 19.1424C12.2215 18.4707 12.7659 17.9267 13.4375 17.9267C14.1092 17.9267 14.6536 18.4707 14.6536 19.1424Z" fill="#3D4159"/>
<path d="M21.6508 19.1424C21.6508 19.8141 21.1064 20.3585 20.4348 20.3585C19.7634 20.3585 19.2191 19.8141 19.2191 19.1424C19.2191 18.4707 19.7634 17.9267 20.4348 17.9267C21.1064 17.9267 21.6508 18.4707 21.6508 19.1424Z" fill="#3D4159"/>
<path d="M14.4055 18.9278C14.4055 19.2155 14.1724 19.449 13.8847 19.449C13.5969 19.449 13.3634 19.2155 13.3634 18.9278C13.3634 18.6401 13.5969 18.4069 13.8847 18.4069C14.1724 18.4069 14.4055 18.6401 14.4055 18.9278Z" fill="white"/>
<path d="M21.4626 18.9278C21.4626 19.2155 21.2291 19.449 20.9414 19.449C20.6537 19.449 20.4205 19.2155 20.4205 18.9278C20.4205 18.6401 20.6537 18.4069 20.9414 18.4069C21.2291 18.4069 21.4626 18.6401 21.4626 18.9278Z" fill="white"/>
<path d="M18.152 21.7271H15.7203C15.4304 21.7271 15.1959 21.4922 15.1959 21.2023C15.1959 20.9129 15.4304 20.6779 15.7203 20.6779H18.152C18.4419 20.6779 18.6765 20.9129 18.6765 21.2023C18.6765 21.4922 18.4419 21.7271 18.152 21.7271Z" fill="#EBAA88"/>
<path d="M16.9364 25.0455C16.0387 25.0455 15.1414 24.8205 14.3232 24.3706C14.0921 24.2441 14.008 23.9539 14.1349 23.7232C14.2618 23.4925 14.5517 23.4084 14.7823 23.535C16.131 24.2765 17.7414 24.2765 19.0901 23.535C19.3204 23.4084 19.6106 23.4925 19.7375 23.7232C19.8644 23.9539 19.7803 24.2441 19.5492 24.3706C18.7314 24.8205 17.8337 25.0455 16.9364 25.0455Z" fill="#EBAA88"/>
<path d="M27.6549 11.9808V16.162H25.6598V12.8878L11.2597 10.2118L8.21296 9.64533V16.162H6.21793V11.9808C6.21793 7.21464 10.0811 3.3515 14.8462 3.3515H19.0263C19.1396 3.3515 19.253 3.35328 19.3667 3.35899C23.9736 3.53617 27.6549 7.32801 27.6549 11.9808Z" fill="#CA4B0C"/>
<path d="M27.6548 11.9808V16.162H25.6598V12.8878L11.2596 10.2118C12.0532 6.40111 15.3595 3.51338 19.3667 3.35901C23.9735 3.53619 27.6548 7.32803 27.6548 11.9808Z" fill="#FF661A"/>
<path d="M11.8375 30.5914L16.9099 48.5837C15.6204 48.2147 14.3769 47.7359 13.1898 47.1609L10.45 38.5323H11.6896L9.16263 31.9408L11.8375 30.5914Z" fill="#2A2F4F"/>
<path d="M22.1817 38.5323H23.4213L20.018 49.2493C18.9745 49.0996 17.9524 48.8811 16.9578 48.5969L22.0338 30.5914L24.709 31.9408L22.1817 38.5323Z" fill="#2A2F4F"/>
<path d="M45.0119 30.058V34.9276C42.5602 40.9487 37.6689 45.7181 31.5654 48.0058C30.5576 48.3844 29.5162 48.6942 28.447 48.9317C26.8106 49.2949 25.1104 49.4867 23.3643 49.4867L19.1596 49.0101V30.058C19.1596 28.7717 20.2031 27.7293 21.4883 27.7293H42.6832C43.9695 27.7293 45.0119 28.7717 45.0119 30.058Z" fill="#A8A8A8"/>
<path d="M31.5654 46.27V48.0058C30.5575 48.3844 29.5162 48.6942 28.447 48.9316C26.8106 49.2949 25.1104 49.4867 23.3642 49.4867C22.2284 49.4867 21.1107 49.4058 20.018 49.2493C19.3036 49.1473 18.5998 49.0119 17.9075 48.8457C17.5881 48.7694 17.2715 48.6867 16.9577 48.5969C16.9424 48.5933 16.926 48.5883 16.91 48.5837C16.5456 48.4789 16.1852 48.3662 15.8287 48.2443C14.9224 47.9363 14.0415 47.5737 13.1898 47.1609C12.6222 46.886 12.0675 46.5897 11.5267 46.27H31.5654Z" fill="#A8A8A8"/>
<path d="M45.0119 30.058V34.9276C42.5602 40.9487 37.6689 45.7181 31.5655 48.0058C30.5576 48.3844 29.5162 48.6942 28.4471 48.9317C26.8107 49.2949 25.1105 49.4867 23.3643 49.4867H20.4948V30.058C20.4948 28.7717 21.5379 27.7293 22.8235 27.7293H42.6832C43.9695 27.7293 45.0119 28.7717 45.0119 30.058Z" fill="#FDFDFD"/>
<path d="M35.1373 38.5455C35.1373 39.8624 34.0699 40.9298 32.7533 40.9298C31.4367 40.9298 30.3694 39.8624 30.3694 38.5455C30.3694 37.2289 31.4367 36.1615 32.7533 36.1615C34.0699 36.1615 35.1373 37.2289 35.1373 38.5455Z" fill="#A9B0B8"/>
<path d="M25.6357 0H49V17.8477H25.6357V0Z" fill="#532193"/>
<path d="M35.0476 16.9961L32.7748 22.394L42.7182 16.7119L35.0476 16.9961Z" fill="#532193"/>
<g clip-path="url(#clip1)">
<path d="M37.399 13.9537C40.2217 13.9537 42.5099 11.6654 42.5099 8.84274C42.5099 6.02005 40.2217 3.73181 37.399 3.73181C34.5763 3.73181 32.2881 6.02005 32.2881 8.84274C32.2881 11.6654 34.5763 13.9537 37.399 13.9537Z" fill="#FFD54F"/>
<path d="M36.3342 8.09738C36.1579 8.09738 36.0148 7.95427 36.0148 7.77794C36.0148 7.48449 35.7758 7.24556 35.4824 7.24556C35.1889 7.24556 34.95 7.48449 34.95 7.77794C34.95 7.95427 34.8069 8.09738 34.6306 8.09738C34.4542 8.09738 34.3111 7.95427 34.3111 7.77794C34.3111 7.13184 34.8363 6.60669 35.4824 6.60669C36.1285 6.60669 36.6536 7.13184 36.6536 7.77794C36.6536 7.95427 36.5105 8.09738 36.3342 8.09738Z" fill="#6D4C41"/>
<path d="M40.1674 8.09738C39.9911 8.09738 39.848 7.95427 39.848 7.77794C39.848 7.48449 39.6091 7.24556 39.3156 7.24556C39.0222 7.24556 38.7832 7.48449 38.7832 7.77794C38.7832 7.95427 38.6401 8.09738 38.4638 8.09738C38.2875 8.09738 38.1443 7.95427 38.1443 7.77794C38.1443 7.13184 38.6695 6.60669 39.3156 6.60669C39.9617 6.60669 40.4869 7.13184 40.4869 7.77794C40.4869 7.95427 40.3438 8.09738 40.1674 8.09738Z" fill="#6D4C41"/>
<path d="M41.0065 10.1077C40.9085 10.4186 40.7807 10.704 40.6146 10.9723H34.1834C34.0173 10.704 33.8895 10.4186 33.7915 10.1077C33.7617 10.0098 33.7788 9.90754 33.8427 9.82661C33.9023 9.74143 33.996 9.69458 34.0982 9.69458H40.6998C40.802 9.69458 40.8957 9.74143 40.9554 9.82661C41.0192 9.90754 41.0363 10.0098 41.0065 10.1077Z" fill="white"/>
<path d="M40.6147 10.9723C39.9417 12.0754 38.7364 12.7696 37.399 12.7696C36.0617 12.7696 34.8563 12.0754 34.1834 10.9723H40.6147Z" fill="#E53935"/>
</g>
</g>
<defs>
<clipPath id="clip0">
<rect width="49" height="49" fill="white"/>
</clipPath>
<clipPath id="clip1">
<rect width="10.2219" height="10.2219" fill="white" transform="translate(32.2881 3.73181)"/>
</clipPath>
</defs>
</svg>
