<svg width="80" height="80" viewBox="0 0 80 80" fill="none" xmlns="http://www.w3.org/2000/svg">
<g clip-path="url(#clip0)">
<path d="M78.3517 20.7958C77.4295 17.3687 74.7275 14.6673 71.301 13.7445C65.0406 12.0312 39.9992 12.0312 39.9992 12.0312C39.9992 12.0312 14.9584 12.0312 8.69808 13.6791C5.3375 14.6014 2.56957 17.3693 1.64733 20.7958C0 27.0556 0 40.0377 0 40.0377C0 40.0377 0 53.0851 1.64733 59.2795C2.57018 62.706 5.27158 65.4081 8.69869 66.3309C15.0244 68.0442 39.9998 68.0442 39.9998 68.0442C39.9998 68.0442 65.0406 68.0442 71.301 66.3962C74.7281 65.474 77.4295 62.772 78.3523 59.3455C79.9997 53.0851 79.9997 40.1036 79.9997 40.1036C79.9997 40.1036 80.0656 27.0556 78.3517 20.7958Z" fill="#FF0000"/>
<path d="M32.0264 52.0311L52.8497 40.0377L32.0264 28.0443V52.0311Z" fill="white"/>
</g>
<defs>
<clipPath id="clip0">
<rect width="80" height="80" fill="white"/>
</clipPath>
</defs>
</svg>
